<?xml version="1.0" encoding="utf-8"?>
<!-- Generator: Adobe Illustrator 23.1.1, SVG Export Plug-In . SVG Version: 6.00 Build 0)  -->
<svg version="1.1" id="Layer_1" xmlns="http://www.w3.org/2000/svg" xmlns:xlink="http://www.w3.org/1999/xlink" x="0px" y="0px"
	 viewBox="0 0 398.3 122.4" style="enable-background:new 0 0 398.3 122.4;" xml:space="preserve">
<style type="text/css">
	.st0{fill:#FFFFFF;}
</style>
<path class="st0" d="M12.9,89.8c-2.5,0-4.8-0.4-7-1.1S1.7,86.8,0,85.3l5.5-8.8c0.8,0.7,1.7,1.2,2.7,1.6s2,0.5,3.1,0.5
	c1.7,0,3.2-0.6,4.4-1.8c1.3-1.2,1.9-2.7,1.9-4.6V20h13v51.2c0,2.7-0.5,5.2-1.4,7.5S27,83,25.4,84.6s-3.5,2.9-5.6,3.8
	C17.7,89.4,15.4,89.8,12.9,89.8z M17.6,12.9V0h13v12.9H17.6z"/>
<g>
	<path class="st0" d="M67.9,31.9c-2.5-2.3-5.5-3.4-9.1-3.4c-1.7,0-3.4,0.3-4.9,0.9s-2.9,1.5-4,2.6c-1.2,1.1-2.1,2.4-2.9,4
		c-0.7,1.6-1.2,3.3-1.3,5.1h26.4C71.8,37.3,70.4,34.2,67.9,31.9z"/>
	<path class="st0" d="M76.8,0.1c-22,0-40.2,16.1-43.5,37.2c0.2-0.6,0.4-1.2,0.6-1.8c1.2-3.2,3-6,5.3-8.4c2.3-2.4,5.2-4.3,8.5-5.8
		c3.3-1.4,7.1-2.1,11.2-2.1c4.1,0,7.8,0.7,11.1,2.1c3.3,1.4,6,3.3,8.3,5.7c2.3,2.4,4,5.2,5.2,8.3c1.2,3.2,1.8,6.5,1.8,9.9v2.4
		c0,0.8-0.1,1.4-0.2,1.9H45.9c0.2,2,0.7,3.8,1.5,5.3c0.8,1.6,1.8,2.9,3,4c1.2,1.1,2.6,1.9,4.2,2.5c1.6,0.6,3.2,0.9,4.9,0.9
		c2.6,0,5-0.6,7.3-1.9c2.3-1.3,3.9-2.9,4.7-5l11.2,3.1c-1.9,3.9-4.9,7.1-9,9.6c-4.2,2.5-9.1,3.8-14.8,3.8c-4.1,0-7.8-0.7-11.1-2.1
		c-3.3-1.4-6.1-3.3-8.4-5.7c-1.8-1.9-3.2-3.9-4.4-6.2c5.8,17.6,22.3,30.3,41.8,30.3c24.3,0,44-19.7,44-44S101.1,0.1,76.8,0.1z"/>
</g>
<path class="st0" d="M137.8,52.7c-1.2,0-2.3-0.2-3.4-0.5c-1-0.3-2-0.9-2.8-1.6l1.5-1.9c0.6,0.5,1.3,0.9,2.1,1.1s1.5,0.3,2.3,0.3
	c0.7,0,1.4-0.1,2.1-0.4s1.3-0.7,1.8-1.2s1-1.1,1.3-1.8s0.5-1.5,0.5-2.3V12.9h2.8v31.2c0,1.3-0.2,2.4-0.7,3.4s-1.1,1.9-1.9,2.7
	s-1.7,1.3-2.7,1.8C139.9,52.5,138.9,52.7,137.8,52.7L137.8,52.7z M143.3,6.2V1h2.8v5.2H143.3z"/>
<path class="st0" d="M163.7,43.1c-2.1,0-4-0.4-5.8-1.2s-3.3-1.9-4.6-3.3s-2.3-3-3-4.9s-1.1-3.8-1.1-5.9s0.4-4.1,1.1-5.9
	c0.7-1.9,1.8-3.5,3.1-4.9s2.8-2.5,4.6-3.3c1.7-0.8,3.6-1.2,5.7-1.2s4,0.4,5.7,1.2c1.8,0.8,3.3,1.9,4.6,3.3s2.3,3,3.1,4.9
	c0.7,1.9,1.1,3.8,1.1,5.9s-0.4,4-1.1,5.9c-0.7,1.9-1.8,3.5-3,4.9c-1.3,1.4-2.8,2.5-4.6,3.3S165.8,43.1,163.7,43.1z M152.1,27.9
	c0,1.7,0.3,3.4,0.9,4.9c0.6,1.5,1.4,2.9,2.5,4c1,1.1,2.3,2,3.7,2.7s2.9,1,4.5,1s3.1-0.3,4.5-1s2.6-1.6,3.7-2.8
	c1-1.2,1.9-2.5,2.5-4.1s0.9-3.2,0.9-5c0-1.7-0.3-3.4-0.9-4.9s-1.5-2.9-2.5-4c-1-1.2-2.3-2.1-3.7-2.8s-2.9-1-4.5-1s-3,0.3-4.4,1
	s-2.6,1.6-3.7,2.8s-1.9,2.6-2.5,4.1C152.5,24.5,152.1,26.2,152.1,27.9z"/>
<path class="st0" d="M195.3,15.5c-2.7,0.1-5,0.9-7,2.4s-3.4,3.6-4.2,6.2v18.5h-2.8V12.9h2.7v7.3c1-2.1,2.4-3.8,4.1-5.1
	s3.5-2.1,5.4-2.3h1h0.8C195.3,12.8,195.3,15.5,195.3,15.5z"/>
<path class="st0" d="M209.1,43c-2.1,0-3.9-0.4-5.6-1.3s-3.2-2-4.4-3.4c-1.3-1.4-2.2-3-2.9-4.9c-0.7-1.8-1-3.7-1-5.6c0-2,0.3-4,1-5.8
	c0.7-1.9,1.6-3.5,2.8-4.9s2.7-2.6,4.4-3.4s3.5-1.3,5.6-1.3c2.6,0,4.8,0.7,6.8,2c1.9,1.3,3.6,3,4.9,4.9v-6.4h2.6v30.2
	c0,2-0.4,3.8-1.1,5.3c-0.8,1.5-1.8,2.8-3,3.8c-1.3,1-2.8,1.8-4.4,2.3c-1.7,0.5-3.5,0.8-5.3,0.8c-1.7,0-3.2-0.2-4.6-0.5
	s-2.6-0.8-3.6-1.4s-2-1.3-2.8-2.2s-1.5-1.8-2.1-2.8l1.9-1.3c1.2,2,2.8,3.5,4.8,4.4s4.2,1.4,6.4,1.4c1.5,0,3-0.2,4.3-0.6
	s2.5-1,3.5-1.9c1-0.8,1.8-1.8,2.4-3s0.9-2.6,0.9-4.3v-6.5c-1.2,1.9-2.8,3.4-4.8,4.6C213.3,42.4,211.3,43,209.1,43L209.1,43z
	 M209.8,40.6c1.3,0,2.5-0.2,3.6-0.7c1.2-0.5,2.3-1.1,3.2-1.9c1-0.8,1.8-1.6,2.4-2.6c0.6-0.9,1-1.9,1.1-2.9v-9.7
	c-0.5-1.1-1.1-2.2-1.8-3.2c-0.8-1-1.6-1.8-2.6-2.5s-2-1.2-3.1-1.6s-2.3-0.6-3.4-0.6c-1.8,0-3.4,0.4-4.8,1.1c-1.4,0.8-2.6,1.7-3.6,3
	c-1,1.2-1.7,2.6-2.2,4.1s-0.8,3.1-0.8,4.6c0,1.7,0.3,3.3,0.9,4.8c0.6,1.5,1.5,2.9,2.5,4c1.1,1.2,2.3,2.1,3.8,2.8
	C206.6,40.2,208.1,40.6,209.8,40.6L209.8,40.6z"/>
<path class="st0" d="M240.8,43.1c-2.1,0-4-0.4-5.8-1.2s-3.3-1.9-4.6-3.4c-1.3-1.4-2.3-3.1-3.1-4.9c-0.7-1.9-1.1-3.9-1.1-6
	s0.4-4.1,1.1-5.9s1.8-3.5,3-4.8c1.3-1.4,2.8-2.5,4.6-3.3s3.7-1.2,5.8-1.2s4,0.4,5.8,1.2s3.3,1.9,4.6,3.3s2.3,3,3,4.8
	s1.1,3.8,1.1,5.8v0.7v0.5h-26c0.1,1.7,0.5,3.3,1.2,4.8s1.5,2.7,2.6,3.8c1,1.1,2.3,1.9,3.6,2.5c1.4,0.6,2.8,0.9,4.4,0.9
	c1,0,2-0.1,3-0.4s1.9-0.7,2.8-1.2s1.6-1.1,2.3-1.8s1.2-1.5,1.6-2.3l2.5,0.7c-0.5,1.1-1.1,2-1.9,2.9s-1.8,1.7-2.8,2.3
	c-1.1,0.6-2.3,1.1-3.6,1.5C243.5,43,242.1,43.1,240.8,43.1L240.8,43.1z M252.4,26.6c-0.1-1.7-0.5-3.3-1.2-4.8
	c-0.7-1.4-1.5-2.7-2.6-3.7c-1-1-2.3-1.9-3.6-2.5c-1.4-0.6-2.8-0.9-4.4-0.9s-3,0.3-4.4,0.9c-1.4,0.6-2.6,1.4-3.6,2.5
	c-1,1-1.9,2.3-2.5,3.8s-1,3-1.1,4.8L252.4,26.6L252.4,26.6z"/>
<path class="st0" d="M144,88.7c-2.1,0-4-0.4-5.8-1.2s-3.3-1.9-4.6-3.4s-2.3-3.1-3.1-4.9c-0.7-1.9-1.1-3.9-1.1-6s0.4-4.1,1.1-5.9
	s1.8-3.5,3-4.8c1.3-1.4,2.8-2.5,4.6-3.3s3.7-1.2,5.8-1.2s4,0.4,5.8,1.2s3.3,1.9,4.6,3.3s2.3,3,3,4.8s1.1,3.8,1.1,5.8v0.7v0.5h-26
	c0.1,1.7,0.5,3.3,1.2,4.8s1.5,2.7,2.6,3.8c1,1.1,2.3,1.9,3.6,2.5c1.4,0.6,2.8,0.9,4.4,0.9c1,0,2-0.1,3-0.4s1.9-0.7,2.8-1.2
	s1.6-1.1,2.3-1.8s1.2-1.5,1.6-2.3l2.5,0.7c-0.5,1.1-1.1,2-1.9,2.9s-1.8,1.7-2.8,2.3c-1.1,0.6-2.3,1.2-3.6,1.5
	C146.7,88.5,145.4,88.7,144,88.7L144,88.7z M155.6,72.2c-0.1-1.7-0.5-3.3-1.2-4.8c-0.7-1.4-1.5-2.7-2.6-3.7c-1-1-2.3-1.9-3.6-2.5
	c-1.4-0.6-2.8-0.9-4.4-0.9s-3,0.3-4.4,0.9s-2.6,1.4-3.6,2.5c-1,1-1.9,2.3-2.5,3.8s-1,3-1.1,4.8L155.6,72.2L155.6,72.2z"/>
<path class="st0" d="M158.9,73.2c0-2.1,0.4-4.1,1.1-5.9c0.7-1.9,1.7-3.5,3-4.8s2.9-2.5,4.6-3.2c1.8-0.8,3.7-1.2,5.9-1.2
	c2.7,0,5.1,0.6,7.1,1.8s3.6,2.9,4.6,5.1l-2.8,0.9c-0.9-1.6-2.1-2.9-3.8-3.8c-1.6-0.9-3.4-1.4-5.4-1.4c-1.6,0-3.2,0.3-4.6,1
	c-1.4,0.6-2.6,1.5-3.7,2.7c-1,1.1-1.9,2.5-2.5,4s-0.9,3.2-0.9,5s0.3,3.5,0.9,5c0.6,1.6,1.5,2.9,2.5,4.1s2.3,2.1,3.7,2.8s2.9,1,4.5,1
	c1,0,2-0.2,3-0.5s1.9-0.7,2.8-1.2s1.6-1.1,2.2-1.7c0.6-0.7,1.1-1.4,1.3-2.1l2.8,0.8c-0.4,1-1,2-1.7,2.9c-0.8,0.9-1.7,1.7-2.8,2.3
	s-2.2,1.2-3.5,1.5c-1.3,0.4-2.6,0.5-4,0.5c-2.1,0-4-0.4-5.8-1.2s-3.3-1.9-4.6-3.4s-2.3-3.1-3.1-4.9
	C159.3,77.3,158.9,75.3,158.9,73.2L158.9,73.2z"/>
<path class="st0" d="M212.6,88.1h-2.8V71.6c0-3.7-0.6-6.4-1.9-8.3c-1.3-1.8-3.1-2.7-5.5-2.7c-1.2,0-2.4,0.2-3.6,0.7
	s-2.3,1.1-3.3,1.9c-1,0.8-1.9,1.8-2.7,2.9s-1.3,2.3-1.7,3.6v18.4h-2.8V46.5h2.8v19c1.2-2.3,2.9-4.2,5-5.5c2.1-1.4,4.5-2.1,6.9-2.1
	c1.6,0,3,0.3,4.2,0.9s2.2,1.5,2.9,2.6c0.8,1.1,1.3,2.5,1.7,4.1s0.5,3.4,0.5,5.4v17.2L212.6,88.1z"/>
<path class="st0" d="M230,88.7c-2.1,0-4-0.4-5.8-1.2s-3.3-1.9-4.6-3.4c-1.3-1.4-2.3-3.1-3.1-4.9c-0.7-1.9-1.1-3.9-1.1-6
	s0.4-4.1,1.1-5.9s1.8-3.5,3-4.8c1.3-1.4,2.8-2.5,4.6-3.3s3.7-1.2,5.8-1.2s4,0.4,5.8,1.2s3.3,1.9,4.6,3.3s2.3,3,3,4.8
	s1.1,3.8,1.1,5.8v0.7v0.5h-26c0.1,1.7,0.5,3.3,1.2,4.8s1.5,2.7,2.6,3.8s2.3,1.9,3.6,2.5c1.4,0.6,2.8,0.9,4.4,0.9c1,0,2-0.1,3-0.4
	s1.9-0.7,2.8-1.2s1.6-1.1,2.3-1.8s1.2-1.5,1.6-2.3l2.5,0.7c-0.5,1.1-1.1,2-1.9,2.9s-1.8,1.7-2.8,2.3c-1.1,0.6-2.3,1.2-3.6,1.5
	C232.6,88.5,231.3,88.7,230,88.7L230,88.7z M241.6,72.2c-0.1-1.7-0.5-3.3-1.2-4.8c-0.7-1.4-1.5-2.7-2.6-3.7s-2.3-1.9-3.6-2.5
	c-1.4-0.6-2.8-0.9-4.4-0.9s-3,0.3-4.4,0.9s-2.6,1.4-3.6,2.5c-1,1-1.9,2.3-2.5,3.8s-1,3-1.1,4.8L241.6,72.2L241.6,72.2z"/>
<path class="st0" d="M254.2,88.7c-1.4,0-2.7-0.2-3.8-0.7s-2.2-1.1-3.1-1.9s-1.6-1.8-2.1-2.9s-0.7-2.3-0.7-3.6s0.3-2.5,0.9-3.5
	c0.6-1.1,1.5-2,2.6-2.8s2.4-1.4,3.9-1.8s3.2-0.7,5-0.7c1.6,0,3.2,0.1,4.8,0.4s3.1,0.7,4.4,1.2v-2.9c0-2.8-0.8-5-2.4-6.7
	s-3.8-2.5-6.5-2.5c-1.5,0-3,0.3-4.6,0.9s-3.2,1.5-4.9,2.6l-1.1-1.9c3.8-2.6,7.4-3.9,10.8-3.9c3.6,0,6.4,1,8.5,3.1s3.1,4.9,3.1,8.6
	v14.5c0,1,0.4,1.4,1.2,1.4v2.6c-0.2,0-0.4,0.1-0.5,0.1s-0.3,0-0.5,0c-0.7,0-1.3-0.2-1.9-0.7s-0.9-1.1-0.9-1.9v-2.5
	c-1.4,1.8-3.1,3.2-5.2,4.1C259,88.2,256.7,88.7,254.2,88.7L254.2,88.7z M254.8,86.4c2.2,0,4.2-0.4,6.1-1.2s3.2-1.9,4.2-3.3
	c0.6-0.8,1-1.5,1-2.3v-5.2c-2.9-1.1-5.9-1.6-8.9-1.6s-5.4,0.6-7.2,1.8s-2.7,2.8-2.7,4.8c0,1,0.2,1.9,0.6,2.8s0.9,1.6,1.6,2.3
	c0.7,0.6,1.5,1.1,2.4,1.5C252.7,86.2,253.7,86.4,254.8,86.4L254.8,86.4z"/>
<path class="st0" d="M286,88.6c-2.1,0-3.9-0.4-5.6-1.3s-3.2-2-4.4-3.4c-1.3-1.4-2.2-3-2.9-4.9c-0.7-1.8-1-3.7-1-5.6c0-2,0.3-4,1-5.8
	c0.7-1.9,1.6-3.5,2.8-4.9s2.7-2.6,4.4-3.4s3.5-1.3,5.6-1.3c2.6,0,4.8,0.7,6.8,2c1.9,1.3,3.6,3,4.9,4.9v-6.4h2.6v30.2
	c0,2-0.4,3.8-1.1,5.3c-0.8,1.5-1.8,2.8-3,3.8s-2.8,1.8-4.4,2.3c-1.7,0.5-3.5,0.8-5.3,0.8c-1.7,0-3.2-0.2-4.6-0.5s-2.6-0.8-3.6-1.4
	s-2-1.3-2.8-2.2s-1.5-1.8-2.1-2.8l1.9-1.3c1.2,2,2.8,3.5,4.8,4.4s4.2,1.4,6.4,1.4c1.5,0,3-0.2,4.3-0.6s2.5-1,3.5-1.9
	c1-0.8,1.8-1.8,2.4-3s0.9-2.6,0.9-4.3v-6.5c-1.2,1.9-2.8,3.4-4.8,4.6C290.2,88,288.1,88.6,286,88.6L286,88.6z M286.7,86.1
	c1.3,0,2.5-0.2,3.6-0.7c1.2-0.5,2.3-1.1,3.2-1.9c1-0.8,1.8-1.6,2.4-2.6c0.6-0.9,1-1.9,1.1-2.9v-9.7c-0.5-1.1-1.1-2.2-1.8-3.2
	c-0.8-1-1.6-1.8-2.6-2.5s-2-1.2-3.1-1.6s-2.3-0.6-3.4-0.6c-1.8,0-3.4,0.4-4.8,1.1c-1.4,0.8-2.6,1.7-3.6,3c-1,1.2-1.7,2.6-2.2,4.1
	s-0.8,3.1-0.8,4.6c0,1.7,0.3,3.3,0.9,4.8s1.5,2.9,2.5,4c1.1,1.2,2.3,2.1,3.8,2.8C283.4,85.8,285,86.1,286.7,86.1L286.7,86.1z"/>
<path class="st0" d="M312.4,88.7c-1.4,0-2.7-0.2-3.8-0.7s-2.2-1.1-3.1-1.9s-1.6-1.8-2.1-2.9s-0.7-2.3-0.7-3.6s0.3-2.5,0.9-3.5
	c0.6-1.1,1.5-2,2.6-2.8s2.4-1.4,3.9-1.8s3.2-0.7,5-0.7c1.6,0,3.2,0.1,4.8,0.4s3.1,0.7,4.4,1.2v-2.9c0-2.8-0.8-5-2.4-6.7
	s-3.8-2.5-6.5-2.5c-1.5,0-3,0.3-4.6,0.9s-3.2,1.5-4.9,2.6l-1.1-1.9c3.8-2.6,7.4-3.9,10.8-3.9c3.6,0,6.4,1,8.5,3.1s3.1,4.9,3.1,8.6
	v14.5c0,1,0.4,1.4,1.2,1.4v2.6c-0.2,0-0.4,0.1-0.5,0.1s-0.3,0-0.5,0c-0.7,0-1.3-0.2-1.9-0.7s-0.9-1.1-0.9-1.9v-2.5
	c-1.4,1.8-3.1,3.2-5.2,4.1C317.1,88.2,314.8,88.7,312.4,88.7L312.4,88.7z M312.9,86.4c2.2,0,4.2-0.4,6.1-1.2s3.2-1.9,4.2-3.3
	c0.6-0.8,1-1.5,1-2.3v-5.2c-2.9-1.1-5.9-1.6-8.9-1.6s-5.4,0.6-7.2,1.8s-2.7,2.8-2.7,4.8c0,1,0.2,1.9,0.6,2.8s0.9,1.6,1.6,2.3
	c0.7,0.6,1.5,1.1,2.4,1.5C310.9,86.2,311.9,86.4,312.9,86.4L312.9,86.4z"/>
<path class="st0" d="M346.1,61.1c-2.7,0.1-5,0.9-7,2.4s-3.4,3.6-4.2,6.2v18.5H332V58.5h2.7v7.3c1-2.1,2.4-3.8,4.1-5.1
	s3.5-2.1,5.4-2.3h1h0.8v2.7H346.1z"/>
<path class="st0" d="M354.5,88.7c-1.4,0-2.7-0.2-3.8-0.7s-2.2-1.1-3.1-1.9s-1.6-1.8-2.1-2.9s-0.7-2.3-0.7-3.6s0.3-2.5,0.9-3.5
	c0.6-1.1,1.5-2,2.6-2.8s2.4-1.4,3.9-1.8s3.2-0.7,5-0.7c1.6,0,3.2,0.1,4.8,0.4s3.1,0.7,4.4,1.2v-2.9c0-2.8-0.8-5-2.4-6.7
	s-3.8-2.5-6.5-2.5c-1.5,0-3,0.3-4.6,0.9s-3.2,1.5-4.9,2.6l-1.1-1.9c3.8-2.6,7.4-3.9,10.8-3.9c3.6,0,6.4,1,8.5,3.1s3.1,4.9,3.1,8.6
	v14.5c0,1,0.4,1.4,1.2,1.4v2.6c-0.2,0-0.4,0.1-0.5,0.1s-0.3,0-0.5,0c-0.7,0-1.3-0.2-1.9-0.7s-0.9-1.1-0.9-1.9v-2.5
	c-1.4,1.8-3.1,3.2-5.2,4.1C359.3,88.2,357,88.7,354.5,88.7L354.5,88.7z M355.1,86.4c2.2,0,4.2-0.4,6.1-1.2s3.2-1.9,4.2-3.3
	c0.6-0.8,1-1.5,1-2.3v-5.2c-2.9-1.1-5.9-1.6-8.9-1.6s-5.4,0.6-7.2,1.8s-2.7,2.8-2.7,4.8c0,1,0.2,1.9,0.6,2.8s0.9,1.6,1.6,2.3
	c0.7,0.6,1.5,1.1,2.4,1.5C353.1,86.2,354.1,86.4,355.1,86.4L355.1,86.4z"/>
<path class="st0" d="M375.3,98.2c0.3,0,0.8,0,1.5-0.1c0.7,0,1.2-0.2,1.5-0.3c0.2-0.1,0.3-0.3,0.5-0.5c0.2-0.3,0.5-0.8,0.8-1.5
	s0.8-1.6,1.3-2.9c0.5-1.2,1.2-2.8,2-4.8l-13.2-29.6h3l11.7,26.8l11-26.8h2.8l-16.2,39c-0.6,1.4-1.3,2.3-2.3,2.7
	c-0.9,0.4-2.1,0.7-3.4,0.7h-0.6c0,0-0.4,0-0.6-0.1v-2.6L375.3,98.2z"/>
<path class="st0" d="M21.7,119c0,0.5-0.1,0.9-0.3,1.3s-0.4,0.8-0.7,1.1s-0.7,0.5-1.1,0.7s-0.9,0.3-1.3,0.3h-6v-12.8h6
	c0.4,0,0.8,0.1,1.2,0.3s0.7,0.4,0.9,0.7s0.4,0.7,0.6,1c0.1,0.4,0.2,0.8,0.2,1.2c0,0.6-0.2,1.2-0.5,1.8c-0.3,0.5-0.8,0.9-1.4,1.2
	c0.7,0.2,1.3,0.6,1.7,1.2S21.7,118.2,21.7,119z M13.2,110.4v5.1h4.7c0.3,0,0.7-0.1,1-0.2s0.5-0.3,0.7-0.6c0.2-0.2,0.4-0.5,0.5-0.8
	s0.2-0.6,0.2-1c0-0.3-0.1-0.7-0.2-1s-0.3-0.6-0.5-0.8s-0.4-0.4-0.7-0.6c-0.3-0.1-0.6-0.2-0.9-0.2L13.2,110.4L13.2,110.4z
	 M20.8,118.9c0-0.3-0.1-0.7-0.2-1s-0.3-0.6-0.5-0.8s-0.5-0.4-0.8-0.6c-0.3-0.1-0.6-0.2-0.9-0.2h-5.2v5.2h5.1c0.4,0,0.7-0.1,1-0.2
	s0.6-0.3,0.8-0.6c0.2-0.2,0.4-0.5,0.5-0.8C20.8,119.5,20.8,119.2,20.8,118.9z"/>
<path class="st0" d="M30.9,122.4c-0.9,0-1.7-0.2-2.4-0.6s-1.4-0.9-1.9-1.5s-0.9-1.3-1.2-2.1s-0.4-1.6-0.4-2.4c0-0.9,0.2-1.7,0.5-2.4
	c0.3-0.8,0.7-1.5,1.3-2.1c0.5-0.6,1.2-1.1,1.9-1.4s1.5-0.5,2.4-0.5s1.7,0.2,2.4,0.6s1.4,0.9,1.9,1.5s0.9,1.3,1.2,2.1
	s0.4,1.6,0.4,2.3c0,0.9-0.2,1.7-0.5,2.5s-0.7,1.5-1.3,2.1c-0.5,0.6-1.2,1.1-1.9,1.4C32.5,122.2,31.7,122.4,30.9,122.4z M25.8,115.9
	c0,0.7,0.1,1.4,0.4,2.1c0.2,0.7,0.6,1.3,1,1.8c0.5,0.5,1,0.9,1.6,1.3c0.6,0.3,1.3,0.5,2,0.5c0.8,0,1.5-0.2,2.1-0.5s1.1-0.8,1.6-1.3
	c0.4-0.5,0.8-1.1,1-1.8s0.4-1.4,0.4-2.1s-0.1-1.4-0.4-2.1s-0.6-1.3-1.1-1.8c-0.4-0.5-1-0.9-1.6-1.3c-0.6-0.3-1.3-0.5-2-0.5
	c-0.8,0-1.5,0.2-2.1,0.5s-1.2,0.8-1.6,1.3s-0.8,1.1-1,1.8S25.8,115.2,25.8,115.9z"/>
<path class="st0" d="M39,122.3l5.4-12.8h0.8l5.4,12.8h-1l-1.8-4.2h-6.1l-1.8,4.2C39.9,122.3,39,122.3,39,122.3z M44.8,110.6
	l-2.8,6.7h5.6L44.8,110.6z"/>
<path class="st0" d="M54.1,122.3v-12.8h5.3c0.5,0,1,0.1,1.5,0.3s0.8,0.5,1.2,0.9c0.3,0.4,0.6,0.8,0.8,1.3s0.3,1,0.3,1.4
	c0,0.5-0.1,0.9-0.2,1.4c-0.1,0.4-0.3,0.8-0.6,1.2c-0.3,0.3-0.6,0.6-1,0.9c-0.4,0.2-0.8,0.4-1.2,0.5l3.2,5h-1.1l-3.1-4.8H55v4.8h-0.9
	V122.3z M55,116.6h4.5c0.4,0,0.8-0.1,1.1-0.3s0.6-0.4,0.9-0.7c0.2-0.3,0.4-0.6,0.5-1s0.2-0.8,0.2-1.2s-0.1-0.8-0.2-1.2
	c-0.2-0.4-0.4-0.7-0.6-1c-0.3-0.3-0.6-0.5-0.9-0.7s-0.7-0.3-1.1-0.3H55C55,110.2,55,116.6,55,116.6z"/>
<path class="st0" d="M67.3,122.3v-12.8h4.2c1,0,1.9,0.2,2.7,0.5s1.4,0.8,1.9,1.4s0.9,1.3,1.1,2c0.3,0.8,0.4,1.6,0.4,2.5
	c0,1-0.1,1.9-0.4,2.6c-0.3,0.8-0.7,1.5-1.2,2c-0.5,0.6-1.2,1-1.9,1.3c-0.8,0.3-1.6,0.5-2.5,0.5C71.6,122.3,67.3,122.3,67.3,122.3z
	 M76.7,115.9c0-0.8-0.1-1.5-0.3-2.2s-0.6-1.3-1-1.8s-1-0.9-1.6-1.2s-1.4-0.4-2.2-0.4h-3.3v11.1h3.3c0.8,0,1.6-0.1,2.2-0.4
	s1.2-0.7,1.6-1.2s0.8-1.1,1-1.8S76.7,116.7,76.7,115.9z"/>
<path class="st0" d="M87,115.8c0-0.8,0.1-1.5,0.4-2.3s0.7-1.4,1.2-2s1.1-1.1,1.9-1.5c0.7-0.4,1.6-0.6,2.6-0.6c1.1,0,2.1,0.3,2.9,0.8
	s1.4,1.2,1.8,2l-0.8,0.4c-0.2-0.4-0.5-0.8-0.8-1.1s-0.6-0.5-1-0.7s-0.7-0.3-1.1-0.4s-0.8-0.1-1.1-0.1c-0.8,0-1.5,0.2-2.2,0.5
	c-0.6,0.3-1.2,0.8-1.6,1.3s-0.8,1.1-1,1.8s-0.3,1.3-0.3,2c0,0.8,0.1,1.5,0.4,2.2s0.6,1.3,1.1,1.8s1,0.9,1.6,1.3
	c0.6,0.3,1.3,0.5,2,0.5c0.4,0,0.8,0,1.2-0.1s0.8-0.2,1.2-0.5s0.7-0.5,1.1-0.8c0.3-0.3,0.6-0.7,0.8-1.1l0.8,0.4
	c-0.2,0.5-0.5,0.9-0.9,1.3s-0.8,0.7-1.2,0.9s-0.9,0.4-1.4,0.6c-0.5,0.1-1,0.2-1.5,0.2c-0.9,0-1.7-0.2-2.4-0.6s-1.4-0.9-1.9-1.5
	s-0.9-1.3-1.2-2.1C87.1,117.4,87,116.6,87,115.8L87,115.8z"/>
<path class="st0" d="M110.3,121.5v0.8h-8.5v-12.8h8.4v0.8h-7.4v5h6.5v0.8h-6.5v5.3L110.3,121.5L110.3,121.5z"/>
<path class="st0" d="M114.3,122.3v-12.8h5.3c0.5,0,1,0.1,1.5,0.3s0.8,0.5,1.2,0.9c0.3,0.4,0.6,0.8,0.8,1.3s0.3,1,0.3,1.4
	c0,0.5-0.1,0.9-0.2,1.4c-0.1,0.4-0.3,0.8-0.6,1.2c-0.3,0.3-0.6,0.6-1,0.9c-0.4,0.2-0.8,0.4-1.2,0.5l3.2,5h-1.1l-3.1-4.8h-4.1v4.8h-1
	L114.3,122.3z M115.2,116.6h4.5c0.4,0,0.8-0.1,1.1-0.3s0.6-0.4,0.9-0.7c0.2-0.3,0.4-0.6,0.5-1s0.2-0.8,0.2-1.2s-0.1-0.8-0.2-1.2
	c-0.2-0.4-0.4-0.7-0.6-1c-0.3-0.3-0.6-0.5-0.9-0.7s-0.7-0.3-1.1-0.3h-4.4C115.2,110.2,115.2,116.6,115.2,116.6z"/>
<path class="st0" d="M136.2,110.4h-4.7v12h-0.9v-12h-4.7v-0.8h10.3L136.2,110.4L136.2,110.4z"/>
<path class="st0" d="M139.7,122.3v-12.8h0.9v12.8H139.7z"/>
<path class="st0" d="M145.4,122.3v-12.8h8.3v0.8h-7.4v5.1h6.3v0.8h-6.3v6.1H145.4L145.4,122.3z"/>
<path class="st0" d="M157.5,122.3v-12.8h0.9v12.8H157.5z"/>
<path class="st0" d="M171.7,121.5v0.8h-8.5v-12.8h8.4v0.8h-7.4v5h6.5v0.8h-6.5v5.3L171.7,121.5L171.7,121.5z"/>
<path class="st0" d="M175.7,122.3v-12.8h4.2c1,0,1.9,0.2,2.7,0.5s1.4,0.8,1.9,1.4s0.9,1.3,1.1,2c0.3,0.8,0.4,1.6,0.4,2.5
	c0,1-0.1,1.9-0.4,2.6c-0.3,0.8-0.7,1.5-1.2,2c-0.5,0.6-1.2,1-1.9,1.3c-0.8,0.3-1.6,0.5-2.5,0.5H175.7z M185.1,115.9
	c0-0.8-0.1-1.5-0.3-2.2s-0.6-1.3-1-1.8s-1-0.9-1.6-1.2s-1.4-0.4-2.2-0.4h-3.3v11.1h3.3c0.8,0,1.6-0.1,2.2-0.4s1.2-0.7,1.6-1.2
	s0.8-1.1,1-1.8S185.1,116.7,185.1,115.9z"/>
<path class="st0" d="M196.2,122.3v-12.8h5.3c0.5,0,1,0.1,1.5,0.3s0.8,0.5,1.2,0.9c0.3,0.4,0.6,0.8,0.8,1.3s0.3,1,0.3,1.4
	c0,0.5-0.1,1-0.3,1.5s-0.4,0.9-0.7,1.3s-0.7,0.7-1.1,0.9s-0.9,0.3-1.5,0.3h-4.5v4.8L196.2,122.3L196.2,122.3z M197.2,116.6h4.4
	c0.4,0,0.8-0.1,1.1-0.3s0.6-0.4,0.9-0.7c0.2-0.3,0.4-0.6,0.5-1s0.2-0.8,0.2-1.2s-0.1-0.8-0.2-1.2c-0.2-0.4-0.4-0.7-0.6-1
	c-0.3-0.3-0.6-0.5-0.9-0.7s-0.7-0.3-1.1-0.3h-4.3L197.2,116.6L197.2,116.6z"/>
<path class="st0" d="M208.9,122.3v-12.8h0.9v12h7.6v0.8H208.9z"/>
<path class="st0" d="M219.6,122.3l5.4-12.8h0.8l5.4,12.8h-1l-1.8-4.2h-6.1l-1.8,4.2H219.6L219.6,122.3z M225.4,110.6l-2.8,6.7h5.6
	L225.4,110.6z"/>
<path class="st0" d="M241.9,111.6c-0.8-0.9-2-1.4-3.5-1.4c-1.2,0-2.2,0.2-2.7,0.7c-0.6,0.5-0.9,1.1-0.9,1.9c0,0.4,0.1,0.8,0.2,1
	c0.1,0.3,0.4,0.5,0.7,0.7s0.7,0.3,1.2,0.5s1,0.3,1.7,0.4s1.3,0.3,1.9,0.5s1,0.4,1.4,0.7s0.7,0.6,0.9,1s0.3,0.9,0.3,1.4
	c0,0.6-0.1,1.1-0.3,1.5s-0.5,0.8-0.9,1.1s-0.9,0.5-1.4,0.6c-0.6,0.1-1.2,0.2-1.9,0.2c-2,0-3.7-0.6-5.1-1.9l0.5-0.7
	c0.5,0.6,1.2,1,2,1.3s1.7,0.5,2.6,0.5c1.1,0,2-0.2,2.6-0.6s0.9-1,0.9-1.9c0-0.4-0.1-0.8-0.2-1.1c-0.2-0.3-0.4-0.5-0.7-0.8
	s-0.8-0.4-1.3-0.6s-1.1-0.3-1.8-0.5c-0.7-0.1-1.3-0.3-1.8-0.5s-1-0.4-1.3-0.6s-0.6-0.5-0.8-0.9c-0.2-0.3-0.3-0.8-0.3-1.3
	c0-0.6,0.1-1.1,0.3-1.5s0.5-0.8,0.9-1.1s0.9-0.5,1.4-0.7c0.6-0.2,1.2-0.2,1.8-0.2c0.8,0,1.6,0.1,2.2,0.4c0.6,0.2,1.2,0.6,1.8,1.1
	L241.9,111.6L241.9,111.6z"/>
<path class="st0" d="M255.7,110.4H251v12h-0.9v-12h-4.7v-0.8h10.3L255.7,110.4L255.7,110.4z"/>
<path class="st0" d="M259.2,122.3v-12.8h0.9v12.8H259.2z"/>
<path class="st0" d="M264.1,115.8c0-0.8,0.1-1.5,0.4-2.3s0.7-1.4,1.2-2s1.1-1.1,1.9-1.5s1.6-0.6,2.6-0.6c1.1,0,2.1,0.3,2.9,0.8
	s1.4,1.2,1.8,2l-0.8,0.4c-0.2-0.4-0.5-0.8-0.8-1.1s-0.6-0.5-1-0.7s-0.7-0.3-1.1-0.4s-0.8-0.1-1.1-0.1c-0.8,0-1.5,0.2-2.2,0.5
	s-1.2,0.8-1.6,1.3s-0.8,1.1-1,1.8s-0.3,1.3-0.3,2c0,0.8,0.1,1.5,0.4,2.2s0.6,1.3,1.1,1.8s1,0.9,1.6,1.3c0.6,0.3,1.3,0.5,2,0.5
	c0.4,0,0.8,0,1.2-0.1s0.8-0.2,1.2-0.5s0.7-0.5,1.1-0.8c0.3-0.3,0.6-0.7,0.8-1.1l0.8,0.4c-0.2,0.5-0.5,0.9-0.9,1.3s-0.8,0.7-1.2,0.9
	s-0.9,0.4-1.4,0.6c-0.5,0.1-1,0.2-1.5,0.2c-0.9,0-1.7-0.2-2.4-0.6s-1.4-0.9-1.9-1.5s-0.9-1.3-1.2-2.1S264.1,116.6,264.1,115.8
	L264.1,115.8z"/>
<path class="st0" d="M292.4,111.6c-0.8-0.9-2-1.4-3.5-1.4c-1.2,0-2.2,0.2-2.7,0.7c-0.6,0.5-0.9,1.1-0.9,1.9c0,0.4,0.1,0.8,0.2,1
	c0.1,0.3,0.4,0.5,0.7,0.7s0.7,0.3,1.2,0.5s1,0.3,1.7,0.4s1.3,0.3,1.9,0.5s1,0.4,1.4,0.7s0.7,0.6,0.9,1s0.3,0.9,0.3,1.4
	c0,0.6-0.1,1.1-0.3,1.5s-0.5,0.8-0.9,1.1s-0.9,0.5-1.4,0.6c-0.6,0.1-1.2,0.2-1.9,0.2c-2,0-3.7-0.6-5.1-1.9l0.5-0.7
	c0.5,0.6,1.2,1,2,1.3s1.7,0.5,2.6,0.5c1.1,0,2-0.2,2.6-0.6s0.9-1,0.9-1.9c0-0.4-0.1-0.8-0.2-1.1c-0.2-0.3-0.4-0.5-0.7-0.8
	s-0.8-0.4-1.3-0.6s-1.1-0.3-1.8-0.5c-0.7-0.1-1.3-0.3-1.8-0.5s-1-0.4-1.3-0.6s-0.6-0.5-0.8-0.9c-0.2-0.3-0.3-0.8-0.3-1.3
	c0-0.6,0.1-1.1,0.3-1.5s0.5-0.8,0.9-1.1s0.9-0.5,1.4-0.7c0.6-0.2,1.2-0.2,1.8-0.2c0.8,0,1.6,0.1,2.2,0.4c0.6,0.2,1.2,0.6,1.8,1.1
	L292.4,111.6L292.4,111.6z"/>
<path class="st0" d="M302.5,121.5c0.9,0,1.6-0.2,2.2-0.5s1-0.8,1.4-1.3c0.3-0.5,0.6-1.1,0.7-1.8s0.2-1.3,0.2-2v-6.4h0.9v6.4
	c0,0.9-0.1,1.7-0.3,2.4c-0.2,0.8-0.5,1.5-0.9,2.1s-1,1.1-1.6,1.4c-0.7,0.3-1.5,0.5-2.5,0.5s-1.9-0.2-2.5-0.5
	c-0.7-0.4-1.2-0.9-1.6-1.5s-0.7-1.3-0.9-2.1s-0.3-1.6-0.3-2.4v-6.4h0.9v6.4c0,0.7,0.1,1.4,0.2,2.1s0.4,1.3,0.7,1.8s0.8,0.9,1.3,1.3
	C301,121.4,301.7,121.5,302.5,121.5L302.5,121.5z"/>
<path class="st0" d="M312.5,122.3v-12.8h5.3c0.5,0,1,0.1,1.5,0.3s0.8,0.5,1.2,0.9c0.3,0.4,0.6,0.8,0.8,1.3s0.3,1,0.3,1.4
	c0,0.5-0.1,0.9-0.2,1.4c-0.1,0.4-0.3,0.8-0.6,1.2c-0.3,0.3-0.6,0.6-1,0.9c-0.4,0.2-0.8,0.4-1.2,0.5l3.2,5h-1.1l-3.1-4.8h-4.1v4.8h-1
	L312.5,122.3z M313.4,116.6h4.5c0.4,0,0.8-0.1,1.1-0.3s0.6-0.4,0.9-0.7c0.2-0.3,0.4-0.6,0.5-1s0.2-0.8,0.2-1.2s-0.1-0.8-0.2-1.2
	s-0.4-0.7-0.6-1s-0.6-0.5-0.9-0.7s-0.7-0.3-1.1-0.3h-4.4C313.4,110.2,313.4,116.6,313.4,116.6z"/>
<path class="st0" d="M335.2,120.3c-1.2,1.4-2.7,2.1-4.3,2.1c-0.9,0-1.7-0.2-2.4-0.6s-1.4-0.9-1.9-1.5s-0.9-1.3-1.2-2.1
	s-0.5-1.6-0.5-2.4s0.1-1.6,0.4-2.4s0.7-1.5,1.2-2.1s1.1-1.1,1.9-1.4s1.5-0.5,2.3-0.5c0.6,0,1.2,0.1,1.7,0.2s1,0.3,1.4,0.6
	c0.4,0.2,0.7,0.5,1,0.9c0.3,0.3,0.5,0.7,0.7,1.1l-0.7,0.5c-0.4-0.8-1-1.4-1.7-1.8s-1.5-0.6-2.4-0.6c-0.8,0-1.4,0.2-2,0.5
	s-1.1,0.8-1.6,1.3c-0.4,0.5-0.8,1.1-1,1.8s-0.3,1.4-0.3,2.1c0,0.8,0.1,1.5,0.4,2.2s0.6,1.3,1.1,1.8s1,0.9,1.6,1.2s1.3,0.5,2,0.5
	c0.8,0,1.5-0.2,2.2-0.5c0.7-0.4,1.4-0.9,2-1.7V117h-2.9v-0.7h3.7v6.2h-0.8L335.2,120.3L335.2,120.3z"/>
<path class="st0" d="M348.7,121.5v0.8h-8.5v-12.8h8.4v0.8h-7.4v5h6.5v0.8h-6.5v5.3L348.7,121.5L348.7,121.5z"/>
<path class="st0" d="M357.6,122.4c-0.9,0-1.7-0.2-2.4-0.6s-1.4-0.9-1.9-1.5s-0.9-1.3-1.2-2.1s-0.4-1.6-0.4-2.4
	c0-0.9,0.2-1.7,0.5-2.4c0.3-0.8,0.7-1.5,1.3-2.1c0.5-0.6,1.2-1.1,1.9-1.4c0.7-0.4,1.5-0.5,2.4-0.5s1.7,0.2,2.4,0.6s1.4,0.9,1.9,1.5
	s0.9,1.3,1.2,2.1s0.4,1.6,0.4,2.3c0,0.9-0.2,1.7-0.5,2.5s-0.7,1.5-1.3,2.1c-0.5,0.6-1.2,1.1-1.9,1.4S358.5,122.4,357.6,122.4z
	 M352.6,115.9c0,0.7,0.1,1.4,0.4,2.1c0.2,0.7,0.6,1.3,1,1.8s1,0.9,1.6,1.3c0.6,0.3,1.3,0.5,2,0.5c0.8,0,1.5-0.2,2.1-0.5
	s1.1-0.8,1.6-1.3c0.4-0.5,0.8-1.1,1-1.8s0.4-1.4,0.4-2.1s-0.1-1.4-0.4-2.1s-0.6-1.3-1.1-1.8s-1-0.9-1.6-1.3c-0.6-0.3-1.3-0.5-2-0.5
	c-0.8,0-1.5,0.2-2.1,0.5s-1.2,0.8-1.6,1.3s-0.8,1.1-1,1.8S352.6,115.2,352.6,115.9z"/>
<path class="st0" d="M368.5,111.3v11.1h-0.9v-12.8h0.7l9,11.2v-11.2h0.9v12.8h-0.8L368.5,111.3L368.5,111.3z"/>
</svg>
