<?xml version="1.0" encoding="utf-8"?>
<!-- Generator: Adobe Illustrator 25.2.1, SVG Export Plug-In . SVG Version: 6.00 Build 0)  -->
<svg version="1.1" id="Layer_1" xmlns="http://www.w3.org/2000/svg" xmlns:xlink="http://www.w3.org/1999/xlink" x="0px" y="0px"
	 viewBox="0 0 108.1 84.1" style="enable-background:new 0 0 108.1 84.1;" xml:space="preserve">
<style type="text/css">
	.st0{fill:none;stroke:#D44C56;stroke-linecap:round;stroke-linejoin:round;stroke-miterlimit:10;}
	.st1{opacity:0.3;fill:#D44C56;enable-background:new    ;}
	.st2{opacity:0.3;fill:#D44C56;stroke:#D44C56;stroke-miterlimit:10;enable-background:new    ;}
	.st3{fill:none;stroke:#FF4F4F;stroke-linecap:round;stroke-linejoin:round;stroke-miterlimit:10;}
</style>
<g id="marketing-icon" transform="translate(0.5 0.5)">
	<path id="Path_94" class="st0" d="M93,29.3v27.9c0,5.1-4.1,9.2-9.2,9.2H25.9c-5.1,0-9.2-4.1-9.2-9.2V11.9"/>
	<line id="Line_16" class="st0" x1="93" y1="11.9" x2="93" y2="21"/>
	<path id="Path_95" class="st1" d="M95.5,3.5H65c0-0.8-1.2-3.1-2.6-3.1H47c-1.4,0-2.6,2.3-2.6,3.1H13.8c-1.9,0-3.8,0.8-3.8,2.7v1
		c0,1.9,1.8,4.1,3.8,4.1h81.7c1.9,0,2.9-2.2,2.9-4.1v-1C98.4,4.2,97.4,3.5,95.5,3.5z M60.8,6.5h-12c-0.8,0.1-1.6-0.5-1.8-1.3
		c-0.1-0.8,0.5-1.6,1.3-1.8c0.1,0,0.3,0,0.4,0h12c0.8-0.1,1.6,0.5,1.8,1.3c0.1,0.8-0.5,1.6-1.3,1.8C61.1,6.6,60.9,6.6,60.8,6.5
		L60.8,6.5z"/>
	<path id="Path_96" class="st0" d="M95.5,3.1H64.9c0-0.8-1.2-3.1-2.6-3.1H47c-1.4,0-2.6,2.3-2.6,3.1H13.8c-1.7-0.1-3.2,1.2-3.4,2.9
		c0,0.1,0,0.2,0,0.3v1c0,1.9,1.4,4.3,3.4,4.3h81.7c1.9,0,3.3-2.3,3.3-4.3v-1c0.1-1.7-1.2-3.1-2.9-3.2C95.7,3.1,95.6,3.1,95.5,3.1z"
		/>
	<path id="Path_97" class="st0" d="M61,6.5H48.6c-0.9,0-1.6-0.7-1.6-1.6V4.5c0-0.9,0.7-1.6,1.6-1.6H61c0.9,0,1.6,0.7,1.6,1.6v0.4
		C62.5,5.8,61.8,6.5,61,6.5z"/>
	<g id="Group_109" transform="translate(0 21.07)">
		<line id="Line_17" class="st0" x1="4" y1="0" x2="4" y2="8.1"/>
		<line id="Line_18" class="st0" x1="0" y1="4" x2="8.1" y2="4"/>
	</g>
	<g id="Group_110" transform="translate(30.517 32.11)">
		<line id="Line_19" class="st0" x1="2.4" y1="0" x2="2.4" y2="4.8"/>
		<line id="Line_20" class="st0" x1="0" y1="2.4" x2="4.8" y2="2.4"/>
	</g>
	<g id="Group_111" transform="translate(72.883 22.686)">
		<line id="Line_21" class="st0" x1="2.4" y1="0" x2="2.4" y2="4.8"/>
		<line id="Line_22" class="st0" x1="4.8" y1="2.4" x2="0" y2="2.4"/>
	</g>
	<g id="Group_112" transform="translate(99.001 38.119)">
		<line id="Line_23" class="st0" x1="4" y1="0" x2="4" y2="8.1"/>
		<line id="Line_24" class="st0" x1="8.1" y1="4" x2="0" y2="4"/>
	</g>
	<line id="Line_25" class="st0" x1="54.9" y1="66.3" x2="54.8" y2="77.4"/>
	<ellipse id="Ellipse_29" class="st0" cx="54.8" cy="80.3" rx="2.9" ry="2.9"/>
	<g id="Group_117" transform="translate(26.714 20.467)">
		<path id="Path_98" class="st0" d="M67,4.7"/>
		<line id="Line_26" class="st0" x1="46.3" y1="23.7" x2="63.9" y2="7.5"/>
		<line id="Line_27" class="st0" x1="31.5" y1="14" x2="40.2" y2="23.4"/>
		<line id="Line_28" class="st0" x1="7.7" y1="29.8" x2="25.5" y2="13.5"/>
		<g id="Group_113" transform="translate(62.341)">
			<ellipse id="Ellipse_30" class="st2" cx="4.7" cy="4.7" rx="4.2" ry="4.2"/>
			<ellipse id="Ellipse_31" class="st0" cx="4.7" cy="4.7" rx="4.2" ry="4.2"/>
		</g>
		<g id="Group_114" transform="translate(38.438 21.784)">
			<ellipse id="Ellipse_32" class="st2" cx="4.7" cy="4.7" rx="4.2" ry="4.2"/>
			<ellipse id="Ellipse_33" class="st0" cx="4.7" cy="4.7" rx="4.2" ry="4.2"/>
		</g>
		<g id="Group_115" transform="translate(24.054 6.208)">
			<ellipse id="Ellipse_34" class="st2" cx="4.7" cy="4.7" rx="4.2" ry="4.2"/>
			<ellipse id="Ellipse_35" class="st0" cx="4.7" cy="4.7" rx="4.2" ry="4.2"/>
		</g>
		<g id="Group_116" transform="translate(0 28.03)">
			<ellipse id="Ellipse_36" class="st2" cx="4.7" cy="4.7" rx="4.2" ry="4.2"/>
			<ellipse id="Ellipse_37" class="st0" cx="4.7" cy="4.7" rx="4.2" ry="4.2"/>
		</g>
	</g>
	<path id="Path_99" class="st3" d="M90.6,22"/>
	<rect id="Rectangle_1509" x="16.7" y="11.3" class="st1" width="76.3" height="5.1"/>
</g>
</svg>
