<?xml version="1.0" encoding="utf-8"?>
<!-- Generator: Adobe Illustrator 24.1.2, SVG Export Plug-In . SVG Version: 6.00 Build 0)  -->
<svg version="1.1" id="Layer_1" xmlns:lucid="lucid"
	 xmlns="http://www.w3.org/2000/svg" xmlns:xlink="http://www.w3.org/1999/xlink" x="0px" y="0px" viewBox="0 0 1022 1021"
	 style="enable-background:new 0 0 1022 1021;" xml:space="preserve">
<style type="text/css">
	.st0{fill:none;stroke:#EF8D22;stroke-width:2;}
	.st1{fill:#FFFFFF;}
	.st2{fill:#EF8D22;}
	.st3{fill:#EF8D22;stroke:#EF8D22;stroke-width:2;}
</style>
<g transform="translate(-119 -139)" lucid:page-tab-id="YGcM5DNywbTK">
	<g>
		<path class="st0" d="M480,300h160v80H480V300z"/>
		<g transform="matrix(1,0,0,1,485,305) translate(45.400000000000006 41.715)">
			<g id="b">
				<g transform="matrix(0.017777777777777778,0,0,0.017777777777777778,0,0)">
					<path id="D" class="st1" d="M542.9,345.6c0.1,0.3,0.1,0.8,0,1.1h-6.7v-12.8c0.4-0.1,0.9-0.1,1.2,0v11.7H542.9"/>
				</g>
				<g transform="matrix(0.017777777777777778,0,0,0.017777777777777778,8.835555555555555,0)">
					<path id="E" class="st1" d="M545.5,342.2c0,2.1,0.8,3.7,2.8,3.7c2,0,2.8-1.6,2.8-3.7c0-2.1-0.8-3.7-2.8-3.7
						C546.3,338.5,545.5,340.1,545.5,342.2z M552.4,342.2c0,2.8-1.3,4.7-4.1,4.7c-2.8,0-4.1-1.9-4.1-4.7c0-2.8,1.3-4.7,4.1-4.7
						C551.1,337.4,552.4,339.4,552.4,342.2"/>
				</g>
				<g transform="matrix(0.017777777777777778,0,0,0.017777777777777778,19.04,0)">
					<path id="F" class="st1" d="M555.8,344.8c0,0.8,0.7,0.9,1.5,0.9c1.6,0.1,3.8-0.1,4.5,0.7c0.7,0.7,0.9,2,0.3,2.9
						c-0.8,1.2-2.4,1.8-4.4,1.8c-2,0-3.6-0.4-3.6-2.4c0-1,0.7-1.9,1.4-2.2c-0.4-0.3-0.8-0.7-0.8-1.4c0-1,0.6-1.5,1.2-2
						c-0.8-0.5-1.4-1.4-1.4-2.6c0.1-2.1,1.4-3.1,3.5-3.2c1,0,1.7,0.3,2.3,0.7c0.6-0.3,1.5-0.4,2.3-0.5c0.1,0.3,0.1,0.9,0,1.2H561
						c0.3,0.5,0.5,1,0.5,1.8c0,2.5-2.3,3.6-4.8,3C556.2,343.9,555.8,344.2,555.8,344.8z M557.8,350.1c1.8,0,3.4-0.6,3.5-1.9
						c0.1-1.7-2.5-1.2-4.2-1.3c-1.1-0.1-1.9,0.7-1.8,1.8C555.3,349.9,556.6,350.1,557.8,350.1z M558.1,338.4c-1.4,0-2.2,0.9-2.2,2.2
						c0,1.3,0.8,2.2,2.2,2.2s2.3-0.9,2.3-2.2C560.3,339.3,559.5,338.4,558.1,338.4"/>
				</g>
			</g>
		</g>
		<g transform="matrix(1,0,0,1,485,305) translate(78.41333333333333 41.715)">
			<g id="c">
				<g transform="matrix(0.017777777777777778,0,0,0.017777777777777778,0,0)">
					<path id="G" class="st1" d="M570.4,346.7c-0.4,0.1-0.9,0.1-1.2,0v-12.8c0.4-0.1,0.9-0.1,1.2,0V346.7"/>
				</g>
				<g transform="matrix(0.017777777777777778,0,0,0.017777777777777778,4.817777777777778,0)">
					<path id="H" class="st1" d="M575,346.7c-0.4,0.1-0.8,0.1-1.2,0v-9.1c0.3-0.1,0.7-0.1,1.1,0c0.1,0.4,0.1,1.2,0.1,1.6
						c0.6-1,1.5-1.8,3.1-1.8c2.2,0,3,1.4,3,3.6v5.7c-0.4,0.1-0.8,0.1-1.2,0v-5.4c0-1.7-0.4-2.8-1.9-2.8c-2.1,0-3,1.6-3,3.7V346.7"/>
				</g>
			</g>
		</g>
	</g>
	<g>
		<path class="st0" d="M720,300h160v80H720V300z"/>
		<g transform="matrix(1,0,0,1,725,305) translate(38.848888888888894 41.715)">
			<g id="d">
				<g transform="matrix(0.017777777777777778,0,0,0.017777777777777778,0,0)">
					<path id="I" class="st1" d="M777.6,343.1c0.1,3.8-4.4,4.5-7.7,3.4c0.1-0.4,0.2-0.8,0.3-1.1c0.8,0.3,1.7,0.5,2.8,0.5
						c2.2,0,3.9-1.3,3.1-3.5c-0.9-2.6-5.9-1.5-5.9-5.3c0-3.1,3.7-3.8,6.7-2.8c-0.1,0.4-0.1,0.7-0.2,1.1c-0.6-0.2-1.6-0.4-2.4-0.4
						c-1.7,0-2.8,0.7-2.8,2.1c0,2.1,2.5,2.2,4,3C776.6,340.6,777.5,341.3,777.6,343.1"/>
				</g>
				<g transform="matrix(0.017777777777777778,0,0,0.017777777777777778,9.617777777777778,0)">
					<path id="J" class="st1" d="M781.8,346.7c-0.4,0.1-0.8,0.1-1.2,0v-8.1h-1.1c-0.1-0.3-0.1-0.7,0-1h2.3V346.7z M781.5,335.4
						c-0.4,0.1-1,0-1.5,0c0-0.5-0.1-1,0-1.5c0.5,0,1-0.1,1.5,0C781.5,334.4,781.5,335,781.5,335.4"/>
				</g>
				<g transform="matrix(0.017777777777777778,0,0,0.017777777777777778,14.471111111111112,0)">
					<path id="F_1_" class="st1" d="M785.7,344.8c0,0.8,0.7,0.9,1.5,0.9c1.6,0.1,3.8-0.1,4.5,0.7c0.7,0.7,0.9,2,0.3,2.9
						c-0.8,1.2-2.4,1.8-4.4,1.8c-2,0-3.6-0.4-3.6-2.4c0-1,0.7-1.9,1.4-2.2c-0.4-0.3-0.8-0.7-0.8-1.4c0-1,0.6-1.5,1.2-2
						c-0.8-0.5-1.4-1.4-1.4-2.6c0.1-2.1,1.4-3.1,3.5-3.2c1,0,1.7,0.3,2.3,0.7c0.6-0.3,1.5-0.4,2.3-0.5c0.1,0.3,0.1,0.9,0,1.2h-1.7
						c0.3,0.5,0.5,1,0.5,1.8c0,2.5-2.3,3.6-4.8,3C786.1,343.9,785.7,344.2,785.7,344.8z M787.7,350.1c1.8,0,3.4-0.6,3.5-1.9
						c0.1-1.7-2.5-1.2-4.2-1.3c-1.1-0.1-1.9,0.7-1.8,1.8C785.2,349.9,786.4,350.1,787.7,350.1z M788,338.4c-1.4,0-2.2,0.9-2.2,2.2
						c0,1.3,0.8,2.2,2.2,2.2s2.3-0.9,2.3-2.2C790.2,339.3,789.4,338.4,788,338.4"/>
				</g>
				<g transform="matrix(0.017777777777777778,0,0,0.017777777777777778,24,0)">
					<path id="H_1_" class="st1" d="M795.6,346.7c-0.4,0.1-0.8,0.1-1.2,0v-9.1c0.3-0.1,0.7-0.1,1.1,0c0.1,0.4,0.1,1.2,0.1,1.6
						c0.6-1,1.5-1.8,3.1-1.8c2.2,0,3,1.4,3,3.6v5.7c-0.4,0.1-0.8,0.1-1.2,0v-5.4c0-1.7-0.4-2.8-1.9-2.8c-2.1,0-3,1.6-3,3.7V346.7"/>
				</g>
			</g>
		</g>
		<g transform="matrix(1,0,0,1,725,305) translate(77.46222222222222 41.715)">
			<g id="e">
				<g transform="matrix(0.017777777777777778,0,0,0.017777777777777778,0,0)">
					<path id="K" class="st1" d="M813.5,346.9c-3.2,0-4.3-1.9-4.4-5.1v-7.9c0.4-0.1,0.9-0.1,1.2,0v7.7c0,2.5,0.7,4.2,3.1,4.1
						c2.4-0.1,3.1-1.4,3.1-4.1v-7.7c0.4-0.1,0.9-0.1,1.2,0v7.9C817.8,345.1,816.6,346.9,813.5,346.9"/>
				</g>
				<g transform="matrix(0.017777777777777778,0,0,0.017777777777777778,12.017777777777777,0)">
					<path id="L" class="st1" d="M822.2,350.9c-0.4,0.1-0.8,0.1-1.2,0v-13.3c0.3-0.1,0.7-0.1,1.1,0l0.1,1.2c0.6-0.8,1.5-1.5,2.9-1.5
						c2.6,0.1,3.8,1.7,3.8,4.5c0,3.2-1.6,5-4.8,5c-0.6,0-1.4-0.1-1.8-0.3V350.9z M825,338.5c-1.8,0-2.8,1.1-2.8,3v4.1
						c0.6,0.2,1.1,0.3,2,0.3c2.3-0.1,3.4-1.5,3.4-3.9C827.6,339.9,827,338.5,825,338.5"/>
				</g>
			</g>
		</g>
	</g>
	<g>
		<path class="st0" d="M260,300h160v80H260V300z"/>
		<g transform="matrix(1,0,0,1,265,305) translate(7.480000000000004 41.715)">
			<g id="f">
				<g transform="matrix(0.017777777777777778,0,0,0.017777777777777778,0,0)">
					<path id="M" class="st1" d="M280.5,346.7c-0.4,0.1-0.9,0.1-1.2,0v-12.8c3.5-0.5,7.3,0,7.2,3.7c-0.1,2.1-1.5,3-3,3.7l4.1,5.5
						c-0.4,0.1-1,0.1-1.4,0l-4.5-5.9v-0.1c1.7-0.5,3.4-1.1,3.5-3.2c0.1-2.4-2.2-3.1-4.6-2.7V346.7"/>
				</g>
				<g transform="matrix(0.017777777777777778,0,0,0.017777777777777778,10.435555555555556,0)">
					<path id="N" class="st1" d="M293,337.4c2.7,0,3.9,2,3.7,4.9h-6.5c0,2.4,1,3.5,3.3,3.5c0.9,0,1.7-0.2,2.4-0.4
						c0.1,0.2,0.2,0.7,0.2,1c-0.7,0.3-1.7,0.5-2.7,0.5c-3,0-4.5-1.7-4.5-4.7C289,339.4,290.2,337.4,293,337.4z M295.6,341.4
						c-0.1-1.7-0.8-2.9-2.5-2.9c-1.8,0-2.6,1.2-2.8,2.9H295.6"/>
				</g>
				<g transform="matrix(0.017777777777777778,0,0,0.017777777777777778,20.266666666666666,0)">
					<path id="O" class="st1" d="M304.8,344.1c0,2.8-3.6,3.3-6.1,2.4c0.1-0.4,0.2-0.7,0.3-1.1c1.7,0.9,5.6,0.3,4.3-2
						c-0.9-1.7-4.3-0.8-4.4-3.6c-0.1-2.5,3.4-2.9,5.6-2c-0.1,0.3-0.1,0.7-0.2,1c-1.4-0.6-4.9-0.7-4,1.6c0.7,1,2.6,1,3.6,1.8
						C304.4,342.6,304.8,343.2,304.8,344.1"/>
				</g>
				<g transform="matrix(0.017777777777777778,0,0,0.017777777777777778,28.30222222222222,0)">
					<path id="N_1_" class="st1" d="M310.9,337.4c2.7,0,3.9,2,3.7,4.9h-6.5c0,2.4,1,3.5,3.3,3.5c0.9,0,1.7-0.2,2.4-0.4
						c0.1,0.2,0.2,0.7,0.2,1c-0.7,0.3-1.7,0.5-2.7,0.5c-3,0-4.5-1.7-4.5-4.7C306.8,339.4,308.1,337.4,310.9,337.4z M313.4,341.4
						c-0.1-1.7-0.8-2.9-2.5-2.9c-1.8,0-2.6,1.2-2.8,2.9H313.4"/>
				</g>
				<g transform="matrix(0.017777777777777778,0,0,0.017777777777777778,38.13333333333333,0)">
					<path id="P" class="st1" d="M321.4,346.7c-1.8,0.5-3.8,0-3.8-2.1v-6H316c-0.1-0.3-0.1-0.7,0-1h1.5v-1.7l1.1-1.1h0.1v2.8h2.5
						c0.1,0.3,0.1,0.7,0,1h-2.5v5.9c-0.2,1.4,1.3,1.5,2.4,1.2C321.3,346,321.3,346.4,321.4,346.7"/>
				</g>
			</g>
		</g>
		<g transform="matrix(1,0,0,1,265,305) translate(56.08444444444444 41.715)">
			<g id="g">
				<g transform="matrix(0.017777777777777778,0,0,0.017777777777777778,0,0)">
					<path id="Q" class="st1" d="M333.9,337.6c0-2.6-2.3-3-4.8-2.7v5.6C331.8,340.9,333.9,340.3,333.9,337.6z M329.1,346.7
						c-0.4,0.1-0.9,0.1-1.2,0v-12.8c0.8-0.1,1.8-0.2,2.7-0.2c2.8,0,4.6,1.1,4.7,3.9c0,3.4-2.6,4.5-6.1,4.1V346.7"/>
				</g>
				<g transform="matrix(0.017777777777777778,0,0,0.017777777777777778,9.848888888888888,0)">
					<path id="R" class="st1" d="M338.1,344.1c0,2.1,2.7,1.9,4.4,1.6v-3.4C340.6,342,338.1,342.1,338.1,344.1z M336.9,344.1
						c0-2.7,2.8-3.3,5.6-2.9c0.1-1.8-0.5-2.8-2.2-2.8c-0.9,0-1.7,0.1-2.3,0.3c-0.1-0.2-0.2-0.7-0.2-1c0.6-0.2,1.7-0.3,2.5-0.3
						c2.3,0,3.4,0.9,3.4,3.1v6c-0.8,0.2-2.2,0.4-3.2,0.4C338.4,346.9,336.9,346.2,336.9,344.1"/>
				</g>
				<g transform="matrix(0.017777777777777778,0,0,0.017777777777777778,18.968888888888888,0)">
					<path id="O_1_" class="st1" d="M352.1,344.1c0,2.8-3.6,3.3-6.1,2.4c0.1-0.4,0.2-0.7,0.3-1.1c1.7,0.9,5.6,0.3,4.3-2
						c-0.9-1.7-4.3-0.8-4.4-3.6c-0.1-2.5,3.4-2.9,5.6-2c-0.1,0.3-0.1,0.7-0.2,1c-1.4-0.6-4.9-0.7-4,1.6c0.7,1,2.6,1,3.6,1.8
						C351.7,342.6,352.1,343.2,352.1,344.1"/>
				</g>
				<g transform="matrix(0.017777777777777778,0,0,0.017777777777777778,27.004444444444445,0)">
					<path id="O_2_" class="st1" d="M360.1,344.1c0,2.8-3.6,3.3-6.1,2.4c0.1-0.4,0.2-0.7,0.3-1.1c1.7,0.9,5.6,0.3,4.3-2
						c-0.9-1.7-4.3-0.8-4.4-3.6c-0.1-2.5,3.4-2.9,5.6-2c-0.1,0.3-0.1,0.7-0.2,1c-1.4-0.6-4.9-0.7-4,1.6c0.7,1,2.6,1,3.6,1.8
						C359.7,342.6,360.1,343.2,360.1,344.1"/>
				</g>
				<g transform="matrix(0.017777777777777778,0,0,0.017777777777777778,35.04,0)">
					<path id="S" class="st1" d="M361.7,337.6c0.4-0.1,0.9-0.1,1.3,0l2,7.7l2.2-7.7c0.4,0,0.9-0.1,1.3,0l2.2,7.6l2-7.6
						c0.3-0.1,0.8-0.1,1.2,0l-2.6,9.1c-0.4,0.1-0.9,0.1-1.2,0l-2.2-7.5l-2.3,7.5c-0.4,0.1-0.9,0.1-1.2,0"/>
				</g>
				<g transform="matrix(0.017777777777777778,0,0,0.017777777777777778,48.40888888888889,0)">
					<path id="E_1_" class="st1" d="M376.8,342.2c0,2.1,0.8,3.7,2.8,3.7s2.8-1.6,2.8-3.7c0-2.1-0.8-3.7-2.8-3.7
						S376.8,340.1,376.8,342.2z M383.6,342.2c0,2.8-1.3,4.7-4.1,4.7s-4.1-1.9-4.1-4.7c0-2.8,1.3-4.7,4.1-4.7
						S383.6,339.4,383.6,342.2"/>
				</g>
				<g transform="matrix(0.017777777777777778,0,0,0.017777777777777778,58.61333333333333,0)">
					<path id="T" class="st1" d="M387.4,346.7c-0.4,0.1-0.8,0.1-1.2,0v-9.1c0.3-0.1,0.7-0.1,1.1,0c0.1,0.4,0.1,1.1,0.1,1.5
						c0.5-1,1.5-1.7,3.1-1.5c0.1,0.4,0.1,0.7,0,1.1c-2.1-0.1-3.1,1-3.1,3.3V346.7"/>
				</g>
				<g transform="matrix(0.017777777777777778,0,0,0.017777777777777778,64.83555555555556,0)">
					<path id="U" class="st1" d="M396.5,337.4c0.7,0,1.6,0.1,2.1,0.3v-4.1c0.4-0.1,0.8-0.1,1.2,0v12.9c-0.8,0.2-2,0.4-3.1,0.4
						c-3,0-4.7-1.5-4.7-4.6C392,339.4,393.5,337.5,396.5,337.4z M396.6,345.9c0.7,0,1.5-0.1,2-0.2v-6.8c-0.5-0.2-1.3-0.4-2-0.4
						c-2.3,0.1-3.3,1.5-3.3,3.9C393.2,344.7,394.4,345.8,396.6,345.9"/>
				</g>
			</g>
		</g>
	</g>
	<g>
		<path class="st0" d="M595.7,440h160v80h-160V440z"/>
		<g transform="matrix(1,0,0,1,600.6570247933884,445) translate(45.78222222222223 41.715)">
			<g id="h">
				<g transform="matrix(0.017777777777777778,0,0,0.017777777777777778,0,0)">
					<path id="V" class="st1" d="M654.5,486.7c-0.4,0.1-0.9,0.1-1.2,0v-12.8c0.4-0.1,0.9-0.1,1.2,0v5.4h6.3v-5.4
						c0.4-0.1,0.9-0.1,1.2,0v12.8c-0.4,0.1-0.9,0.1-1.2,0v-6.2h-6.3V486.7"/>
				</g>
				<g transform="matrix(0.017777777777777778,0,0,0.017777777777777778,12.337777777777777,0)">
					<path id="E_2_" class="st1" d="M666.1,482.2c0,2.1,0.8,3.7,2.8,3.7s2.8-1.6,2.8-3.7c0-2.1-0.8-3.7-2.8-3.7
						S666.1,480.1,666.1,482.2z M672.9,482.2c0,2.8-1.3,4.7-4.1,4.7s-4.1-1.9-4.1-4.7c0-2.8,1.3-4.7,4.1-4.7
						S672.9,479.4,672.9,482.2"/>
				</g>
				<g transform="matrix(0.017777777777777778,0,0,0.017777777777777778,22.54222222222222,0)">
					<path id="W" class="st1" d="M676.7,486.7c-0.4,0.1-0.8,0.1-1.2,0v-9.1c0.3-0.1,0.7-0.1,1.1,0c0.1,0.4,0.1,1.1,0.1,1.6
						c0.5-1,1.3-1.8,2.8-1.8c1.4,0,2,0.7,2.3,1.7c0.6-0.8,1.3-1.7,2.7-1.7c2.2,0,3,1.3,3,3.5v5.8c-0.4,0.1-0.8,0.1-1.2,0v-5.4
						c0-1.7-0.4-2.8-1.9-2.8c-1.6,0-2.3,1.3-2.3,2.9v5.3c-0.4,0.1-0.8,0.1-1.2,0v-5.6c0-1.5-0.4-2.7-1.7-2.7
						C676,478.4,676.8,483.3,676.7,486.7"/>
				</g>
				<g transform="matrix(0.017777777777777778,0,0,0.017777777777777778,37.404444444444444,0)">
					<path id="N_2_" class="st1" d="M694,477.4c2.7,0,3.9,2,3.7,4.9h-6.5c0,2.4,1,3.5,3.3,3.5c0.9,0,1.7-0.2,2.4-0.4
						c0.1,0.2,0.2,0.7,0.2,1c-0.7,0.3-1.7,0.5-2.7,0.5c-3,0-4.5-1.7-4.5-4.7C689.9,479.4,691.1,477.4,694,477.4z M696.5,481.4
						c-0.1-1.7-0.8-2.9-2.5-2.9c-1.8,0-2.6,1.2-2.8,2.9H696.5"/>
				</g>
			</g>
		</g>
	</g>
	<g>
		<path class="st0" d="M595.7,579.5h160v80h-160V579.5z"/>
		<g transform="matrix(1,0,0,1,600.6570247933885,584.5) translate(53.22222222222223 41.715)">
			<g id="i">
				<g transform="matrix(0.017777777777777778,0,0,0.017777777777777778,0,0)">
					<path id="X" class="st1" d="M665,625.3c1,0,2-0.2,2.7-0.6c0.2,0.3,0.3,0.6,0.4,1c-0.8,0.4-2,0.7-3.2,0.6
						c-3.9-0.1-5.8-2.5-5.8-6.5c-0.1-4.7,2.8-7.4,7.7-6.6c0.5,0.1,0.9,0.2,1.1,0.3c-0.1,0.5-0.1,0.6-0.3,1c-0.8-0.3-1.6-0.4-2.6-0.4
						c-3.2,0.1-4.5,2.4-4.5,5.7C660.3,623.2,661.8,625.2,665,625.3"/>
				</g>
				<g transform="matrix(0.017777777777777778,0,0,0.017777777777777778,10.986666666666666,0)">
					<path id="R_1_" class="st1" d="M671,623.6c0,2.1,2.7,1.9,4.4,1.6v-3.4C673.5,621.5,671,621.6,671,623.6z M669.8,623.6
						c0-2.7,2.8-3.3,5.6-2.9c0.1-1.8-0.5-2.8-2.2-2.8c-0.9,0-1.7,0.1-2.3,0.3c-0.1-0.2-0.2-0.7-0.2-1c0.6-0.2,1.7-0.3,2.5-0.3
						c2.3,0,3.4,0.9,3.4,3.1v6c-0.8,0.2-2.2,0.4-3.2,0.4C671.3,626.4,669.8,625.7,669.8,623.6"/>
				</g>
				<g transform="matrix(0.017777777777777778,0,0,0.017777777777777778,20.106666666666666,0)">
					<path id="T_1_" class="st1" d="M680.7,626.2c-0.4,0.1-0.8,0.1-1.2,0v-9.1c0.3-0.1,0.7-0.1,1.1,0c0.1,0.4,0.1,1.1,0.1,1.5
						c0.5-1,1.5-1.7,3.1-1.5c0.1,0.4,0.1,0.7,0,1.1c-2.1-0.1-3.1,1-3.1,3.3V626.2"/>
				</g>
				<g transform="matrix(0.017777777777777778,0,0,0.017777777777777778,26.32888888888889,0)">
					<path id="P_1_" class="st1" d="M690,626.2c-1.8,0.5-3.8,0-3.8-2.1v-6h-1.5c-0.1-0.3-0.1-0.7,0-1h1.5v-1.7l1.1-1.1h0.1v2.8h2.5
						c0.1,0.3,0.1,0.7,0,1h-2.5v5.9c-0.2,1.4,1.3,1.5,2.4,1.2C689.9,625.5,689.9,625.9,690,626.2"/>
				</g>
			</g>
		</g>
	</g>
	<path class="st0" d="M675.7,661.5v18"/>
	<path class="st2" d="M676.7,661.5h-2v-1h2V661.5z"/>
	<path class="st3" d="M675.7,694.8l-4.6-14.3h9.3L675.7,694.8z"/>
	<g>
		<path class="st0" d="M595.7,699h160v80h-160V699z"/>
		<g transform="matrix(1,0,0,1,600.6570247933885,704) translate(7.035555555555561 42.0275)">
			<g id="k">
				<g transform="matrix(0.017777777777777778,0,0,0.017777777777777778,0,0)">
					<path id="Y" class="st1" d="M622.4,739.6c0,3.8-1.5,6.6-5.3,6.6s-5.3-2.8-5.3-6.6c0-3.8,1.5-6.6,5.3-6.6
						S622.4,735.8,622.4,739.6z M613.1,739.6c0,3.1,1,5.5,4,5.5c3,0,4-2.4,4-5.5s-1-5.5-4-5.5C614.1,734.2,613.1,736.6,613.1,739.6"
						/>
				</g>
				<g transform="matrix(0.017777777777777778,0,0,0.017777777777777778,12.835555555555555,0)">
					<path id="T_2_" class="st1" d="M626.3,746c-0.4,0.1-0.8,0.1-1.2,0V737c0.3-0.1,0.7-0.1,1.1,0c0.1,0.4,0.1,1.1,0.1,1.5
						c0.5-1,1.5-1.7,3.1-1.5c0.1,0.4,0.1,0.7,0,1.1c-2.1-0.1-3.1,1-3.1,3.3V746"/>
				</g>
				<g transform="matrix(0.017777777777777778,0,0,0.017777777777777778,19.057777777777776,0)">
					<path id="U_1_" class="st1" d="M635.3,736.7c0.7,0,1.6,0.1,2.1,0.3V733c0.4-0.1,0.8-0.1,1.2,0v12.9c-0.8,0.2-2,0.4-3.1,0.4
						c-3,0-4.7-1.5-4.7-4.6C630.9,738.7,632.4,736.9,635.3,736.7z M635.5,745.2c0.7,0,1.5-0.1,2-0.2v-6.8c-0.5-0.2-1.3-0.4-2-0.4
						c-2.3,0.1-3.3,1.5-3.3,3.9C632,744,633.2,745.2,635.5,745.2"/>
				</g>
				<g transform="matrix(0.017777777777777778,0,0,0.017777777777777778,29.45777777777778,0)">
					<path id="N_3_" class="st1" d="M645.3,736.7c2.7,0,3.9,2,3.7,4.9h-6.5c0,2.4,1,3.5,3.3,3.5c0.9,0,1.7-0.2,2.4-0.4
						c0.1,0.2,0.2,0.7,0.2,1c-0.7,0.3-1.7,0.5-2.7,0.5c-3,0-4.5-1.7-4.5-4.7C641.2,738.7,642.4,736.7,645.3,736.7z M647.8,740.7
						c-0.1-1.7-0.8-2.9-2.5-2.9c-1.8,0-2.6,1.2-2.8,2.9H647.8"/>
				</g>
				<g transform="matrix(0.017777777777777778,0,0,0.017777777777777778,39.28888888888889,0)">
					<path id="T_3_" class="st1" d="M652.7,746c-0.4,0.1-0.8,0.1-1.2,0V737c0.3-0.1,0.7-0.1,1.1,0c0.1,0.4,0.1,1.1,0.1,1.5
						c0.5-1,1.5-1.7,3.1-1.5c0.1,0.4,0.1,0.7,0,1.1c-2.1-0.1-3.1,1-3.1,3.3V746"/>
				</g>
			</g>
		</g>
		<g transform="matrix(1,0,0,1,600.6570247933885,704) translate(56.99111111111112 42.0275)">
			<g id="l">
				<g transform="matrix(0.017777777777777778,0,0,0.017777777777777778,0,0)">
					<path id="I_1_" class="st1" d="M669.4,742.4c0.1,3.8-4.4,4.5-7.7,3.4c0.1-0.4,0.2-0.8,0.3-1.1c0.8,0.3,1.7,0.5,2.8,0.5
						c2.2,0,3.9-1.3,3.1-3.5c-0.9-2.6-5.9-1.5-5.9-5.3c0-3.1,3.7-3.8,6.7-2.8c-0.1,0.4-0.1,0.7-0.2,1.1c-0.6-0.2-1.6-0.4-2.4-0.4
						c-1.7,0-2.8,0.7-2.8,2.1c0,2.1,2.5,2.2,4,3C668.4,739.9,669.3,740.6,669.4,742.4"/>
				</g>
				<g transform="matrix(0.017777777777777778,0,0,0.017777777777777778,9.617777777777778,0)">
					<path id="Z" class="st1" d="M675.8,746.2c-2.8,0-4-1.3-4-4.1V737c0.4-0.1,0.8-0.1,1.2,0v5.1c-0.1,2.2,0.8,3.1,3,3.1
						c0.7,0,1.3-0.1,1.9-0.2v-8c0.4-0.1,0.8-0.1,1.2,0v8.8C678.1,746,676.9,746.2,675.8,746.2"/>
				</g>
				<g transform="matrix(0.017777777777777778,0,0,0.017777777777777778,19.84,0)">
					<path id="W_1_" class="st1" d="M683.2,746c-0.4,0.1-0.8,0.1-1.2,0V737c0.3-0.1,0.7-0.1,1.1,0c0.1,0.4,0.1,1.1,0.1,1.6
						c0.5-1,1.3-1.8,2.8-1.8c1.4,0,2,0.7,2.3,1.7c0.6-0.8,1.3-1.7,2.7-1.7c2.2,0,3,1.3,3,3.5v5.8c-0.4,0.1-0.8,0.1-1.2,0v-5.4
						c0-1.7-0.4-2.8-1.9-2.8c-1.6,0-2.3,1.3-2.3,2.9v5.3c-0.4,0.1-0.8,0.1-1.2,0v-5.6c0-1.5-0.4-2.7-1.7-2.7
						C682.5,737.7,683.4,742.6,683.2,746"/>
				</g>
				<g transform="matrix(0.017777777777777778,0,0,0.017777777777777778,34.70222222222222,0)">
					<path id="W_2_" class="st1" d="M698.1,746c-0.4,0.1-0.8,0.1-1.2,0V737c0.3-0.1,0.7-0.1,1.1,0c0.1,0.4,0.1,1.1,0.1,1.6
						c0.5-1,1.3-1.8,2.8-1.8c1.4,0,2,0.7,2.3,1.7c0.6-0.8,1.3-1.7,2.7-1.7c2.2,0,3,1.3,3,3.5v5.8c-0.4,0.1-0.8,0.1-1.2,0v-5.4
						c0-1.7-0.4-2.8-1.9-2.8c-1.6,0-2.3,1.3-2.3,2.9v5.3c-0.4,0.1-0.8,0.1-1.2,0v-5.6c0-1.5-0.4-2.7-1.7-2.7
						C697.3,737.7,698.2,742.6,698.1,746"/>
				</g>
				<g transform="matrix(0.017777777777777778,0,0,0.017777777777777778,49.56444444444443,0)">
					<path id="N_4_" class="st1" d="M715.3,736.7c2.7,0,3.9,2,3.7,4.9h-6.5c0,2.4,1,3.5,3.3,3.5c0.9,0,1.7-0.2,2.4-0.4
						c0.1,0.2,0.2,0.7,0.2,1c-0.7,0.3-1.7,0.5-2.7,0.5c-3,0-4.5-1.7-4.5-4.7C711.3,738.7,712.5,736.7,715.3,736.7z M717.9,740.7
						c-0.1-1.7-0.8-2.9-2.5-2.9c-1.8,0-2.6,1.2-2.8,2.9H717.9"/>
				</g>
				<g transform="matrix(0.017777777777777778,0,0,0.017777777777777778,59.39555555555555,0)">
					<path id="T_4_" class="st1" d="M722.8,746c-0.4,0.1-0.8,0.1-1.2,0V737c0.3-0.1,0.7-0.1,1.1,0c0.1,0.4,0.1,1.1,0.1,1.5
						c0.5-1,1.5-1.7,3.1-1.5c0.1,0.4,0.1,0.7,0,1.1c-2.1-0.1-3.1,1-3.1,3.3V746"/>
				</g>
				<g transform="matrix(0.017777777777777778,0,0,0.017777777777777778,65.61777777777777,0)">
					<path id="aa" class="st1" d="M727.7,749.3c0.5,0.2,1.5,0.3,1.9-0.1c0.7-0.7,0.9-2.2,1.3-3.1c-0.3,0-0.7,0-1,0l-3.3-9.1
						c0.4-0.1,1-0.1,1.4,0l3,8.8l3-8.8c0.4-0.1,0.9-0.1,1.2,0l-4,11.8c-0.4,1.1-1,1.7-2.3,1.8c-0.5,0-1-0.1-1.4-0.2
						C727.4,749.9,727.5,749.6,727.7,749.3"/>
				</g>
			</g>
		</g>
	</g>
	<path class="st0" d="M675.7,781v18"/>
	<path class="st2" d="M676.7,781h-2v-1h2V781z"/>
	<path class="st3" d="M675.7,814.3L671,800h9.3L675.7,814.3z"/>
	<g>
		<path class="st0" d="M595.7,818.5h160v80h-160V818.5z"/>
		<g transform="matrix(1,0,0,1,600.6570247933885,823.5) translate(37.58666666666667 42.0275)">
			<g id="m">
				<g transform="matrix(0.017777777777777778,0,0,0.017777777777777778,0,0)">
					<path id="ab" class="st1" d="M653.6,865.5c-0.4,0.1-0.9,0.1-1.3,0l-1.1-3.3h-5.3l-1,3.3c-0.4,0.1-0.9,0.1-1.3,0l4.3-12.8
						c0.4-0.1,1-0.1,1.5,0L653.6,865.5z M650.9,861.1l-2.3-7.1l-2.3,7.1H650.9"/>
				</g>
				<g transform="matrix(0.017777777777777778,0,0,0.017777777777777778,10.702222222222222,0)">
					<path id="U_2_" class="st1" d="M659.5,856.2c0.7,0,1.6,0.1,2.1,0.3v-4.1c0.4-0.1,0.8-0.1,1.2,0v12.9c-0.8,0.2-2,0.4-3.1,0.4
						c-3,0-4.7-1.5-4.7-4.6C655,858.2,656.6,856.4,659.5,856.2z M659.7,864.7c0.7,0,1.5-0.1,2-0.2v-6.8c-0.5-0.2-1.3-0.4-2-0.4
						c-2.3,0.1-3.3,1.5-3.3,3.9C656.2,863.5,657.4,864.7,659.7,864.7"/>
				</g>
				<g transform="matrix(0.017777777777777778,0,0,0.017777777777777778,21.10222222222222,0)">
					<path id="U_3_" class="st1" d="M669.9,856.2c0.7,0,1.6,0.1,2.1,0.3v-4.1c0.4-0.1,0.8-0.1,1.2,0v12.9c-0.8,0.2-2,0.4-3.1,0.4
						c-3,0-4.7-1.5-4.7-4.6C665.4,858.2,667,856.4,669.9,856.2z M670.1,864.7c0.7,0,1.5-0.1,2-0.2v-6.8c-0.5-0.2-1.3-0.4-2-0.4
						c-2.3,0.1-3.3,1.5-3.3,3.9C666.6,863.5,667.8,864.7,670.1,864.7"/>
				</g>
				<g transform="matrix(0.017777777777777778,0,0,0.017777777777777778,31.502222222222223,0)">
					<path id="T_5_" class="st1" d="M677.5,865.5c-0.4,0.1-0.8,0.1-1.2,0v-9.1c0.3-0.1,0.7-0.1,1.1,0c0.1,0.4,0.1,1.1,0.1,1.5
						c0.5-1,1.5-1.7,3.1-1.5c0.1,0.4,0.1,0.7,0,1.1c-2.1-0.1-3.1,1-3.1,3.3V865.5"/>
				</g>
				<g transform="matrix(0.017777777777777778,0,0,0.017777777777777778,37.724444444444444,0)">
					<path id="N_5_" class="st1" d="M686.1,856.2c2.7,0,3.9,2,3.7,4.9h-6.5c0,2.4,1,3.5,3.3,3.5c0.9,0,1.7-0.2,2.4-0.4
						c0.1,0.2,0.2,0.7,0.2,1c-0.7,0.3-1.7,0.5-2.7,0.5c-3,0-4.5-1.7-4.5-4.7C682,858.2,683.2,856.2,686.1,856.2z M688.6,860.2
						c-0.1-1.7-0.8-2.9-2.5-2.9c-1.8,0-2.6,1.2-2.8,2.9H688.6"/>
				</g>
				<g transform="matrix(0.017777777777777778,0,0,0.017777777777777778,47.55555555555556,0)">
					<path id="O_3_" class="st1" d="M697.9,862.9c0,2.8-3.6,3.3-6.1,2.4c0.1-0.4,0.2-0.7,0.3-1.1c1.7,0.9,5.6,0.3,4.3-2
						c-0.9-1.7-4.3-0.8-4.4-3.6c-0.1-2.5,3.4-2.9,5.6-2c-0.1,0.3-0.1,0.7-0.2,1c-1.4-0.6-4.9-0.7-4,1.6c0.7,1,2.6,1,3.6,1.8
						C697.4,861.4,697.9,862,697.9,862.9"/>
				</g>
				<g transform="matrix(0.017777777777777778,0,0,0.017777777777777778,55.59111111111111,0)">
					<path id="O_4_" class="st1" d="M705.9,862.9c0,2.8-3.6,3.3-6.1,2.4c0.1-0.4,0.2-0.7,0.3-1.1c1.7,0.9,5.6,0.3,4.3-2
						c-0.9-1.7-4.3-0.8-4.4-3.6c-0.1-2.5,3.4-2.9,5.6-2c-0.1,0.3-0.1,0.7-0.2,1c-1.4-0.6-4.9-0.7-4,1.6c0.7,1,2.6,1,3.6,1.8
						C705.5,861.4,705.9,862,705.9,862.9"/>
				</g>
			</g>
		</g>
	</g>
	<path class="st0" d="M675.7,900.5V919"/>
	<path class="st2" d="M676.7,900.5h-2v-1h2V900.5z"/>
	<path class="st3" d="M675.7,934.3L671,920h9.3L675.7,934.3z"/>
	<g>
		<path class="st0" d="M595.7,938.5h160v80h-160V938.5z"/>
		<g transform="matrix(1,0,0,1,600.6570247933885,943.5) translate(34.89333333333334 30.7775)">
			<g id="n">
				<g transform="matrix(0.017777777777777778,0,0,0.017777777777777778,0,0)">
					<path id="Q_1_" class="st1" d="M646.8,965.2c0-2.6-2.3-3-4.8-2.7v5.6C644.7,968.4,646.8,967.9,646.8,965.2z M642,974.3
						c-0.4,0.1-0.9,0.1-1.2,0v-12.8c0.8-0.1,1.8-0.2,2.7-0.2c2.8,0,4.6,1.1,4.7,3.9c0,3.4-2.6,4.5-6.1,4.1V974.3"/>
				</g>
				<g transform="matrix(0.017777777777777778,0,0,0.017777777777777778,9.848888888888888,0)">
					<path id="R_2_" class="st1" d="M651,971.7c0,2.1,2.7,1.9,4.4,1.6v-3.4C653.4,969.5,651,969.7,651,971.7z M649.8,971.7
						c0-2.7,2.8-3.3,5.6-2.9c0.1-1.8-0.5-2.8-2.2-2.8c-0.9,0-1.7,0.1-2.3,0.3c-0.1-0.2-0.2-0.7-0.2-1c0.6-0.2,1.7-0.3,2.5-0.3
						c2.3,0,3.4,0.9,3.4,3.1v6c-0.8,0.2-2.2,0.4-3.2,0.4C651.3,974.5,649.8,973.8,649.8,971.7"/>
				</g>
				<g transform="matrix(0.017777777777777778,0,0,0.017777777777777778,18.968888888888888,0)">
					<path id="aa_1_" class="st1" d="M659.3,977.5c0.5,0.2,1.5,0.3,1.9-0.1c0.7-0.7,0.9-2.2,1.3-3.1c-0.3,0-0.7,0-1,0l-3.3-9.1
						c0.4-0.1,1-0.1,1.4,0l3,8.8l3-8.8c0.4-0.1,0.9-0.1,1.2,0l-4,11.8c-0.4,1.1-1,1.7-2.3,1.8c-0.5,0-1-0.1-1.4-0.2
						C659.1,978.1,659.2,977.8,659.3,977.5"/>
				</g>
				<g transform="matrix(0.017777777777777778,0,0,0.017777777777777778,28.124444444444446,0)">
					<path id="W_3_" class="st1" d="M669.8,974.3c-0.4,0.1-0.8,0.1-1.2,0v-9.1c0.3-0.1,0.7-0.1,1.1,0c0.1,0.4,0.1,1.1,0.1,1.6
						c0.5-1,1.3-1.8,2.8-1.8c1.4,0,2,0.7,2.3,1.7c0.6-0.8,1.3-1.7,2.7-1.7c2.2,0,3,1.3,3,3.5v5.8c-0.4,0.1-0.8,0.1-1.2,0v-5.4
						c0-1.7-0.4-2.8-1.9-2.8c-1.6,0-2.3,1.3-2.3,2.9v5.3c-0.4,0.1-0.8,0.1-1.2,0v-5.6c0-1.5-0.4-2.7-1.7-2.7
						C669.1,966,670,970.8,669.8,974.3"/>
				</g>
				<g transform="matrix(0.017777777777777778,0,0,0.017777777777777778,42.986666666666665,0)">
					<path id="N_6_" class="st1" d="M687.1,965c2.7,0,3.9,2,3.7,4.9h-6.5c0,2.4,1,3.5,3.3,3.5c0.9,0,1.7-0.2,2.4-0.4
						c0.1,0.2,0.2,0.7,0.2,1c-0.7,0.3-1.7,0.5-2.7,0.5c-3,0-4.5-1.7-4.5-4.7C683,967,684.2,965,687.1,965z M689.6,968.9
						c-0.1-1.7-0.8-2.9-2.5-2.9c-1.8,0-2.6,1.2-2.8,2.9H689.6"/>
				</g>
				<g transform="matrix(0.017777777777777778,0,0,0.017777777777777778,52.81777777777778,0)">
					<path id="H_2_" class="st1" d="M694.5,974.3c-0.4,0.1-0.8,0.1-1.2,0v-9.1c0.3-0.1,0.7-0.1,1.1,0c0.1,0.4,0.1,1.2,0.1,1.6
						c0.6-1,1.5-1.8,3.1-1.8c2.2,0,3,1.4,3,3.6v5.7c-0.4,0.1-0.8,0.1-1.2,0v-5.4c0-1.7-0.4-2.8-1.9-2.8c-2.1,0-3,1.6-3,3.7V974.3"/>
				</g>
				<g transform="matrix(0.017777777777777778,0,0,0.017777777777777778,62.986666666666665,0)">
					<path id="P_2_" class="st1" d="M707.7,974.3c-1.8,0.5-3.8,0-3.8-2.1v-6h-1.5c-0.1-0.3-0.1-0.7,0-1h1.5v-1.7l1.1-1.1h0.1v2.8
						h2.5c0.1,0.3,0.1,0.7,0,1h-2.5v5.9c-0.2,1.4,1.3,1.5,2.4,1.2C707.6,973.6,707.7,973.9,707.7,974.3"/>
				</g>
			</g>
		</g>
		<g transform="matrix(1,0,0,1,600.6570247933885,943.5) translate(44.44000000000001 51.43527777777778)">
			<g id="o">
				<g transform="matrix(0.017777777777777778,0,0,0.017777777777777778,0,0)">
					<path id="ac" class="st1" d="M646.4,994.9c-0.4,0.1-0.9,0.1-1.2,0l0.6-12.8c0.4-0.1,1.1-0.1,1.5,0l3.6,8.5l3.5-8.5
						c0.4-0.1,1.1-0.1,1.5,0l0.6,12.8c-0.4,0.1-0.9,0.1-1.2,0l-0.5-10.9l-3.5,8.2c-0.3,0.1-0.7,0.1-1,0L647,984"/>
				</g>
				<g transform="matrix(0.017777777777777778,0,0,0.017777777777777778,14.488888888888889,0)">
					<path id="N_7_" class="st1" d="M663.3,985.7c2.7,0,3.9,2,3.7,4.9h-6.5c0,2.4,1,3.5,3.3,3.5c0.9,0,1.7-0.2,2.4-0.4
						c0.1,0.2,0.2,0.7,0.2,1c-0.7,0.3-1.7,0.5-2.7,0.5c-3,0-4.5-1.7-4.5-4.7C659.2,987.6,660.4,985.7,663.3,985.7z M665.8,989.6
						c-0.1-1.7-0.8-2.9-2.5-2.9c-1.8,0-2.6,1.2-2.8,2.9H665.8"/>
				</g>
				<g transform="matrix(0.017777777777777778,0,0,0.017777777777777778,24.32,0)">
					<path id="P_3_" class="st1" d="M673.7,994.9c-1.8,0.5-3.8,0-3.8-2.1v-6h-1.5c-0.1-0.3-0.1-0.7,0-1h1.5v-1.7l1.1-1.1h0.1v2.8
						h2.5c0.1,0.3,0.1,0.7,0,1h-2.5v5.9c-0.2,1.4,1.3,1.5,2.4,1.2C673.7,994.2,673.7,994.6,673.7,994.9"/>
				</g>
				<g transform="matrix(0.017777777777777778,0,0,0.017777777777777778,30.346666666666668,0)">
					<path id="ad" class="st1" d="M676.8,994.9c-0.4,0.1-0.8,0.1-1.2,0v-13.1c0.4-0.1,0.8-0.1,1.2,0v5.6c0.6-1,1.5-1.8,3-1.8
						c2.2,0,3,1.4,3,3.6v5.7c-0.4,0.1-0.8,0.1-1.2,0v-5.4c0-1.7-0.4-2.8-1.9-2.8c-2,0-2.9,1.5-2.9,3.6V994.9"/>
				</g>
				<g transform="matrix(0.017777777777777778,0,0,0.017777777777777778,40.51555555555556,0)">
					<path id="E_3_" class="st1" d="M686.5,990.4c0,2.1,0.8,3.7,2.8,3.7c2,0,2.8-1.6,2.8-3.7s-0.8-3.7-2.8-3.7
						C687.3,986.7,686.5,988.3,686.5,990.4z M693.4,990.4c0,2.8-1.3,4.7-4.1,4.7c-2.8,0-4.1-1.9-4.1-4.7s1.3-4.7,4.1-4.7
						C692.1,985.7,693.4,987.6,693.4,990.4"/>
				</g>
				<g transform="matrix(0.017777777777777778,0,0,0.017777777777777778,50.72,0)">
					<path id="U_4_" class="st1" d="M700,985.7c0.7,0,1.6,0.1,2.1,0.3v-4.1c0.4-0.1,0.8-0.1,1.2,0v12.9c-0.8,0.2-2,0.4-3.1,0.4
						c-3,0-4.7-1.5-4.7-4.6C695.5,987.6,697,985.8,700,985.7z M700.1,994.1c0.7,0,1.5-0.1,2-0.2v-6.8c-0.5-0.2-1.3-0.4-2-0.4
						c-2.3,0.1-3.3,1.5-3.3,3.9C696.7,992.9,697.9,994.1,700.1,994.1"/>
				</g>
			</g>
		</g>
	</g>
	<path class="st0" d="M675.7,1020.5v19"/>
	<path class="st2" d="M676.7,1020.5h-2v-1h2V1020.5z"/>
	<path class="st3" d="M675.7,1054.8l-4.6-14.3h9.3L675.7,1054.8z"/>
	<g>
		<path class="st0" d="M595.7,1059h160v80h-160V1059z"/>
		<g transform="matrix(1,0,0,1,600.6570247933885,1064) translate(46.644444444444446 30.7775)">
			<g id="p">
				<g transform="matrix(0.017777777777777778,0,0,0.017777777777777778,0,0)">
					<path id="Y_1_" class="st1" d="M663.5,1088.4c0,3.8-1.5,6.6-5.3,6.6s-5.3-2.8-5.3-6.6c0-3.8,1.5-6.6,5.3-6.6
						S663.5,1084.6,663.5,1088.4z M654.3,1088.4c0,3.1,1,5.5,4,5.5c3,0,4-2.4,4-5.5s-1-5.5-4-5.5
						C655.2,1082.9,654.3,1085.3,654.3,1088.4"/>
				</g>
				<g transform="matrix(0.017777777777777778,0,0,0.017777777777777778,12.835555555555555,0)">
					<path id="T_6_" class="st1" d="M667.4,1094.8c-0.4,0.1-0.8,0.1-1.2,0v-9.1c0.3-0.1,0.7-0.1,1.1,0c0.1,0.4,0.1,1.1,0.1,1.5
						c0.5-1,1.5-1.7,3.1-1.5c0.1,0.4,0.1,0.7,0,1.1c-2.1-0.1-3.1,1-3.1,3.3V1094.8"/>
				</g>
				<g transform="matrix(0.017777777777777778,0,0,0.017777777777777778,19.057777777777776,0)">
					<path id="U_5_" class="st1" d="M676.5,1085.5c0.7,0,1.6,0.1,2.1,0.3v-4.1c0.4-0.1,0.8-0.1,1.2,0v12.9c-0.8,0.2-2,0.4-3.1,0.4
						c-3,0-4.7-1.5-4.7-4.6C672,1087.4,673.5,1085.6,676.5,1085.5z M676.6,1093.9c0.7,0,1.5-0.1,2-0.2v-6.8c-0.5-0.2-1.3-0.4-2-0.4
						c-2.3,0.1-3.3,1.5-3.3,3.9C673.2,1092.8,674.4,1093.9,676.6,1093.9"/>
				</g>
				<g transform="matrix(0.017777777777777778,0,0,0.017777777777777778,29.45777777777778,0)">
					<path id="N_8_" class="st1" d="M686.4,1085.5c2.7,0,3.9,2,3.7,4.9h-6.5c0,2.4,1,3.5,3.3,3.5c0.9,0,1.7-0.2,2.4-0.4
						c0.1,0.2,0.2,0.7,0.2,1c-0.7,0.3-1.7,0.5-2.7,0.5c-3,0-4.5-1.7-4.5-4.7C682.4,1087.5,683.6,1085.5,686.4,1085.5z M689,1089.4
						c-0.1-1.7-0.8-2.9-2.5-2.9c-1.8,0-2.6,1.2-2.8,2.9H689"/>
				</g>
				<g transform="matrix(0.017777777777777778,0,0,0.017777777777777778,39.28888888888889,0)">
					<path id="T_7_" class="st1" d="M693.9,1094.8c-0.4,0.1-0.8,0.1-1.2,0v-9.1c0.3-0.1,0.7-0.1,1.1,0c0.1,0.4,0.1,1.1,0.1,1.5
						c0.5-1,1.5-1.7,3.1-1.5c0.1,0.4,0.1,0.7,0,1.1c-2.1-0.1-3.1,1-3.1,3.3V1094.8"/>
				</g>
			</g>
		</g>
		<g transform="matrix(1,0,0,1,600.6570247933885,1064) translate(23.05333333333333 51.43527777777778)">
			<g id="q">
				<g transform="matrix(0.017777777777777778,0,0,0.017777777777777778,0,0)">
					<path id="X_1_" class="st1" d="M630.3,1114.5c1,0,2-0.2,2.7-0.6c0.2,0.3,0.3,0.6,0.4,1c-0.8,0.4-2,0.7-3.2,0.6
						c-3.9-0.1-5.8-2.5-5.8-6.5c-0.1-4.7,2.8-7.4,7.7-6.6c0.5,0.1,0.9,0.2,1.1,0.3c-0.1,0.5-0.1,0.6-0.3,1c-0.8-0.3-1.6-0.4-2.6-0.4
						c-3.2,0.1-4.5,2.4-4.5,5.7C625.6,1112.4,627.1,1114.5,630.3,1114.5"/>
				</g>
				<g transform="matrix(0.017777777777777778,0,0,0.017777777777777778,10.986666666666666,0)">
					<path id="E_4_" class="st1" d="M636.4,1110.9c0,2.1,0.8,3.7,2.8,3.7s2.8-1.6,2.8-3.7s-0.8-3.7-2.8-3.7
						S636.4,1108.8,636.4,1110.9z M643.3,1110.9c0,2.8-1.3,4.7-4.1,4.7c-2.8,0-4.1-1.9-4.1-4.7s1.3-4.7,4.1-4.7
						C642,1106.2,643.3,1108.1,643.3,1110.9"/>
				</g>
				<g transform="matrix(0.017777777777777778,0,0,0.017777777777777778,21.191111111111113,0)">
					<path id="H_3_" class="st1" d="M647.1,1115.4c-0.4,0.1-0.8,0.1-1.2,0v-9.1c0.3-0.1,0.7-0.1,1.1,0c0.1,0.4,0.1,1.2,0.1,1.6
						c0.6-1,1.5-1.8,3.1-1.8c2.2,0,3,1.4,3,3.6v5.7c-0.4,0.1-0.8,0.1-1.2,0v-5.4c0-1.7-0.4-2.8-1.9-2.8c-2.1,0-3,1.6-3,3.7V1115.4"
						/>
				</g>
				<g transform="matrix(0.017777777777777778,0,0,0.017777777777777778,31.36,0)">
					<path id="ae" class="st1" d="M657.9,1115.4c-0.4,0.1-0.8,0.1-1.2,0v-8.1h-1.5c-0.1-0.3-0.1-0.7,0-1h1.5c-0.3-3.1,1.2-4.7,4.3-4
						c-0.1,0.4-0.1,0.6-0.2,1c-0.2-0.1-0.7-0.1-1-0.1c-1.8,0-2,1.3-1.9,3.1h2.5c0.1,0.3,0.1,0.7,0,1h-2.5V1115.4"/>
				</g>
				<g transform="matrix(0.017777777777777778,0,0,0.017777777777777778,37.58222222222222,0)">
					<path id="J_1_" class="st1" d="M664,1115.4c-0.4,0.1-0.8,0.1-1.2,0v-8.1h-1.1c-0.1-0.3-0.1-0.7,0-1h2.3V1115.4z M663.8,1104.1
						c-0.4,0.1-1,0-1.5,0c0-0.5-0.1-1,0-1.5c0.5,0,1-0.1,1.5,0C663.8,1103.1,663.8,1103.7,663.8,1104.1"/>
				</g>
				<g transform="matrix(0.017777777777777778,0,0,0.017777777777777778,42.43555555555555,0)">
					<path id="T_8_" class="st1" d="M668.3,1115.4c-0.4,0.1-0.8,0.1-1.2,0v-9.1c0.3-0.1,0.7-0.1,1.1,0c0.1,0.4,0.1,1.1,0.1,1.5
						c0.5-1,1.5-1.7,3.1-1.5c0.1,0.4,0.1,0.7,0,1.1c-2.1-0.1-3.1,1-3.1,3.3V1115.4"/>
				</g>
				<g transform="matrix(0.017777777777777778,0,0,0.017777777777777778,48.65777777777778,0)">
					<path id="W_4_" class="st1" d="M674.6,1115.4c-0.4,0.1-0.8,0.1-1.2,0v-9.1c0.3-0.1,0.7-0.1,1.1,0c0.1,0.4,0.1,1.1,0.1,1.6
						c0.5-1,1.3-1.8,2.8-1.8c1.4,0,2,0.7,2.3,1.7c0.6-0.8,1.3-1.7,2.7-1.7c2.2,0,3,1.3,3,3.5v5.8c-0.4,0.1-0.8,0.1-1.2,0v-5.4
						c0-1.7-0.4-2.8-1.9-2.8c-1.6,0-2.3,1.3-2.3,2.9v5.3c-0.4,0.1-0.8,0.1-1.2,0v-5.6c0-1.5-0.4-2.7-1.7-2.7
						C673.8,1107.2,674.7,1112,674.6,1115.4"/>
				</g>
				<g transform="matrix(0.017777777777777778,0,0,0.017777777777777778,63.52,0)">
					<path id="R_3_" class="st1" d="M688.8,1112.8c0,2.1,2.7,1.9,4.4,1.6v-3.4C691.3,1110.7,688.8,1110.9,688.8,1112.8z
						 M687.7,1112.9c0-2.7,2.8-3.3,5.6-2.9c0.1-1.8-0.5-2.8-2.2-2.8c-0.9,0-1.7,0.1-2.3,0.3c-0.1-0.2-0.2-0.7-0.2-1
						c0.6-0.2,1.7-0.3,2.5-0.3c2.3,0,3.4,0.9,3.4,3.1v6c-0.8,0.2-2.2,0.4-3.2,0.4C689.1,1115.6,687.7,1114.9,687.7,1112.9"/>
				</g>
				<g transform="matrix(0.017777777777777778,0,0,0.017777777777777778,72.64,0)">
					<path id="P_4_" class="st1" d="M701.5,1115.4c-1.8,0.5-3.8,0-3.8-2.1v-6h-1.5c-0.1-0.3-0.1-0.7,0-1h1.5v-1.7l1.1-1.1h0.1v2.8
						h2.5c0.1,0.3,0.1,0.7,0,1H699v5.9c-0.2,1.4,1.3,1.5,2.4,1.2C701.5,1114.7,701.5,1115.1,701.5,1115.4"/>
				</g>
				<g transform="matrix(0.017777777777777778,0,0,0.017777777777777778,78.66666666666667,0)">
					<path id="J_2_" class="st1" d="M705.1,1115.4c-0.4,0.1-0.8,0.1-1.2,0v-8.1h-1.1c-0.1-0.3-0.1-0.7,0-1h2.3V1115.4z
						 M704.9,1104.1c-0.4,0.1-1,0-1.5,0c0-0.5-0.1-1,0-1.5c0.5,0,1-0.1,1.5,0C704.9,1103.1,704.9,1103.7,704.9,1104.1"/>
				</g>
				<g transform="matrix(0.017777777777777778,0,0,0.017777777777777778,83.52000000000001,0)">
					<path id="E_5_" class="st1" d="M709,1110.9c0,2.1,0.8,3.7,2.8,3.7s2.8-1.6,2.8-3.7s-0.8-3.7-2.8-3.7S709,1108.8,709,1110.9z
						 M715.8,1110.9c0,2.8-1.3,4.7-4.1,4.7c-2.8,0-4.1-1.9-4.1-4.7s1.3-4.7,4.1-4.7C714.6,1106.2,715.8,1108.1,715.8,1110.9"/>
				</g>
				<g transform="matrix(0.017777777777777778,0,0,0.017777777777777778,93.72444444444446,0)">
					<path id="H_4_" class="st1" d="M719.6,1115.4c-0.4,0.1-0.8,0.1-1.2,0v-9.1c0.3-0.1,0.7-0.1,1.1,0c0.1,0.4,0.1,1.2,0.1,1.6
						c0.6-1,1.5-1.8,3.1-1.8c2.2,0,3,1.4,3,3.6v5.7c-0.4,0.1-0.8,0.1-1.2,0v-5.4c0-1.7-0.4-2.8-1.9-2.8c-2.1,0-3,1.6-3,3.7V1115.4"
						/>
				</g>
			</g>
		</g>
	</g>
	<g>
		<path class="st0" d="M140,699h160v80H140V699z"/>
		<g transform="matrix(1,0,0,1,145,704) translate(27.080000000000005 42.0275)">
			<g id="r">
				<g transform="matrix(0.017777777777777778,0,0,0.017777777777777778,0,0)">
					<path id="X_2_" class="st1" d="M184.2,745.1c1,0,2-0.2,2.7-0.6c0.2,0.3,0.3,0.6,0.4,1c-0.8,0.4-2,0.7-3.2,0.6
						c-3.9-0.1-5.8-2.5-5.8-6.5c-0.1-4.7,2.8-7.4,7.7-6.6c0.5,0.1,0.9,0.2,1.1,0.3c-0.1,0.5-0.1,0.6-0.3,1c-0.8-0.3-1.6-0.4-2.6-0.4
						c-3.2,0.1-4.5,2.4-4.5,5.7C179.5,743,181,745,184.2,745.1"/>
				</g>
				<g transform="matrix(0.017777777777777778,0,0,0.017777777777777778,10.986666666666666,0)">
					<path id="R_4_" class="st1" d="M190.2,743.4c0,2.1,2.7,1.9,4.4,1.6v-3.4C192.7,741.3,190.2,741.5,190.2,743.4z M189,743.4
						c0-2.7,2.8-3.3,5.6-2.9c0.1-1.8-0.5-2.8-2.2-2.8c-0.9,0-1.7,0.1-2.3,0.3c-0.1-0.2-0.2-0.7-0.2-1c0.6-0.2,1.7-0.3,2.5-0.3
						c2.3,0,3.4,0.9,3.4,3.1v6c-0.8,0.2-2.2,0.4-3.2,0.4C190.5,746.2,189,745.5,189,743.4"/>
				</g>
				<g transform="matrix(0.017777777777777778,0,0,0.017777777777777778,20.106666666666666,0)">
					<path id="P_5_" class="st1" d="M202.9,746c-1.8,0.5-3.8,0-3.8-2.1v-6h-1.5c-0.1-0.3-0.1-0.7,0-1h1.5v-1.7l1.1-1.1h0.1v2.8h2.5
						c0.1,0.3,0.1,0.7,0,1h-2.5v5.9c-0.2,1.4,1.3,1.5,2.4,1.2C202.8,745.3,202.9,745.7,202.9,746"/>
				</g>
				<g transform="matrix(0.017777777777777778,0,0,0.017777777777777778,26.133333333333333,0)">
					<path id="N_9_" class="st1" d="M208.3,736.7c2.7,0,3.9,2,3.7,4.9h-6.5c0,2.4,1,3.5,3.3,3.5c0.9,0,1.7-0.2,2.4-0.4
						c0.1,0.2,0.2,0.7,0.2,1c-0.7,0.3-1.7,0.5-2.7,0.5c-3,0-4.5-1.7-4.5-4.7C204.3,738.7,205.5,736.7,208.3,736.7z M210.9,740.7
						c-0.1-1.7-0.8-2.9-2.5-2.9c-1.8,0-2.6,1.2-2.8,2.9H210.9"/>
				</g>
				<g transform="matrix(0.017777777777777778,0,0,0.017777777777777778,35.964444444444446,0)">
					<path id="F_2_" class="st1" d="M215.4,744.2c0,0.8,0.7,0.9,1.5,0.9c1.6,0.1,3.8-0.1,4.5,0.7c0.7,0.7,0.9,2,0.3,2.9
						c-0.8,1.2-2.4,1.8-4.4,1.8c-2,0-3.6-0.4-3.6-2.4c0-1,0.7-1.9,1.4-2.2c-0.4-0.3-0.8-0.7-0.8-1.4c0-1,0.6-1.5,1.2-2
						c-0.8-0.5-1.4-1.4-1.4-2.6c0.1-2.1,1.4-3.1,3.5-3.2c1,0,1.7,0.3,2.3,0.7c0.6-0.3,1.5-0.4,2.3-0.5c0.1,0.3,0.1,0.9,0,1.2h-1.7
						c0.3,0.5,0.5,1,0.5,1.8c0,2.5-2.3,3.6-4.8,3C215.8,743.3,215.4,743.5,215.4,744.2z M217.4,749.4c1.8,0,3.4-0.6,3.5-1.9
						c0.1-1.7-2.5-1.2-4.2-1.3c-1.1-0.1-1.9,0.7-1.8,1.8C214.9,749.2,216.2,749.4,217.4,749.4z M217.7,737.7c-1.4,0-2.2,0.9-2.2,2.2
						s0.8,2.2,2.2,2.2s2.3-0.9,2.3-2.2S219.1,737.7,217.7,737.7"/>
				</g>
				<g transform="matrix(0.017777777777777778,0,0,0.017777777777777778,45.49333333333333,0)">
					<path id="E_6_" class="st1" d="M224.8,741.5c0,2.1,0.8,3.7,2.8,3.7c2,0,2.8-1.6,2.8-3.7s-0.8-3.7-2.8-3.7
						C225.6,737.8,224.8,739.4,224.8,741.5z M231.7,741.5c0,2.8-1.3,4.7-4.1,4.7c-2.8,0-4.1-1.9-4.1-4.7s1.3-4.7,4.1-4.7
						C230.5,736.7,231.7,738.7,231.7,741.5"/>
				</g>
				<g transform="matrix(0.017777777777777778,0,0,0.017777777777777778,55.69777777777777,0)">
					<path id="T_9_" class="st1" d="M235.5,746c-0.4,0.1-0.8,0.1-1.2,0V737c0.3-0.1,0.7-0.1,1.1,0c0.1,0.4,0.1,1.1,0.1,1.5
						c0.5-1,1.5-1.7,3.1-1.5c0.1,0.4,0.1,0.7,0,1.1c-2.1-0.1-3.1,1-3.1,3.3V746"/>
				</g>
				<g transform="matrix(0.017777777777777778,0,0,0.017777777777777778,61.919999999999995,0)">
					<path id="J_3_" class="st1" d="M242.3,746c-0.4,0.1-0.8,0.1-1.2,0V738H240c-0.1-0.3-0.1-0.7,0-1h2.3V746z M242,734.7
						c-0.4,0.1-1,0-1.5,0c0-0.5-0.1-1,0-1.5c0.5,0,1-0.1,1.5,0C242.1,733.7,242.1,734.3,242,734.7"/>
				</g>
				<g transform="matrix(0.017777777777777778,0,0,0.017777777777777778,66.77333333333333,0)">
					<path id="N_10_" class="st1" d="M249,736.7c2.7,0,3.9,2,3.7,4.9h-6.5c0,2.4,1,3.5,3.3,3.5c0.9,0,1.7-0.2,2.4-0.4
						c0.1,0.2,0.2,0.7,0.2,1c-0.7,0.3-1.7,0.5-2.7,0.5c-3,0-4.5-1.7-4.5-4.7C244.9,738.7,246.1,736.7,249,736.7z M251.5,740.7
						c-0.1-1.7-0.8-2.9-2.5-2.9c-1.8,0-2.6,1.2-2.8,2.9H251.5"/>
				</g>
				<g transform="matrix(0.017777777777777778,0,0,0.017777777777777778,76.60444444444444,0)">
					<path id="O_5_" class="st1" d="M260.7,743.4c0,2.8-3.6,3.3-6.1,2.4c0.1-0.4,0.2-0.7,0.3-1.1c1.7,0.9,5.6,0.3,4.3-2
						c-0.9-1.7-4.3-0.8-4.4-3.6c-0.1-2.5,3.4-2.9,5.6-2c-0.1,0.3-0.1,0.7-0.2,1c-1.4-0.6-4.9-0.7-4,1.6c0.7,1,2.6,1,3.6,1.8
						C260.3,741.9,260.7,742.5,260.7,743.4"/>
				</g>
			</g>
		</g>
	</g>
	<g>
		<path class="st0" d="M280,938.5h160v80H280V938.5z"/>
		<g transform="matrix(1,0,0,1,285.0000000000001,943.5) translate(23.284444444444453 41.715)">
			<g id="s">
				<g transform="matrix(0.017777777777777778,0,0,0.017777777777777778,0,0)">
					<path id="af" class="st1" d="M321.8,981.7c0,3.7-4.2,4.1-7.8,3.5v-12.8c0.8-0.1,1.7-0.2,2.6-0.2c2.6,0,4.3,0.9,4.3,3.3
						c0,1.5-0.9,2.4-2.1,2.8C320.7,978.7,321.8,979.7,321.8,981.7z M316.9,973.3c-0.5,0-1.1,0.1-1.5,0.1v4.5h1.7
						c1.7,0,2.8-0.8,2.8-2.3C319.8,974.1,318.6,973.3,316.9,973.3z M320.5,981.7c0-2.6-2.5-2.8-5.2-2.7v5.2
						C317.8,984.5,320.5,984.2,320.5,981.7"/>
				</g>
				<g transform="matrix(0.017777777777777778,0,0,0.017777777777777778,10.435555555555556,0)">
					<path id="N_11_" class="st1" d="M327.8,975.9c2.7,0,3.9,2,3.7,4.9H325c0,2.4,1,3.5,3.3,3.5c0.9,0,1.7-0.2,2.4-0.4
						c0.1,0.2,0.2,0.7,0.2,1c-0.7,0.3-1.7,0.5-2.7,0.5c-3,0-4.5-1.7-4.5-4.7C323.8,977.9,325,975.9,327.8,975.9z M330.4,979.9
						c-0.1-1.7-0.8-2.9-2.5-2.9c-1.8,0-2.6,1.2-2.8,2.9H330.4"/>
				</g>
				<g transform="matrix(0.017777777777777778,0,0,0.017777777777777778,20.266666666666666,0)">
					<path id="O_6_" class="st1" d="M339.6,982.6c0,2.8-3.6,3.3-6.1,2.4c0.1-0.4,0.2-0.7,0.3-1.1c1.7,0.9,5.6,0.3,4.3-2
						c-0.9-1.7-4.3-0.8-4.4-3.6c-0.1-2.5,3.4-2.9,5.6-2c-0.1,0.3-0.1,0.7-0.2,1c-1.4-0.6-4.9-0.7-4,1.6c0.7,1,2.6,1,3.6,1.8
						C339.2,981.1,339.6,981.7,339.6,982.6"/>
				</g>
				<g transform="matrix(0.017777777777777778,0,0,0.017777777777777778,28.30222222222222,0)">
					<path id="P_6_" class="st1" d="M346.3,985.2c-1.8,0.5-3.8,0-3.8-2.1v-6H341c-0.1-0.3-0.1-0.7,0-1h1.5v-1.7l1.1-1.1h0.1v2.8h2.5
						c0.1,0.3,0.1,0.7,0,1h-2.5v5.9c-0.2,1.4,1.3,1.5,2.4,1.2C346.2,984.5,346.3,984.9,346.3,985.2"/>
				</g>
			</g>
		</g>
		<g transform="matrix(1,0,0,1,285.0000000000001,943.5) translate(62.05777777777778 41.715)">
			<g id="t">
				<g transform="matrix(0.017777777777777778,0,0,0.017777777777777778,0,0)">
					<path id="I_2_" class="st1" d="M359.8,981.6c0.1,3.8-4.4,4.5-7.7,3.4c0.1-0.4,0.2-0.8,0.3-1.1c0.8,0.3,1.7,0.5,2.8,0.5
						c2.2,0,3.9-1.3,3.1-3.5c-0.9-2.6-5.9-1.5-5.9-5.3c0-3.1,3.7-3.8,6.7-2.8c-0.1,0.4-0.1,0.7-0.2,1.1c-0.6-0.2-1.6-0.4-2.4-0.4
						c-1.7,0-2.8,0.7-2.8,2.1c0,2.1,2.5,2.2,4,3C358.8,979.1,359.7,979.8,359.8,981.6"/>
				</g>
				<g transform="matrix(0.017777777777777778,0,0,0.017777777777777778,9.617777777777778,0)">
					<path id="N_12_" class="st1" d="M365.8,975.9c2.7,0,3.9,2,3.7,4.9H363c0,2.4,1,3.5,3.3,3.5c0.9,0,1.7-0.2,2.4-0.4
						c0.1,0.2,0.2,0.7,0.2,1c-0.7,0.3-1.7,0.5-2.7,0.5c-3,0-4.5-1.7-4.5-4.7C361.7,977.9,363,975.9,365.8,975.9z M368.3,979.9
						c-0.1-1.7-0.8-2.9-2.5-2.9c-1.8,0-2.6,1.2-2.8,2.9H368.3"/>
				</g>
				<g transform="matrix(0.017777777777777778,0,0,0.017777777777777778,19.448888888888888,0)">
					<path id="ag" class="st1" d="M375.3,985.2c-1.6,0.4-3.2,0-3.2-1.8v-11.2c0.4-0.1,0.8-0.1,1.2,0v11c-0.1,1.2,0.8,1.4,1.8,1.2
						C375.2,984.5,375.2,984.9,375.3,985.2"/>
				</g>
				<g transform="matrix(0.017777777777777778,0,0,0.017777777777777778,24.40888888888889,0)">
					<path id="ag_1_" class="st1" d="M380.2,985.2c-1.6,0.4-3.2,0-3.2-1.8v-11.2c0.4-0.1,0.8-0.1,1.2,0v11c-0.1,1.2,0.8,1.4,1.8,1.2
						C380.2,984.5,380.2,984.9,380.2,985.2"/>
				</g>
				<g transform="matrix(0.017777777777777778,0,0,0.017777777777777778,29.36888888888889,0)">
					<path id="N_13_" class="st1" d="M385.5,975.9c2.7,0,3.9,2,3.7,4.9h-6.5c0,2.4,1,3.5,3.3,3.5c0.9,0,1.7-0.2,2.4-0.4
						c0.1,0.2,0.2,0.7,0.2,1c-0.7,0.3-1.7,0.5-2.7,0.5c-3,0-4.5-1.7-4.5-4.7C381.5,977.9,382.7,975.9,385.5,975.9z M388.1,979.9
						c-0.1-1.7-0.8-2.9-2.5-2.9c-1.8,0-2.6,1.2-2.8,2.9H388.1"/>
				</g>
				<g transform="matrix(0.017777777777777778,0,0,0.017777777777777778,39.2,0)">
					<path id="T_10_" class="st1" d="M393,985.2c-0.4,0.1-0.8,0.1-1.2,0v-9.1c0.3-0.1,0.7-0.1,1.1,0c0.1,0.4,0.1,1.1,0.1,1.5
						c0.5-1,1.5-1.7,3.1-1.5c0.1,0.4,0.1,0.7,0,1.1c-2.1-0.1-3.1,1-3.1,3.3V985.2"/>
				</g>
				<g transform="matrix(0.017777777777777778,0,0,0.017777777777777778,45.422222222222224,0)">
					<path id="O_7_" class="st1" d="M403.5,982.6c0,2.8-3.6,3.3-6.1,2.4c0.1-0.4,0.2-0.7,0.3-1.1c1.7,0.9,5.6,0.3,4.3-2
						c-0.9-1.7-4.3-0.8-4.4-3.6c-0.1-2.5,3.4-2.9,5.6-2c-0.1,0.3-0.1,0.7-0.2,1c-1.4-0.6-4.9-0.7-4,1.6c0.7,1,2.6,1,3.6,1.8
						C403.1,981.1,403.5,981.7,403.5,982.6"/>
				</g>
			</g>
		</g>
	</g>
	<g>
		<path class="st0" d="M280,818.5h160v80H280V818.5z"/>
		<g transform="matrix(1,0,0,1,285.0000000000001,823.5) translate(27.888888888888893 41.715)">
			<g id="u">
				<g transform="matrix(0.017777777777777778,0,0,0.017777777777777778,0,0)">
					<path id="I_3_" class="st1" d="M326.6,861.6c0.1,3.8-4.4,4.5-7.7,3.4c0.1-0.4,0.2-0.8,0.3-1.1c0.8,0.3,1.7,0.5,2.8,0.5
						c2.2,0,3.9-1.3,3.1-3.5c-0.9-2.6-5.9-1.5-5.9-5.3c0-3.1,3.7-3.8,6.7-2.8c-0.1,0.4-0.1,0.7-0.2,1.1c-0.6-0.2-1.6-0.4-2.4-0.4
						c-1.7,0-2.8,0.7-2.8,2.1c0,2.1,2.5,2.2,4,3C325.6,859.1,326.6,859.8,326.6,861.6"/>
				</g>
				<g transform="matrix(0.017777777777777778,0,0,0.017777777777777778,9.617777777777778,0)">
					<path id="Z_1_" class="st1" d="M333,865.4c-2.8,0-4-1.3-4-4.1v-5.2c0.4-0.1,0.8-0.1,1.2,0v5.1c-0.1,2.2,0.8,3.1,3,3.1
						c0.7,0,1.3-0.1,1.9-0.2v-8c0.4-0.1,0.8-0.1,1.2,0v8.8C335.3,865.2,334.2,865.4,333,865.4"/>
				</g>
				<g transform="matrix(0.017777777777777778,0,0,0.017777777777777778,19.84,0)">
					<path id="F_3_" class="st1" d="M340.1,863.3c0,0.8,0.7,0.9,1.5,0.9c1.6,0.1,3.8-0.1,4.5,0.7c0.7,0.7,0.9,2,0.3,2.9
						c-0.8,1.2-2.4,1.8-4.4,1.8c-2,0-3.6-0.4-3.6-2.4c0-1,0.7-1.9,1.4-2.2c-0.4-0.3-0.8-0.7-0.8-1.4c0-1,0.6-1.5,1.2-2
						c-0.8-0.5-1.4-1.4-1.4-2.6c0.1-2.1,1.4-3.1,3.5-3.2c1,0,1.7,0.3,2.3,0.7c0.6-0.3,1.5-0.4,2.3-0.5c0.1,0.3,0.1,0.9,0,1.2h-1.7
						c0.3,0.5,0.5,1,0.5,1.8c0,2.5-2.3,3.6-4.8,3C340.5,862.4,340.1,862.7,340.1,863.3z M342.1,868.6c1.8,0,3.4-0.6,3.5-1.9
						c0.1-1.7-2.5-1.2-4.2-1.3c-1.1-0.1-1.9,0.7-1.8,1.8C339.6,868.4,340.8,868.6,342.1,868.6z M342.4,856.9c-1.4,0-2.2,0.9-2.2,2.2
						s0.8,2.2,2.2,2.2s2.3-0.9,2.3-2.2S343.8,856.9,342.4,856.9"/>
				</g>
				<g transform="matrix(0.017777777777777778,0,0,0.017777777777777778,29.36888888888889,0)">
					<path id="F_4_" class="st1" d="M349.7,863.3c0,0.8,0.7,0.9,1.5,0.9c1.6,0.1,3.8-0.1,4.5,0.7c0.7,0.7,0.9,2,0.3,2.9
						c-0.8,1.2-2.4,1.8-4.4,1.8c-2,0-3.6-0.4-3.6-2.4c0-1,0.7-1.9,1.4-2.2c-0.4-0.3-0.8-0.7-0.8-1.4c0-1,0.6-1.5,1.2-2
						c-0.8-0.5-1.4-1.4-1.4-2.6c0.1-2.1,1.4-3.1,3.5-3.2c1,0,1.7,0.3,2.3,0.7c0.6-0.3,1.5-0.4,2.3-0.5c0.1,0.3,0.1,0.9,0,1.2h-1.7
						c0.3,0.5,0.5,1,0.5,1.8c0,2.5-2.3,3.6-4.8,3C350,862.4,349.7,862.7,349.7,863.3z M351.6,868.6c1.8,0,3.4-0.6,3.5-1.9
						c0.1-1.7-2.5-1.2-4.2-1.3c-1.1-0.1-1.9,0.7-1.8,1.8C349.2,868.4,350.4,868.6,351.6,868.6z M351.9,856.9c-1.4,0-2.2,0.9-2.2,2.2
						s0.8,2.2,2.2,2.2s2.3-0.9,2.3-2.2S353.3,856.9,351.9,856.9"/>
				</g>
				<g transform="matrix(0.017777777777777778,0,0,0.017777777777777778,38.897777777777776,0)">
					<path id="N_14_" class="st1" d="M361.9,855.9c2.7,0,3.9,2,3.7,4.9h-6.5c0,2.4,1,3.5,3.3,3.5c0.9,0,1.7-0.2,2.4-0.4
						c0.1,0.2,0.2,0.7,0.2,1c-0.7,0.3-1.7,0.5-2.7,0.5c-3,0-4.5-1.7-4.5-4.7C357.9,857.9,359.1,855.9,361.9,855.9z M364.4,859.9
						c-0.1-1.7-0.8-2.9-2.5-2.9c-1.8,0-2.6,1.2-2.8,2.9H364.4"/>
				</g>
				<g transform="matrix(0.017777777777777778,0,0,0.017777777777777778,48.72888888888889,0)">
					<path id="O_8_" class="st1" d="M373.7,862.6c0,2.8-3.6,3.3-6.1,2.4c0.1-0.4,0.2-0.7,0.3-1.1c1.7,0.9,5.6,0.3,4.3-2
						c-0.9-1.7-4.3-0.8-4.4-3.6c-0.1-2.5,3.4-2.9,5.6-2c-0.1,0.3-0.1,0.7-0.2,1c-1.4-0.6-4.9-0.7-4,1.6c0.7,1,2.6,1,3.6,1.8
						C373.3,861.1,373.7,861.7,373.7,862.6"/>
				</g>
				<g transform="matrix(0.017777777777777778,0,0,0.017777777777777778,56.76444444444444,0)">
					<path id="P_7_" class="st1" d="M380.4,865.2c-1.8,0.5-3.8,0-3.8-2.1v-6h-1.5c-0.1-0.3-0.1-0.7,0-1h1.5v-1.7l1.1-1.1h0.1v2.8
						h2.5c0.1,0.3,0.1,0.7,0,1h-2.5v5.9c-0.2,1.4,1.3,1.5,2.4,1.2C380.3,864.5,380.4,864.9,380.4,865.2"/>
				</g>
				<g transform="matrix(0.017777777777777778,0,0,0.017777777777777778,62.7911111111111,0)">
					<path id="N_15_" class="st1" d="M385.8,855.9c2.7,0,3.9,2,3.7,4.9H383c0,2.4,1,3.5,3.3,3.5c0.9,0,1.7-0.2,2.4-0.4
						c0.1,0.2,0.2,0.7,0.2,1c-0.7,0.3-1.7,0.5-2.7,0.5c-3,0-4.5-1.7-4.5-4.7C381.7,857.9,383,855.9,385.8,855.9z M388.3,859.9
						c-0.1-1.7-0.8-2.9-2.5-2.9c-1.8,0-2.6,1.2-2.8,2.9H388.3"/>
				</g>
				<g transform="matrix(0.017777777777777778,0,0,0.017777777777777778,72.62222222222222,0)">
					<path id="U_6_" class="st1" d="M396.1,855.9c0.7,0,1.6,0.1,2.1,0.3v-4.1c0.4-0.1,0.8-0.1,1.2,0V865c-0.8,0.2-2,0.4-3.1,0.4
						c-3,0-4.7-1.5-4.7-4.6C391.6,857.9,393.1,856,396.1,855.9z M396.2,864.4c0.7,0,1.5-0.1,2-0.2v-6.8c-0.5-0.2-1.3-0.4-2-0.4
						c-2.3,0.1-3.3,1.5-3.3,3.9C392.8,863.2,394,864.3,396.2,864.4"/>
				</g>
			</g>
		</g>
	</g>
	<g>
		<path class="st0" d="M837.8,579.5h160v80h-160V579.5z"/>
		<g transform="matrix(1,0,0,1,842.8285123966944,584.5) translate(37.204444444444455 41.715)">
			<g id="v">
				<g transform="matrix(0.017777777777777778,0,0,0.017777777777777778,0,0)">
					<path id="ab_1_" class="st1" d="M894.4,626.2c-0.4,0.1-0.9,0.1-1.3,0L892,623h-5.3l-1,3.3c-0.4,0.1-0.9,0.1-1.3,0l4.3-12.8
						c0.4-0.1,1-0.1,1.5,0L894.4,626.2z M891.6,621.8l-2.3-7.1l-2.3,7.1H891.6"/>
				</g>
				<g transform="matrix(0.017777777777777778,0,0,0.017777777777777778,10.702222222222222,0)">
					<path id="ah" class="st1" d="M900.4,625.4c0.7,0,1.4-0.1,1.9-0.3c0.1,0.2,0.2,0.7,0.3,1c-0.6,0.2-1.4,0.4-2.3,0.4
						c-3,0-4.6-1.7-4.5-4.7c0.1-2.9,1.5-4.7,4.4-4.7c0.8,0,1.7,0.1,2.3,0.3c0,0.3-0.1,0.8-0.2,1c-0.5-0.2-1.3-0.3-2.1-0.3
						c-2.2,0.1-3.1,1.5-3.2,3.7C897,624.1,898.2,625.4,900.4,625.4"/>
				</g>
				<g transform="matrix(0.017777777777777778,0,0,0.017777777777777778,19.235555555555557,0)">
					<path id="ah_1_" class="st1" d="M908.9,625.4c0.7,0,1.4-0.1,1.9-0.3c0.1,0.2,0.2,0.7,0.3,1c-0.6,0.2-1.4,0.4-2.3,0.4
						c-3,0-4.6-1.7-4.5-4.7c0.1-2.9,1.5-4.7,4.4-4.7c0.8,0,1.7,0.1,2.3,0.3c0,0.3-0.1,0.8-0.2,1c-0.5-0.2-1.3-0.3-2.1-0.3
						c-2.2,0.1-3.1,1.5-3.2,3.7C905.5,624.1,906.7,625.4,908.9,625.4"/>
				</g>
				<g transform="matrix(0.017777777777777778,0,0,0.017777777777777778,27.76888888888889,0)">
					<path id="E_7_" class="st1" d="M914.1,621.7c0,2.1,0.8,3.7,2.8,3.7s2.8-1.6,2.8-3.7s-0.8-3.7-2.8-3.7S914.1,619.6,914.1,621.7z
						 M921,621.7c0,2.8-1.3,4.7-4.1,4.7c-2.8,0-4.1-1.9-4.1-4.7s1.3-4.7,4.1-4.7C919.7,616.9,921,618.9,921,621.7"/>
				</g>
				<g transform="matrix(0.017777777777777778,0,0,0.017777777777777778,37.97333333333332,0)">
					<path id="Z_2_" class="st1" d="M927.5,626.4c-2.8,0-4-1.3-4-4.1v-5.2c0.4-0.1,0.8-0.1,1.2,0v5.1c-0.1,2.2,0.8,3.1,3,3.1
						c0.7,0,1.3-0.1,1.9-0.2v-8c0.4-0.1,0.8-0.1,1.2,0v8.8C929.8,626.2,928.7,626.4,927.5,626.4"/>
				</g>
				<g transform="matrix(0.017777777777777778,0,0,0.017777777777777778,48.19555555555555,0)">
					<path id="H_5_" class="st1" d="M935,626.2c-0.4,0.1-0.8,0.1-1.2,0v-9.1c0.3-0.1,0.7-0.1,1.1,0c0.1,0.4,0.1,1.2,0.1,1.6
						c0.6-1,1.5-1.8,3.1-1.8c2.2,0,3,1.4,3,3.6v5.7c-0.4,0.1-0.8,0.1-1.2,0v-5.4c0-1.7-0.4-2.8-1.9-2.8c-2.1,0-3,1.6-3,3.7V626.2"/>
				</g>
				<g transform="matrix(0.017777777777777778,0,0,0.017777777777777778,58.36444444444444,0)">
					<path id="P_8_" class="st1" d="M948.1,626.2c-1.8,0.5-3.8,0-3.8-2.1v-6h-1.5c-0.1-0.3-0.1-0.7,0-1h1.5v-1.7l1.1-1.1h0.1v2.8
						h2.5c0.1,0.3,0.1,0.7,0,1h-2.5v5.9c-0.2,1.4,1.3,1.5,2.4,1.2C948.1,625.5,948.1,625.9,948.1,626.2"/>
				</g>
			</g>
		</g>
	</g>
	<g>
		<path class="st0" d="M960,818.5h160v80H960V818.5z"/>
		<g transform="matrix(1,0,0,1,965,823.5) translate(16.004444444444445 41.715)">
			<g id="k_1_">
				<g transform="matrix(0.017777777777777778,0,0,0.017777777777777778,0,0)">
					<path id="Y_2_" class="st1" d="M996.7,858.8c0,3.8-1.5,6.6-5.3,6.6s-5.3-2.8-5.3-6.6c0-3.8,1.5-6.6,5.3-6.6
						S996.7,855,996.7,858.8z M987.4,858.8c0,3.1,1,5.5,4,5.5c3,0,4-2.4,4-5.5s-1-5.5-4-5.5C988.4,853.3,987.4,855.7,987.4,858.8"/>
				</g>
				<g transform="matrix(0.017777777777777778,0,0,0.017777777777777778,12.835555555555555,0)">
					<path id="T_11_" class="st1" d="M1000.6,865.2c-0.4,0.1-0.8,0.1-1.2,0v-9.1c0.3-0.1,0.7-0.1,1.1,0c0.1,0.4,0.1,1.1,0.1,1.5
						c0.5-1,1.5-1.7,3.1-1.5c0.1,0.4,0.1,0.7,0,1.1c-2.1-0.1-3.1,1-3.1,3.3V865.2"/>
				</g>
				<g transform="matrix(0.017777777777777778,0,0,0.017777777777777778,19.057777777777776,0)">
					<path id="U_7_" class="st1" d="M1009.6,855.9c0.7,0,1.6,0.1,2.1,0.3v-4.1c0.4-0.1,0.8-0.1,1.2,0V865c-0.8,0.2-2,0.4-3.1,0.4
						c-3,0-4.7-1.5-4.7-4.6C1005.2,857.9,1006.7,856,1009.6,855.9z M1009.8,864.4c0.7,0,1.5-0.1,2-0.2v-6.8c-0.5-0.2-1.3-0.4-2-0.4
						c-2.3,0.1-3.3,1.5-3.3,3.9C1006.4,863.2,1007.5,864.3,1009.8,864.4"/>
				</g>
				<g transform="matrix(0.017777777777777778,0,0,0.017777777777777778,29.45777777777778,0)">
					<path id="N_16_" class="st1" d="M1019.6,855.9c2.7,0,3.9,2,3.7,4.9h-6.5c0,2.4,1,3.5,3.3,3.5c0.9,0,1.7-0.2,2.4-0.4
						c0.1,0.2,0.2,0.7,0.2,1c-0.7,0.3-1.7,0.5-2.7,0.5c-3,0-4.5-1.7-4.5-4.7C1015.5,857.9,1016.7,855.9,1019.6,855.9z M1022.1,859.9
						c-0.1-1.7-0.8-2.9-2.5-2.9c-1.8,0-2.6,1.2-2.8,2.9H1022.1"/>
				</g>
				<g transform="matrix(0.017777777777777778,0,0,0.017777777777777778,39.28888888888889,0)">
					<path id="T_12_" class="st1" d="M1027,865.2c-0.4,0.1-0.8,0.1-1.2,0v-9.1c0.3-0.1,0.7-0.1,1.1,0c0.1,0.4,0.1,1.1,0.1,1.5
						c0.5-1,1.5-1.7,3.1-1.5c0.1,0.4,0.1,0.7,0,1.1c-2.1-0.1-3.1,1-3.1,3.3V865.2"/>
				</g>
			</g>
		</g>
		<g transform="matrix(1,0,0,1,965,823.5) translate(65.96000000000001 41.715)">
			<g id="w">
				<g transform="matrix(0.017777777777777778,0,0,0.017777777777777778,0,0)">
					<path id="V_1_" class="st1" d="M1038,865.2c-0.4,0.1-0.9,0.1-1.2,0v-12.8c0.4-0.1,0.9-0.1,1.2,0v5.4h6.3v-5.4
						c0.4-0.1,0.9-0.1,1.2,0v12.8c-0.4,0.1-0.9,0.1-1.2,0V859h-6.3V865.2"/>
				</g>
				<g transform="matrix(0.017777777777777778,0,0,0.017777777777777778,12.337777777777777,0)">
					<path id="J_4_" class="st1" d="M1050.6,865.2c-0.4,0.1-0.8,0.1-1.2,0v-8.1h-1.1c-0.1-0.3-0.1-0.7,0-1h2.3V865.2z M1050.3,853.9
						c-0.4,0.1-1,0-1.5,0c0-0.5-0.1-1,0-1.5c0.5,0,1-0.1,1.5,0C1050.4,852.9,1050.4,853.5,1050.3,853.9"/>
				</g>
				<g transform="matrix(0.017777777777777778,0,0,0.017777777777777778,17.191111111111113,0)">
					<path id="O_9_" class="st1" d="M1059.2,862.6c0,2.8-3.6,3.3-6.1,2.4c0.1-0.4,0.2-0.7,0.3-1.1c1.7,0.9,5.6,0.3,4.3-2
						c-0.9-1.7-4.3-0.8-4.4-3.6c-0.1-2.5,3.4-2.9,5.6-2c-0.1,0.3-0.1,0.7-0.2,1c-1.4-0.6-4.9-0.7-4,1.6c0.7,1,2.6,1,3.6,1.8
						C1058.8,861.1,1059.2,861.7,1059.2,862.6"/>
				</g>
				<g transform="matrix(0.017777777777777778,0,0,0.017777777777777778,25.226666666666667,0)">
					<path id="P_9_" class="st1" d="M1065.9,865.2c-1.8,0.5-3.8,0-3.8-2.1v-6h-1.5c-0.1-0.3-0.1-0.7,0-1h1.5v-1.7l1.1-1.1h0.1v2.8
						h2.5c0.1,0.3,0.1,0.7,0,1h-2.5v5.9c-0.2,1.4,1.3,1.5,2.4,1.2C1065.8,864.5,1065.9,864.9,1065.9,865.2"/>
				</g>
				<g transform="matrix(0.017777777777777778,0,0,0.017777777777777778,31.253333333333334,0)">
					<path id="E_8_" class="st1" d="M1068.5,860.7c0,2.1,0.8,3.7,2.8,3.7c2,0,2.8-1.6,2.8-3.7s-0.8-3.7-2.8-3.7
						C1069.3,857,1068.5,858.6,1068.5,860.7z M1075.4,860.7c0,2.8-1.3,4.7-4.1,4.7s-4.1-1.9-4.1-4.7s1.3-4.7,4.1-4.7
						S1075.4,857.9,1075.4,860.7"/>
				</g>
				<g transform="matrix(0.017777777777777778,0,0,0.017777777777777778,41.45777777777778,0)">
					<path id="T_13_" class="st1" d="M1079.2,865.2c-0.4,0.1-0.8,0.1-1.2,0v-9.1c0.3-0.1,0.7-0.1,1.1,0c0.1,0.4,0.1,1.1,0.1,1.5
						c0.5-1,1.5-1.7,3.1-1.5c0.1,0.4,0.1,0.7,0,1.1c-2.1-0.1-3.1,1-3.1,3.3V865.2"/>
				</g>
				<g transform="matrix(0.017777777777777778,0,0,0.017777777777777778,47.68,0)">
					<path id="aa_2_" class="st1" d="M1084,868.5c0.5,0.2,1.5,0.3,1.9-0.1c0.7-0.7,0.9-2.2,1.3-3.1c-0.3,0-0.7,0-1,0l-3.3-9.1
						c0.4-0.1,1-0.1,1.4,0l3,8.8l3-8.8c0.4-0.1,0.9-0.1,1.2,0l-4,11.8c-0.4,1.1-1,1.7-2.3,1.8c-0.5,0-1-0.1-1.4-0.2
						C1083.8,869.1,1083.9,868.8,1084,868.5"/>
				</g>
			</g>
		</g>
	</g>
	<g>
		<path class="st0" d="M960,938.5h160v80H960V938.5z"/>
		<g transform="matrix(1,0,0,1,965,943.5) translate(33.16000000000001 41.715)">
			<g id="x">
				<g transform="matrix(0.017777777777777778,0,0,0.017777777777777778,0,0)">
					<path id="ai" class="st1" d="M1005.2,985.2c-0.4,0.1-0.9,0.1-1.2,0v-12.8h6.3c0.1,0.3,0.1,0.8,0,1.1h-5v4.3h4.4
						c0.1,0.3,0.1,0.8,0,1.1h-4.4V985.2"/>
				</g>
				<g transform="matrix(0.017777777777777778,0,0,0.017777777777777778,8.924444444444445,0)">
					<path id="R_5_" class="st1" d="M1013.2,982.6c0,2.1,2.7,1.9,4.4,1.6v-3.4C1015.7,980.5,1013.2,980.6,1013.2,982.6z
						 M1012.1,982.6c0-2.7,2.8-3.3,5.6-2.9c0.1-1.8-0.5-2.8-2.2-2.8c-0.9,0-1.7,0.1-2.3,0.3c-0.1-0.2-0.2-0.7-0.2-1
						c0.6-0.2,1.7-0.3,2.5-0.3c2.3,0,3.4,0.9,3.4,3.1v6c-0.8,0.2-2.2,0.4-3.2,0.4C1013.5,985.4,1012.1,984.7,1012.1,982.6"/>
				</g>
				<g transform="matrix(0.017777777777777778,0,0,0.017777777777777778,18.044444444444444,0)">
					<path id="aj" class="st1" d="M1020.7,976.1c0.4-0.1,1-0.1,1.4,0l2.9,7.8l2.9-7.8c0.4-0.1,0.9-0.1,1.2,0l-3.6,9.1
						c-0.4,0.1-0.7,0.1-1.1,0"/>
				</g>
				<g transform="matrix(0.017777777777777778,0,0,0.017777777777777778,27.306666666666665,0)">
					<path id="E_9_" class="st1" d="M1031.7,980.7c0,2.1,0.8,3.7,2.8,3.7c2,0,2.8-1.6,2.8-3.7s-0.8-3.7-2.8-3.7
						C1032.5,977,1031.7,978.6,1031.7,980.7z M1038.6,980.7c0,2.8-1.3,4.7-4.1,4.7s-4.1-1.9-4.1-4.7s1.3-4.7,4.1-4.7
						S1038.6,977.9,1038.6,980.7"/>
				</g>
				<g transform="matrix(0.017777777777777778,0,0,0.017777777777777778,37.511111111111106,0)">
					<path id="T_14_" class="st1" d="M1042.4,985.2c-0.4,0.1-0.8,0.1-1.2,0v-9.1c0.3-0.1,0.7-0.1,1.1,0c0.1,0.4,0.1,1.1,0.1,1.5
						c0.5-1,1.5-1.7,3.1-1.5c0.1,0.4,0.1,0.7,0,1.1c-2.1-0.1-3.1,1-3.1,3.3V985.2"/>
				</g>
				<g transform="matrix(0.017777777777777778,0,0,0.017777777777777778,43.73333333333333,0)">
					<path id="J_5_" class="st1" d="M1049.2,985.2c-0.4,0.1-0.8,0.1-1.2,0v-8.1h-1.1c-0.1-0.3-0.1-0.7,0-1h2.3V985.2z M1048.9,973.9
						c-0.4,0.1-1,0-1.5,0c0-0.5-0.1-1,0-1.5c0.5,0,1-0.1,1.5,0C1049,972.9,1049,973.5,1048.9,973.9"/>
				</g>
				<g transform="matrix(0.017777777777777778,0,0,0.017777777777777778,48.58666666666666,0)">
					<path id="P_10_" class="st1" d="M1056.5,985.2c-1.8,0.5-3.8,0-3.8-2.1v-6h-1.5c-0.1-0.3-0.1-0.7,0-1h1.5v-1.7l1.1-1.1h0.1v2.8
						h2.5c0.1,0.3,0.1,0.7,0,1h-2.5v5.9c-0.2,1.4,1.3,1.5,2.4,1.2C1056.4,984.5,1056.5,984.9,1056.5,985.2"/>
				</g>
				<g transform="matrix(0.017777777777777778,0,0,0.017777777777777778,54.61333333333332,0)">
					<path id="N_17_" class="st1" d="M1061.9,975.9c2.7,0,3.9,2,3.7,4.9h-6.5c0,2.4,1,3.5,3.3,3.5c0.9,0,1.7-0.2,2.4-0.4
						c0.1,0.2,0.2,0.7,0.2,1c-0.7,0.3-1.7,0.5-2.7,0.5c-3,0-4.5-1.7-4.5-4.7C1057.8,977.9,1059,975.9,1061.9,975.9z M1064.4,979.9
						c-0.1-1.7-0.8-2.9-2.5-2.9c-1.8,0-2.6,1.2-2.8,2.9H1064.4"/>
				</g>
				<g transform="matrix(0.017777777777777778,0,0,0.017777777777777778,64.44444444444443,0)">
					<path id="O_10_" class="st1" d="M1073.7,982.6c0,2.8-3.6,3.3-6.1,2.4c0.1-0.4,0.2-0.7,0.3-1.1c1.7,0.9,5.6,0.3,4.3-2
						c-0.9-1.7-4.3-0.8-4.4-3.6c-0.1-2.5,3.4-2.9,5.6-2c-0.1,0.3-0.1,0.7-0.2,1c-1.4-0.6-4.9-0.7-4,1.6c0.7,1,2.6,1,3.6,1.8
						C1073.3,981.1,1073.7,981.7,1073.7,982.6"/>
				</g>
			</g>
		</g>
	</g>
	<path class="st0" d="M478,340h-38.5"/>
	<path class="st2" d="M479,341h-1v-2h1V341z"/>
	<path class="st3" d="M424.2,340l14.3-4.6v9.3L424.2,340z"/>
	<path class="st0" d="M560,382v28h115.7v10.5"/>
	<path class="st2" d="M561,382h-2v-1h2V382z"/>
	<path class="st3" d="M675.7,435.8l-4.6-14.3h9.3L675.7,435.8z"/>
	<path class="st0" d="M800,382v28H675.7v10.5"/>
	<path class="st2" d="M801,382h-2v-1h2V382z"/>
	<path class="st3" d="M675.7,435.8l-4.6-14.3h9.3L675.7,435.8z"/>
	<path class="st0" d="M675.7,522v38"/>
	<path class="st2" d="M676.7,522h-2v-1h2V522z"/>
	<path class="st3" d="M675.7,575.3L671,561h9.3L675.7,575.3z"/>
	<path class="st0" d="M675.7,522v27.8h242.2V560"/>
	<path class="st2" d="M676.7,522h-2v-1h2V522z"/>
	<path class="st3" d="M917.8,575.3l-4.6-14.3h9.3L917.8,575.3z"/>
	<path class="st0" d="M917.8,661.5v197h22.7"/>
	<path class="st2" d="M918.8,661.5h-2v-1h2V661.5z"/>
	<path class="st3" d="M955.8,858.5l-14.3,4.6v-9.3L955.8,858.5z"/>
	<path class="st0" d="M917.8,661.5v317h22.7"/>
	<path class="st2" d="M918.8,661.5h-2v-1h2V661.5z"/>
	<path class="st3" d="M955.8,978.5l-14.3,4.6v-9.3L955.8,978.5z"/>
	<g>
		<path class="st0" d="M353.5,699h160v80h-160V699z"/>
		<g transform="matrix(1,0,0,1,358.4855371900825,704) translate(8.82222222222223 42.0275)">
			<g id="y">
				<g transform="matrix(0.017777777777777778,0,0,0.017777777777777778,0,0)">
					<path id="Q_2_" class="st1" d="M380.2,736.9c0-2.6-2.3-3-4.8-2.7v5.6C378,740.2,380.2,739.6,380.2,736.9z M375.3,746
						c-0.4,0.1-0.9,0.1-1.2,0v-12.8c0.8-0.1,1.8-0.2,2.7-0.2c2.8,0,4.6,1.1,4.7,3.9c0,3.4-2.6,4.5-6.1,4.1V746"/>
				</g>
				<g transform="matrix(0.017777777777777778,0,0,0.017777777777777778,9.848888888888888,0)">
					<path id="T_15_" class="st1" d="M384.9,746c-0.4,0.1-0.8,0.1-1.2,0V737c0.3-0.1,0.7-0.1,1.1,0c0.1,0.4,0.1,1.1,0.1,1.5
						c0.5-1,1.5-1.7,3.1-1.5c0.1,0.4,0.1,0.7,0,1.1c-2.1-0.1-3.1,1-3.1,3.3V746"/>
				</g>
				<g transform="matrix(0.017777777777777778,0,0,0.017777777777777778,16.07111111111111,0)">
					<path id="E_10_" class="st1" d="M390.7,741.5c0,2.1,0.8,3.7,2.8,3.7s2.8-1.6,2.8-3.7s-0.8-3.7-2.8-3.7S390.7,739.4,390.7,741.5
						z M397.5,741.5c0,2.8-1.3,4.7-4.1,4.7s-4.1-1.9-4.1-4.7s1.3-4.7,4.1-4.7S397.5,738.7,397.5,741.5"/>
				</g>
				<g transform="matrix(0.017777777777777778,0,0,0.017777777777777778,26.275555555555556,0)">
					<path id="U_8_" class="st1" d="M404.1,736.7c0.7,0,1.6,0.1,2.1,0.3V733c0.4-0.1,0.8-0.1,1.2,0v12.9c-0.8,0.2-2,0.4-3.1,0.4
						c-3,0-4.7-1.5-4.7-4.6C399.7,738.7,401.2,736.9,404.1,736.7z M404.3,745.2c0.7,0,1.5-0.1,2-0.2v-6.8c-0.5-0.2-1.3-0.4-2-0.4
						c-2.3,0.1-3.3,1.5-3.3,3.9C400.9,744,402,745.2,404.3,745.2"/>
				</g>
				<g transform="matrix(0.017777777777777778,0,0,0.017777777777777778,36.675555555555555,0)">
					<path id="Z_3_" class="st1" d="M414.5,746.2c-2.8,0-4-1.3-4-4.1V737c0.4-0.1,0.8-0.1,1.2,0v5.1c-0.1,2.2,0.8,3.1,3,3.1
						c0.7,0,1.3-0.1,1.9-0.2v-8c0.4-0.1,0.8-0.1,1.2,0v8.8C416.8,746,415.6,746.2,414.5,746.2"/>
				</g>
				<g transform="matrix(0.017777777777777778,0,0,0.017777777777777778,46.897777777777776,0)">
					<path id="ah_2_" class="st1" d="M424.9,745.2c0.7,0,1.4-0.1,1.9-0.3c0.1,0.2,0.2,0.7,0.3,1c-0.6,0.2-1.4,0.4-2.3,0.4
						c-3,0-4.6-1.7-4.5-4.7c0.1-2.9,1.5-4.7,4.4-4.7c0.8,0,1.7,0.1,2.3,0.3c0,0.3-0.1,0.8-0.2,1c-0.5-0.2-1.3-0.3-2.1-0.3
						c-2.2,0.1-3.1,1.5-3.2,3.7C421.4,743.9,422.7,745.2,424.9,745.2"/>
				</g>
				<g transform="matrix(0.017777777777777778,0,0,0.017777777777777778,55.431111111111115,0)">
					<path id="P_11_" class="st1" d="M433.5,746c-1.8,0.5-3.8,0-3.8-2.1v-6h-1.5c-0.1-0.3-0.1-0.7,0-1h1.5v-1.7l1.1-1.1h0.1v2.8h2.5
						c0.1,0.3,0.1,0.7,0,1h-2.5v5.9c-0.2,1.4,1.3,1.5,2.4,1.2C433.4,745.3,433.4,745.7,433.5,746"/>
				</g>
			</g>
		</g>
		<g transform="matrix(1,0,0,1,358.4855371900825,704) translate(74.72444444444446 42.0275)">
			<g id="z">
				<g transform="matrix(0.017777777777777778,0,0,0.017777777777777778,0,0)">
					<path id="ak" class="st1" d="M443,746.2c-1,0-2.1-0.1-3-0.2v-12.8c0.9-0.1,2-0.2,3-0.2c4.3,0,6.5,2.3,6.5,6.6
						C449.5,744,447.3,746.2,443,746.2z M448.2,739.6c0-4.2-2.8-5.8-7-5.2V745c0.5,0.1,1.1,0.1,1.7,0.1
						C446.5,745.1,448.2,743.3,448.2,739.6"/>
				</g>
				<g transform="matrix(0.017777777777777778,0,0,0.017777777777777778,12.426666666666666,0)">
					<path id="N_18_" class="st1" d="M455.8,736.7c2.7,0,3.9,2,3.7,4.9h-6.5c0,2.4,1,3.5,3.3,3.5c0.9,0,1.7-0.2,2.4-0.4
						c0.1,0.2,0.2,0.7,0.2,1c-0.7,0.3-1.7,0.5-2.7,0.5c-3,0-4.5-1.7-4.5-4.7C451.7,738.7,452.9,736.7,455.8,736.7z M458.3,740.7
						c-0.1-1.7-0.8-2.9-2.5-2.9c-1.8,0-2.6,1.2-2.8,2.9H458.3"/>
				</g>
				<g transform="matrix(0.017777777777777778,0,0,0.017777777777777778,22.257777777777775,0)">
					<path id="P_12_" class="st1" d="M466.2,746c-1.8,0.5-3.8,0-3.8-2.1v-6h-1.5c-0.1-0.3-0.1-0.7,0-1h1.5v-1.7l1.1-1.1h0.1v2.8h2.5
						c0.1,0.3,0.1,0.7,0,1h-2.5v5.9c-0.2,1.4,1.3,1.5,2.4,1.2C466.1,745.3,466.2,745.7,466.2,746"/>
				</g>
				<g transform="matrix(0.017777777777777778,0,0,0.017777777777777778,28.284444444444443,0)">
					<path id="R_6_" class="st1" d="M468.6,743.4c0,2.1,2.7,1.9,4.4,1.6v-3.4C471.1,741.3,468.6,741.5,468.6,743.4z M467.5,743.4
						c0-2.7,2.8-3.3,5.6-2.9c0.1-1.8-0.5-2.8-2.2-2.8c-0.9,0-1.7,0.1-2.3,0.3c-0.1-0.2-0.2-0.7-0.2-1c0.6-0.2,1.7-0.3,2.5-0.3
						c2.3,0,3.4,0.9,3.4,3.1v6c-0.8,0.2-2.2,0.4-3.2,0.4C468.9,746.2,467.5,745.5,467.5,743.4"/>
				</g>
				<g transform="matrix(0.017777777777777778,0,0,0.017777777777777778,37.404444444444444,0)">
					<path id="J_6_" class="st1" d="M478.9,746c-0.4,0.1-0.8,0.1-1.2,0V738h-1.1c-0.1-0.3-0.1-0.7,0-1h2.3V746z M478.6,734.7
						c-0.4,0.1-1,0-1.5,0c0-0.5-0.1-1,0-1.5c0.5,0,1-0.1,1.5,0C478.7,733.7,478.7,734.3,478.6,734.7"/>
				</g>
				<g transform="matrix(0.017777777777777778,0,0,0.017777777777777778,42.257777777777775,0)">
					<path id="ag_2_" class="st1" d="M485.2,746c-1.6,0.4-3.2,0-3.2-1.8V733c0.4-0.1,0.8-0.1,1.2,0v11c-0.1,1.2,0.8,1.4,1.8,1.2
						C485.2,745.4,485.2,745.7,485.2,746"/>
				</g>
				<g transform="matrix(0.017777777777777778,0,0,0.017777777777777778,47.217777777777776,0)">
					<path id="O_11_" class="st1" d="M492.5,743.4c0,2.8-3.6,3.3-6.1,2.4c0.1-0.4,0.2-0.7,0.3-1.1c1.7,0.9,5.6,0.3,4.3-2
						c-0.9-1.7-4.3-0.8-4.4-3.6c-0.1-2.5,3.4-2.9,5.6-2c-0.1,0.3-0.1,0.7-0.2,1c-1.4-0.6-4.9-0.7-4,1.6c0.7,1,2.6,1,3.6,1.8
						C492.1,741.9,492.5,742.5,492.5,743.4"/>
				</g>
			</g>
		</g>
	</g>
	<g>
		<path class="st0" d="M353.5,579.5h160v80h-160V579.5z"/>
		<g transform="matrix(1,0,0,1,358.4855371900824,584.5) translate(34.65333333333334 41.715)">
			<g id="A">
				<g transform="matrix(0.017777777777777778,0,0,0.017777777777777778,0,0)">
					<path id="Q_3_" class="st1" d="M405,617.1c0-2.6-2.3-3-4.8-2.7v5.6C402.8,620.4,405,619.8,405,617.1z M400.2,626.2
						c-0.4,0.1-0.9,0.1-1.2,0v-12.8c0.8-0.1,1.8-0.2,2.7-0.2c2.8,0,4.6,1.1,4.7,3.9c0,3.4-2.6,4.5-6.1,4.1V626.2"/>
				</g>
				<g transform="matrix(0.017777777777777778,0,0,0.017777777777777778,9.848888888888888,0)">
					<path id="T_16_" class="st1" d="M409.7,626.2c-0.4,0.1-0.8,0.1-1.2,0v-9.1c0.3-0.1,0.7-0.1,1.1,0c0.1,0.4,0.1,1.1,0.1,1.5
						c0.5-1,1.5-1.7,3.1-1.5c0.1,0.4,0.1,0.7,0,1.1c-2.1-0.1-3.1,1-3.1,3.3V626.2"/>
				</g>
				<g transform="matrix(0.017777777777777778,0,0,0.017777777777777778,16.07111111111111,0)">
					<path id="E_11_" class="st1" d="M415.5,621.7c0,2.1,0.8,3.7,2.8,3.7s2.8-1.6,2.8-3.7s-0.8-3.7-2.8-3.7S415.5,619.6,415.5,621.7
						z M422.4,621.7c0,2.8-1.3,4.7-4.1,4.7s-4.1-1.9-4.1-4.7s1.3-4.7,4.1-4.7S422.4,618.9,422.4,621.7"/>
				</g>
				<g transform="matrix(0.017777777777777778,0,0,0.017777777777777778,26.275555555555556,0)">
					<path id="U_9_" class="st1" d="M429,616.9c0.7,0,1.6,0.1,2.1,0.3v-4.1c0.4-0.1,0.8-0.1,1.2,0V626c-0.8,0.2-2,0.4-3.1,0.4
						c-3,0-4.7-1.5-4.7-4.6C424.5,618.9,426,617,429,616.9z M429.1,625.4c0.7,0,1.5-0.1,2-0.2v-6.8c-0.5-0.2-1.3-0.4-2-0.4
						c-2.3,0.1-3.3,1.5-3.3,3.9C425.7,624.2,426.9,625.3,429.1,625.4"/>
				</g>
				<g transform="matrix(0.017777777777777778,0,0,0.017777777777777778,36.675555555555555,0)">
					<path id="Z_4_" class="st1" d="M439.3,626.4c-2.8,0-4-1.3-4-4.1v-5.2c0.4-0.1,0.8-0.1,1.2,0v5.1c-0.1,2.2,0.8,3.1,3,3.1
						c0.7,0,1.3-0.1,1.9-0.2v-8c0.4-0.1,0.8-0.1,1.2,0v8.8C441.6,626.2,440.5,626.4,439.3,626.4"/>
				</g>
				<g transform="matrix(0.017777777777777778,0,0,0.017777777777777778,46.897777777777776,0)">
					<path id="ah_3_" class="st1" d="M449.7,625.4c0.7,0,1.4-0.1,1.9-0.3c0.1,0.2,0.2,0.7,0.3,1c-0.6,0.2-1.4,0.4-2.3,0.4
						c-3,0-4.6-1.7-4.5-4.7c0.1-2.9,1.5-4.7,4.4-4.7c0.8,0,1.7,0.1,2.3,0.3c0,0.3-0.1,0.8-0.2,1c-0.5-0.2-1.3-0.3-2.1-0.3
						c-2.2,0.1-3.1,1.5-3.2,3.7C446.3,624.1,447.5,625.4,449.7,625.4"/>
				</g>
				<g transform="matrix(0.017777777777777778,0,0,0.017777777777777778,55.431111111111115,0)">
					<path id="P_13_" class="st1" d="M458.3,626.2c-1.8,0.5-3.8,0-3.8-2.1v-6H453c-0.1-0.3-0.1-0.7,0-1h1.5v-1.7l1.1-1.1h0.1v2.8
						h2.5c0.1,0.3,0.1,0.7,0,1h-2.5v5.9c-0.2,1.4,1.3,1.5,2.4,1.2C458.2,625.5,458.3,625.9,458.3,626.2"/>
				</g>
				<g transform="matrix(0.017777777777777778,0,0,0.017777777777777778,61.45777777777777,0)">
					<path id="O_12_" class="st1" d="M465.7,623.6c0,2.8-3.6,3.3-6.1,2.4c0.1-0.4,0.2-0.7,0.3-1.1c1.7,0.9,5.6,0.3,4.3-2
						c-0.9-1.7-4.3-0.8-4.4-3.6c-0.1-2.5,3.4-2.9,5.6-2c-0.1,0.3-0.1,0.7-0.2,1c-1.4-0.6-4.9-0.7-4,1.6c0.7,1,2.6,1,3.6,1.8
						C465.2,622.1,465.7,622.7,465.7,623.6"/>
				</g>
			</g>
		</g>
	</g>
	<g>
		<path class="st0" d="M960,699h160v80H960V699z"/>
		<g transform="matrix(1,0,0,1,965,704) translate(43.3288888888889 42.0275)">
			<g id="B">
				<g transform="matrix(0.017777777777777778,0,0,0.017777777777777778,0,0)">
					<path id="Q_4_" class="st1" d="M1020.2,736.9c0-2.6-2.3-3-4.8-2.7v5.6C1018,740.2,1020.2,739.6,1020.2,736.9z M1015.4,746
						c-0.4,0.1-0.9,0.1-1.2,0v-12.8c0.8-0.1,1.8-0.2,2.7-0.2c2.8,0,4.6,1.1,4.7,3.9c0,3.4-2.6,4.5-6.1,4.1V746"/>
				</g>
				<g transform="matrix(0.017777777777777778,0,0,0.017777777777777778,9.848888888888888,0)">
					<path id="T_17_" class="st1" d="M1024.9,746c-0.4,0.1-0.8,0.1-1.2,0V737c0.3-0.1,0.7-0.1,1.1,0c0.1,0.4,0.1,1.1,0.1,1.5
						c0.5-1,1.5-1.7,3.1-1.5c0.1,0.4,0.1,0.7,0,1.1c-2.1-0.1-3.1,1-3.1,3.3V746"/>
				</g>
				<g transform="matrix(0.017777777777777778,0,0,0.017777777777777778,16.07111111111111,0)">
					<path id="E_12_" class="st1" d="M1030.7,741.5c0,2.1,0.8,3.7,2.8,3.7c2,0,2.8-1.6,2.8-3.7s-0.8-3.7-2.8-3.7
						C1031.5,737.8,1030.7,739.4,1030.7,741.5z M1037.6,741.5c0,2.8-1.3,4.7-4.1,4.7s-4.1-1.9-4.1-4.7s1.3-4.7,4.1-4.7
						S1037.6,738.7,1037.6,741.5"/>
				</g>
				<g transform="matrix(0.017777777777777778,0,0,0.017777777777777778,26.275555555555556,0)">
					<path id="ae_1_" class="st1" d="M1042,746c-0.4,0.1-0.8,0.1-1.2,0V738h-1.5c-0.1-0.3-0.1-0.7,0-1h1.5c-0.3-3.1,1.2-4.7,4.3-4
						c-0.1,0.4-0.1,0.6-0.2,1c-0.2-0.1-0.7-0.1-1-0.1c-1.8,0-2,1.3-1.9,3.1h2.5c0.1,0.3,0.1,0.7,0,1h-2.5V746"/>
				</g>
				<g transform="matrix(0.017777777777777778,0,0,0.017777777777777778,32.49777777777778,0)">
					<path id="J_7_" class="st1" d="M1048.1,746c-0.4,0.1-0.8,0.1-1.2,0V738h-1.1c-0.1-0.3-0.1-0.7,0-1h2.3V746z M1047.8,734.7
						c-0.4,0.1-1,0-1.5,0c0-0.5-0.1-1,0-1.5c0.5,0,1-0.1,1.5,0C1047.9,733.7,1047.9,734.3,1047.8,734.7"/>
				</g>
				<g transform="matrix(0.017777777777777778,0,0,0.017777777777777778,37.35111111111111,0)">
					<path id="ag_3_" class="st1" d="M1054.4,746c-1.6,0.4-3.2,0-3.2-1.8V733c0.4-0.1,0.8-0.1,1.2,0v11c-0.1,1.2,0.8,1.4,1.8,1.2
						C1054.4,745.4,1054.4,745.7,1054.4,746"/>
				</g>
				<g transform="matrix(0.017777777777777778,0,0,0.017777777777777778,42.31111111111111,0)">
					<path id="N_19_" class="st1" d="M1059.8,736.7c2.7,0,3.9,2,3.7,4.9h-6.5c0,2.4,1,3.5,3.3,3.5c0.9,0,1.7-0.2,2.4-0.4
						c0.1,0.2,0.2,0.7,0.2,1c-0.7,0.3-1.7,0.5-2.7,0.5c-3,0-4.5-1.7-4.5-4.7C1055.7,738.7,1056.9,736.7,1059.8,736.7z M1062.3,740.7
						c-0.1-1.7-0.8-2.9-2.5-2.9c-1.8,0-2.6,1.2-2.8,2.9H1062.3"/>
				</g>
			</g>
		</g>
	</g>
	<path class="st0" d="M917.8,661.5V739h22.7"/>
	<path class="st2" d="M918.8,661.5h-2v-1h2V661.5z"/>
	<path class="st3" d="M955.8,739l-14.3,4.6v-9.3L955.8,739z"/>
	<path class="st0" d="M675.7,522v27.8H433.5V560"/>
	<path class="st2" d="M676.7,522h-2v-1h2V522z"/>
	<path class="st3" d="M433.5,575.3l-4.7-14.3h9.3L433.5,575.3z"/>
	<path class="st0" d="M351.5,619.5H220v60"/>
	<path class="st2" d="M352.5,620.5h-1v-2h1L352.5,620.5z"/>
	<path class="st3" d="M220,694.8l-4.6-14.3h9.3L220,694.8z"/>
	<path class="st0" d="M433.5,661.5v18"/>
	<path class="st2" d="M434.5,661.5h-2v-1h2V661.5z"/>
	<path class="st3" d="M433.5,694.8l-4.6-14.3h9.3L433.5,694.8z"/>
	<path class="st0" d="M220,781v77.5h40.5"/>
	<path class="st2" d="M221,781h-2v-1h2V781z"/>
	<path class="st3" d="M275.8,858.5l-14.3,4.6v-9.3L275.8,858.5z"/>
	<path class="st0" d="M220,781v197.5h40.5"/>
	<path class="st2" d="M221,781h-2v-1h2V781z"/>
	<path class="st3" d="M275.8,978.5l-14.3,4.6v-9.3L275.8,978.5z"/>
	<g>
		<path class="st0" d="M600,160h160v80H600V160z"/>
		<g transform="matrix(1,0,0,1,605,165) translate(37.86222222222223 41.715)">
			<g id="C">
				<g transform="matrix(0.017777777777777778,0,0,0.017777777777777778,0,0)">
					<path id="D_1_" class="st1" d="M655.3,205.6c0.1,0.3,0.1,0.8,0,1.1h-6.7v-12.8c0.4-0.1,0.9-0.1,1.2,0v11.7H655.3"/>
				</g>
				<g transform="matrix(0.017777777777777778,0,0,0.017777777777777778,8.835555555555555,0)">
					<path id="R_7_" class="st1" d="M657.8,204.1c0,2.1,2.7,1.9,4.4,1.6v-3.4C660.3,202,657.8,202.1,657.8,204.1z M656.7,204.1
						c0-2.7,2.8-3.3,5.6-2.9c0.1-1.8-0.5-2.8-2.2-2.8c-0.9,0-1.7,0.1-2.3,0.3c-0.1-0.2-0.2-0.7-0.2-1c0.6-0.2,1.7-0.3,2.5-0.3
						c2.3,0,3.4,0.9,3.4,3.1v6c-0.8,0.2-2.2,0.4-3.2,0.4C658.2,206.9,656.7,206.2,656.7,204.1"/>
				</g>
				<g transform="matrix(0.017777777777777778,0,0,0.017777777777777778,17.955555555555556,0)">
					<path id="H_6_" class="st1" d="M667.6,206.7c-0.4,0.1-0.8,0.1-1.2,0v-9.1c0.3-0.1,0.7-0.1,1.1,0c0.1,0.4,0.1,1.2,0.1,1.6
						c0.6-1,1.5-1.8,3.1-1.8c2.2,0,3,1.4,3,3.6v5.7c-0.4,0.1-0.8,0.1-1.2,0v-5.4c0-1.7-0.4-2.8-1.9-2.8c-2.1,0-3,1.6-3,3.7V206.7"/>
				</g>
				<g transform="matrix(0.017777777777777778,0,0,0.017777777777777778,28.124444444444446,0)">
					<path id="U_10_" class="st1" d="M680.6,197.4c0.7,0,1.6,0.1,2.1,0.3v-4.1c0.4-0.1,0.8-0.1,1.2,0v12.9c-0.8,0.2-2,0.4-3.1,0.4
						c-3,0-4.7-1.5-4.7-4.6C676.1,199.4,677.6,197.5,680.6,197.4z M680.7,205.9c0.7,0,1.5-0.1,2-0.2v-6.8c-0.5-0.2-1.3-0.4-2-0.4
						c-2.3,0.1-3.3,1.5-3.3,3.9C677.3,204.7,678.4,205.8,680.7,205.9"/>
				</g>
				<g transform="matrix(0.017777777777777778,0,0,0.017777777777777778,38.52444444444444,0)">
					<path id="J_8_" class="st1" d="M688.7,206.7c-0.4,0.1-0.8,0.1-1.2,0v-8.1h-1.1c-0.1-0.3-0.1-0.7,0-1h2.3V206.7z M688.4,195.4
						c-0.4,0.1-1,0-1.5,0c0-0.5-0.1-1,0-1.5c0.5,0,1-0.1,1.5,0C688.5,194.4,688.4,195,688.4,195.4"/>
				</g>
				<g transform="matrix(0.017777777777777778,0,0,0.017777777777777778,43.37777777777777,0)">
					<path id="H_7_" class="st1" d="M693,206.7c-0.4,0.1-0.8,0.1-1.2,0v-9.1c0.3-0.1,0.7-0.1,1.1,0c0.1,0.4,0.1,1.2,0.1,1.6
						c0.6-1,1.5-1.8,3.1-1.8c2.2,0,3,1.4,3,3.6v5.7c-0.4,0.1-0.8,0.1-1.2,0v-5.4c0-1.7-0.4-2.8-1.9-2.8c-2.1,0-3,1.6-3,3.7V206.7"/>
				</g>
				<g transform="matrix(0.017777777777777778,0,0,0.017777777777777778,53.54666666666666,0)">
					<path id="F_5_" class="st1" d="M702.8,204.8c0,0.8,0.7,0.9,1.5,0.9c1.6,0.1,3.8-0.1,4.5,0.7c0.7,0.7,0.9,2,0.3,2.9
						c-0.8,1.2-2.4,1.8-4.4,1.8c-2,0-3.6-0.4-3.6-2.4c0-1,0.7-1.9,1.4-2.2c-0.4-0.3-0.8-0.7-0.8-1.4c0-1,0.6-1.5,1.2-2
						c-0.8-0.5-1.4-1.4-1.4-2.6c0.1-2.1,1.4-3.1,3.5-3.2c1,0,1.7,0.3,2.3,0.7c0.6-0.3,1.5-0.4,2.3-0.5c0.1,0.3,0.1,0.9,0,1.2H708
						c0.3,0.5,0.5,1,0.5,1.8c0,2.5-2.3,3.6-4.8,3C703.2,203.9,702.8,204.2,702.8,204.8z M704.8,210.1c1.8,0,3.4-0.6,3.5-1.9
						c0.1-1.7-2.5-1.2-4.2-1.3c-1.1-0.1-1.9,0.7-1.8,1.8C702.3,209.9,703.5,210.1,704.8,210.1z M705,198.4c-1.4,0-2.2,0.9-2.2,2.2
						s0.8,2.2,2.2,2.2s2.3-0.9,2.3-2.2S706.5,198.4,705,198.4"/>
				</g>
			</g>
		</g>
	</g>
	<path class="st0" d="M680,242v28H560v10.5"/>
	<path class="st2" d="M681,242h-2v-1h2V242z"/>
	<path class="st3" d="M560,295.8l-4.6-14.3h9.3L560,295.8z"/>
	<path class="st0" d="M680,242v28h120v10.5"/>
	<path class="st2" d="M681,242h-2v-1h2V242z"/>
	<path class="st3" d="M800,295.8l-4.6-14.3h9.3L800,295.8z"/>
</g>
</svg>
