<svg xmlns="http://www.w3.org/2000/svg" xmlns:xlink="http://www.w3.org/1999/xlink" xmlns:lucid="lucid" width="1022" height="1021"><g transform="translate(-119 -139)" lucid:page-tab-id="YGcM5DNywbTK"><g filter="url(#a)"><path d="M480 300h160v80H480z" stroke="#ef8d22" stroke-width="2" fill="#fff"/><use xlink:href="#b" transform="matrix(1,0,0,1,485,305) translate(45.400000000000006 41.715)"/><use xlink:href="#c" transform="matrix(1,0,0,1,485,305) translate(78.41333333333333 41.715)"/></g><g filter="url(#a)"><path d="M720 300h160v80H720z" stroke="#ef8d22" stroke-width="2" fill="#fff"/><use xlink:href="#d" transform="matrix(1,0,0,1,725,305) translate(38.848888888888894 41.715)"/><use xlink:href="#e" transform="matrix(1,0,0,1,725,305) translate(77.46222222222222 41.715)"/></g><g filter="url(#a)"><path d="M260 300h160v80H260z" stroke="#ef8d22" stroke-width="2" fill="#fff"/><use xlink:href="#f" transform="matrix(1,0,0,1,265,305) translate(7.480000000000004 41.715)"/><use xlink:href="#g" transform="matrix(1,0,0,1,265,305) translate(56.08444444444444 41.715)"/></g><g filter="url(#a)"><path d="M595.66 440h160v80h-160z" stroke="#ef8d22" stroke-width="2" fill="#fff"/><use xlink:href="#h" transform="matrix(1,0,0,1,600.6570247933884,445) translate(45.78222222222223 41.715)"/></g><g filter="url(#a)"><path d="M595.66 579.5h160v80h-160z" stroke="#ef8d22" stroke-width="2" fill="#fff"/><use xlink:href="#i" transform="matrix(1,0,0,1,600.6570247933885,584.5) translate(53.22222222222223 41.715)"/></g><path d="M675.66 661.5v18" stroke="#ef8d22" stroke-width="2" fill="none"/><path d="M676.66 661.53h-2v-1.03h2z" fill="#ef8d22"/><path d="M675.66 694.76l-4.64-14.26h9.27z" stroke="#ef8d22" stroke-width="2" fill="#ef8d22"/><g filter="url(#j)"><path d="M595.66 699h160v80h-160z" stroke="#ef8d22" stroke-width="2" fill="#fff"/><use xlink:href="#k" transform="matrix(1,0,0,1,600.6570247933885,704) translate(7.035555555555561 42.0275)"/><use xlink:href="#l" transform="matrix(1,0,0,1,600.6570247933885,704) translate(56.99111111111112 42.0275)"/></g><path d="M675.66 781v18" stroke="#ef8d22" stroke-width="2" fill="none"/><path d="M676.66 781.03h-2V780h2z" fill="#ef8d22"/><path d="M675.66 814.26L671.02 800h9.27z" stroke="#ef8d22" stroke-width="2" fill="#ef8d22"/><g filter="url(#j)"><path d="M595.66 818.5h160v80h-160z" stroke="#ef8d22" stroke-width="2" fill="#fff"/><use xlink:href="#m" transform="matrix(1,0,0,1,600.6570247933885,823.5) translate(37.58666666666667 42.0275)"/></g><path d="M675.66 900.5V919" stroke="#ef8d22" stroke-width="2" fill="none"/><path d="M676.66 900.53h-2v-1.03h2z" fill="#ef8d22"/><path d="M675.66 934.26L671.02 920h9.27z" stroke="#ef8d22" stroke-width="2" fill="#ef8d22"/><g filter="url(#a)"><path d="M595.66 938.5h160v80h-160z" stroke="#ef8d22" stroke-width="2" fill="#fff"/><use xlink:href="#n" transform="matrix(1,0,0,1,600.6570247933885,943.5) translate(34.89333333333334 30.7775)"/><use xlink:href="#o" transform="matrix(1,0,0,1,600.6570247933885,943.5) translate(44.44000000000001 51.43527777777778)"/></g><path d="M675.66 1020.5v19" stroke="#ef8d22" stroke-width="2" fill="none"/><path d="M676.66 1020.53h-2v-1.03h2z" fill="#ef8d22"/><path d="M675.66 1054.76l-4.64-14.26h9.27z" stroke="#ef8d22" stroke-width="2" fill="#ef8d22"/><g filter="url(#a)"><path d="M595.66 1059h160v80h-160z" stroke="#ef8d22" stroke-width="2" fill="#fff"/><use xlink:href="#p" transform="matrix(1,0,0,1,600.6570247933885,1064) translate(46.644444444444446 30.7775)"/><use xlink:href="#q" transform="matrix(1,0,0,1,600.6570247933885,1064) translate(23.05333333333333 51.43527777777778)"/></g><g filter="url(#j)"><path d="M140 699h160v80H140z" stroke="#ef8d22" stroke-width="2" fill="#fff"/><use xlink:href="#r" transform="matrix(1,0,0,1,145,704) translate(27.080000000000005 42.0275)"/></g><g filter="url(#a)"><path d="M280 938.5h160v80H280z" stroke="#ef8d22" stroke-width="2" fill="#fff"/><use xlink:href="#s" transform="matrix(1,0,0,1,285.0000000000001,943.5) translate(23.284444444444453 41.715)"/><use xlink:href="#t" transform="matrix(1,0,0,1,285.0000000000001,943.5) translate(62.05777777777778 41.715)"/></g><g filter="url(#a)"><path d="M280 818.5h160v80H280z" stroke="#ef8d22" stroke-width="2" fill="#fff"/><use xlink:href="#u" transform="matrix(1,0,0,1,285.0000000000001,823.5) translate(27.888888888888893 41.715)"/></g><g filter="url(#a)"><path d="M837.83 579.5h160v80h-160z" stroke="#ef8d22" stroke-width="2" fill="#fff"/><use xlink:href="#v" transform="matrix(1,0,0,1,842.8285123966944,584.5) translate(37.204444444444455 41.715)"/></g><g filter="url(#a)"><path d="M960 818.5h160v80H960z" stroke="#ef8d22" stroke-width="2" fill="#fff"/><use xlink:href="#k" transform="matrix(1,0,0,1,965,823.5) translate(16.004444444444445 41.715)"/><use xlink:href="#w" transform="matrix(1,0,0,1,965,823.5) translate(65.96000000000001 41.715)"/></g><g filter="url(#a)"><path d="M960 938.5h160v80H960z" stroke="#ef8d22" stroke-width="2" fill="#fff"/><use xlink:href="#x" transform="matrix(1,0,0,1,965,943.5) translate(33.16000000000001 41.715)"/></g><path d="M478 340h-38.5" stroke="#ef8d22" stroke-width="2" fill="none"/><path d="M479 341h-1.03v-2H479z" fill="#ef8d22"/><path d="M424.24 340l14.26-4.64v9.28z" stroke="#ef8d22" stroke-width="2" fill="#ef8d22"/><path d="M560 382v28h115.66v10.5" stroke="#ef8d22" stroke-width="2" fill="none"/><path d="M561 382.03h-2V381h2z" fill="#ef8d22"/><path d="M675.66 435.76l-4.64-14.26h9.27z" stroke="#ef8d22" stroke-width="2" fill="#ef8d22"/><path d="M800 382v28H675.66v10.5" stroke="#ef8d22" stroke-width="2" fill="none"/><path d="M801 382.03h-2V381h2z" fill="#ef8d22"/><path d="M675.66 435.76l-4.64-14.26h9.27z" stroke="#ef8d22" stroke-width="2" fill="#ef8d22"/><path d="M675.66 522v38" stroke="#ef8d22" stroke-width="2" fill="none"/><path d="M676.66 522.03h-2V521h2z" fill="#ef8d22"/><path d="M675.66 575.26L671.02 561h9.27z" stroke="#ef8d22" stroke-width="2" fill="#ef8d22"/><path d="M675.66 522v27.75h242.17V560" stroke="#ef8d22" stroke-width="2" fill="none"/><path d="M676.66 522.03h-2V521h2z" fill="#ef8d22"/><path d="M917.83 575.26L913.2 561h9.26z" stroke="#ef8d22" stroke-width="2" fill="#ef8d22"/><path d="M917.83 661.5v197h22.67" stroke="#ef8d22" stroke-width="2" fill="none"/><path d="M918.83 661.53h-2v-1.03h2z" fill="#ef8d22"/><path d="M955.76 858.5l-14.26 4.64v-9.28z" stroke="#ef8d22" stroke-width="2" fill="#ef8d22"/><path d="M917.83 661.5v317h22.67" stroke="#ef8d22" stroke-width="2" fill="none"/><path d="M918.83 661.53h-2v-1.03h2z" fill="#ef8d22"/><path d="M955.76 978.5l-14.26 4.64v-9.28z" stroke="#ef8d22" stroke-width="2" fill="#ef8d22"/><g filter="url(#j)"><path d="M353.5 699h160v80h-160z" stroke="#ef8d22" stroke-width="2" fill="#fff"/><use xlink:href="#y" transform="matrix(1,0,0,1,358.4855371900825,704) translate(8.82222222222223 42.0275)"/><use xlink:href="#z" transform="matrix(1,0,0,1,358.4855371900825,704) translate(74.72444444444446 42.0275)"/></g><g filter="url(#a)"><path d="M353.5 579.5h160v80h-160z" stroke="#ef8d22" stroke-width="2" fill="#fff"/><use xlink:href="#A" transform="matrix(1,0,0,1,358.4855371900824,584.5) translate(34.65333333333334 41.715)"/></g><g filter="url(#j)"><path d="M960 699h160v80H960z" stroke="#ef8d22" stroke-width="2" fill="#fff"/><use xlink:href="#B" transform="matrix(1,0,0,1,965,704) translate(43.3288888888889 42.0275)"/></g><path d="M917.83 661.5V739h22.67" stroke="#ef8d22" stroke-width="2" fill="none"/><path d="M918.83 661.53h-2v-1.03h2z" fill="#ef8d22"/><path d="M955.76 739l-14.26 4.64v-9.28z" stroke="#ef8d22" stroke-width="2" fill="#ef8d22"/><path d="M675.66 522v27.75H433.5V560" stroke="#ef8d22" stroke-width="2" fill="none"/><path d="M676.66 522.03h-2V521h2z" fill="#ef8d22"/><path d="M433.5 575.26L428.84 561h9.27z" stroke="#ef8d22" stroke-width="2" fill="#ef8d22"/><path d="M351.5 619.5H220v60" stroke="#ef8d22" stroke-width="2" fill="none"/><path d="M352.5 620.5h-1.04v-2h1.03z" fill="#ef8d22"/><path d="M220 694.76l-4.64-14.26h9.28z" stroke="#ef8d22" stroke-width="2" fill="#ef8d22"/><path d="M433.5 661.5v18" stroke="#ef8d22" stroke-width="2" fill="none"/><path d="M434.5 661.53h-2v-1.03h2z" fill="#ef8d22"/><path d="M433.5 694.76l-4.65-14.26h9.27z" stroke="#ef8d22" stroke-width="2" fill="#ef8d22"/><path d="M220 781v77.5h40.5" stroke="#ef8d22" stroke-width="2" fill="none"/><path d="M221 781.03h-2V780h2z" fill="#ef8d22"/><path d="M275.76 858.5l-14.26 4.64v-9.28z" stroke="#ef8d22" stroke-width="2" fill="#ef8d22"/><path d="M220 781v197.5h40.5" stroke="#ef8d22" stroke-width="2" fill="none"/><path d="M221 781.03h-2V780h2z" fill="#ef8d22"/><path d="M275.76 978.5l-14.26 4.64v-9.28z" stroke="#ef8d22" stroke-width="2" fill="#ef8d22"/><g filter="url(#a)"><path d="M600 160h160v80H600z" stroke="#ef8d22" stroke-width="2" fill="#fff"/><use xlink:href="#C" transform="matrix(1,0,0,1,605,165) translate(37.86222222222223 41.715)"/></g><path d="M680 242v28H560v10.5" stroke="#ef8d22" stroke-width="2" fill="none"/><path d="M681 242.03h-2V241h2z" fill="#ef8d22"/><path d="M560 295.76l-4.64-14.26h9.28z" stroke="#ef8d22" stroke-width="2" fill="#ef8d22"/><path d="M680 242v28h120v10.5" stroke="#ef8d22" stroke-width="2" fill="none"/><path d="M681 242.03h-2V241h2z" fill="#ef8d22"/><path d="M800 295.76l-4.64-14.26h9.28z" stroke="#ef8d22" stroke-width="2" fill="#ef8d22"/><defs><path fill="#666" d="M477-63c3 19 3 44 0 63H101v-719c20-3 49-3 69 0v656h307" id="D"/><path fill="#666" d="M128-255c0 119 45 209 159 209s159-90 159-209-45-209-159-209-159 90-159 209zm387 0c0 157-71 267-228 267S59-97 59-255s71-267 228-267 228 110 228 267" id="E"/><path fill="#666" d="M135-105c0 44 39 51 86 52 90 3 211-4 255 39 39 38 50 112 18 162-45 68-136 101-249 101-110 0-205-24-205-133C40 60 78 9 119-9 96-24 74-47 74-85c0-59 32-86 68-112-44-28-79-76-77-147 3-117 77-175 196-178 55-1 97 16 129 38 36-15 82-25 132-26 5 19 5 48 0 67h-95c17 27 29 58 29 99 2 142-131 202-270 167-30 21-51 33-51 72zm112 294c99 2 192-31 197-107 6-98-143-66-235-73-61-5-105 39-104 99 2 71 70 80 142 81zm14-656c-81 0-126 49-126 123s45 123 126 123 127-49 127-123-46-123-127-123" id="F"/><g id="b"><use transform="matrix(0.017777777777777778,0,0,0.017777777777777778,0,0)" xlink:href="#D"/><use transform="matrix(0.017777777777777778,0,0,0.017777777777777778,8.835555555555555,0)" xlink:href="#E"/><use transform="matrix(0.017777777777777778,0,0,0.017777777777777778,19.04,0)" xlink:href="#F"/></g><path fill="#666" d="M170 0c-20 3-49 3-69 0v-719c21-3 48-3 69 0V0" id="G"/><path fill="#666" d="M154 0c-20 3-46 3-66 0v-510c19-3 41-3 60 0 3 22 4 67 4 92 34-56 85-103 174-104 121-1 167 78 168 200V0c-20 3-46 3-66 0v-302c-1-98-21-159-106-159-116 0-168 88-168 209V0" id="H"/><g id="c"><use transform="matrix(0.017777777777777778,0,0,0.017777777777777778,0,0)" xlink:href="#G"/><use transform="matrix(0.017777777777777778,0,0,0.017777777777777778,4.817777777777778,0)" xlink:href="#H"/></g><filter id="a" filterUnits="objectBoundingBox" x="-.06" y="-.05" width="1.13" height="1.25"><feOffset result="offOut" in="SourceAlpha" dy="6"/><feGaussianBlur result="blurOut" in="offOut" stdDeviation="5"/><feColorMatrix result="colorOut" in="blurOut" values="0 0 0 0 0 0 0 0 0 0 0 0 0 0 0 0 0 0 0.16862745098039217 0"/><feBlend in="SourceGraphic" in2="colorOut"/></filter><path fill="#666" d="M491-205C498 9 242 47 56-16c3-21 11-47 18-64 46 15 93 28 157 28 126 0 221-75 177-198-52-145-333-84-333-300 0-174 210-213 378-160-3 21-8 42-14 60-33-11-91-21-136-21-97 0-155 38-155 120 0 119 143 122 224 169 64 38 116 79 119 177" id="I"/><path fill="#666" d="M185 0c-20 3-46 3-66 0v-454H55c-3-16-3-40 0-56h130V0zm-15-635c-25 3-58 2-84 0-2-26-3-59 0-84 26-2 59-3 84 0 3 26 2 58 0 84" id="J"/><g id="d"><use transform="matrix(0.017777777777777778,0,0,0.017777777777777778,0,0)" xlink:href="#I"/><use transform="matrix(0.017777777777777778,0,0,0.017777777777777778,9.617777777777778,0)" xlink:href="#J"/><use transform="matrix(0.017777777777777778,0,0,0.017777777777777778,14.471111111111112,0)" xlink:href="#F"/><use transform="matrix(0.017777777777777778,0,0,0.017777777777777778,24,0)" xlink:href="#H"/></g><path fill="#666" d="M338 12C160 12 94-93 93-276v-443c21-3 48-3 69 0v434c0 139 37 234 176 231 137-3 176-80 176-231v-434c21-3 48-3 69 0v443C582-93 516 12 338 12" id="K"/><path fill="#666" d="M154 236c-20 3-46 3-66 0v-746c18-3 42-3 60 0l6 70c31-44 83-84 163-82 149 3 211 98 211 251C528-92 436 9 257 12c-35 0-76-6-103-16v240zm158-699c-99 0-158 61-158 166v232c35 13 61 19 113 18 130-3 191-85 191-220 0-114-36-196-146-196" id="L"/><g id="e"><use transform="matrix(0.017777777777777778,0,0,0.017777777777777778,0,0)" xlink:href="#K"/><use transform="matrix(0.017777777777777778,0,0,0.017777777777777778,12.017777777777777,0)" xlink:href="#L"/></g><path fill="#666" d="M170 0c-21 3-48 3-69 0v-722c198-28 411-2 403 206-4 117-83 171-171 206L562 0c-23 3-54 3-79 0L231-333v-4c97-27 194-61 199-179 6-136-123-173-260-151V0" id="M"/><path fill="#666" d="M288-522c154 0 219 113 206 277H130c0 133 59 197 188 198 53 0 94-10 134-24 6 13 11 38 12 56-40 18-94 27-153 27C142 10 60-84 60-252c0-159 68-270 228-270zm142 222c-3-97-44-164-142-164-100 0-146 68-156 164h298" id="N"/><path fill="#666" d="M397-146C397 14 195 38 55-10c4-20 10-40 19-60 98 49 314 17 244-114-50-95-243-47-248-201-5-143 189-161 314-115-3 19-8 38-14 57-79-35-278-39-224 89 42 57 146 54 200 100 28 24 51 55 51 108" id="O"/><path fill="#666" d="M323 0C219 30 111 2 111-119v-335H24c-3-16-3-40 0-56h87v-96l62-61h4v157h138c3 16 3 40 0 56H177v332c-10 78 75 86 136 66 5 17 8 36 10 56" id="P"/><g id="f"><use transform="matrix(0.017777777777777778,0,0,0.017777777777777778,0,0)" xlink:href="#M"/><use transform="matrix(0.017777777777777778,0,0,0.017777777777777778,10.435555555555556,0)" xlink:href="#N"/><use transform="matrix(0.017777777777777778,0,0,0.017777777777777778,20.266666666666666,0)" xlink:href="#O"/><use transform="matrix(0.017777777777777778,0,0,0.017777777777777778,28.30222222222222,0)" xlink:href="#N"/><use transform="matrix(0.017777777777777778,0,0,0.017777777777777778,38.13333333333333,0)" xlink:href="#P"/></g><path fill="#666" d="M442-513c0-146-132-168-272-150v317c150 18 272-14 272-167zM170 0c-20 3-49 3-69 0v-719c45-6 101-12 152-12 158 0 261 60 262 218 1 189-149 252-345 231V0" id="Q"/><path fill="#666" d="M121-147c0 120 150 108 248 90v-191c-109-18-248-9-248 101zm-66 2c0-154 160-185 314-161 7-103-28-159-123-158-50 0-95 8-132 19-7-11-12-40-12-58 36-11 93-19 142-19 127 1 190 51 191 176V-9c-46 9-124 22-180 21C138 11 55-29 55-145" id="R"/><path fill="#666" d="M33-510c21-3 51-3 72 0L218-76l126-434c21-2 50-4 71 0L541-82l113-428c19-3 46-3 65 0L572 0c-23 4-48 4-70 0L379-422 250 0c-23 4-48 4-70 0" id="S"/><path fill="#666" d="M154 0c-20 3-46 3-66 0v-510c19-3 41-3 60 0 3 23 4 62 4 87 30-54 83-97 174-87 4 22 4 42 0 63-119-7-172 58-172 185V0" id="T"/><path fill="#666" d="M313-522c40-1 90 8 118 18v-231c20-3 46-3 66 0v723C453 2 385 13 324 12 154 11 62-71 62-244c0-170 85-272 251-278zm8 475c37 0 83-4 110-12v-383c-28-11-75-22-115-21-129 3-183 87-185 217-2 133 63 197 190 199" id="U"/><g id="g"><use transform="matrix(0.017777777777777778,0,0,0.017777777777777778,0,0)" xlink:href="#Q"/><use transform="matrix(0.017777777777777778,0,0,0.017777777777777778,9.848888888888888,0)" xlink:href="#R"/><use transform="matrix(0.017777777777777778,0,0,0.017777777777777778,18.968888888888888,0)" xlink:href="#O"/><use transform="matrix(0.017777777777777778,0,0,0.017777777777777778,27.004444444444445,0)" xlink:href="#O"/><use transform="matrix(0.017777777777777778,0,0,0.017777777777777778,35.04,0)" xlink:href="#S"/><use transform="matrix(0.017777777777777778,0,0,0.017777777777777778,48.40888888888889,0)" xlink:href="#E"/><use transform="matrix(0.017777777777777778,0,0,0.017777777777777778,58.61333333333333,0)" xlink:href="#T"/><use transform="matrix(0.017777777777777778,0,0,0.017777777777777778,64.83555555555556,0)" xlink:href="#U"/></g><path fill="#666" d="M170 0c-20 3-49 3-69 0v-719c21-3 48-3 69 0v306h354v-306c21-3 48-3 69 0V0c-20 3-49 3-69 0v-350H170V0" id="V"/><path fill="#666" d="M154 0c-20 3-46 3-66 0v-510c19-3 41-3 60 0 3 23 4 63 4 88 28-55 73-99 155-100 76 0 110 40 132 94 33-47 72-93 151-94 122 0 167 74 168 197V0c-20 3-46 3-66 0v-302c0-94-23-159-106-159-91 0-129 71-129 162V0c-20 3-46 3-66 0v-315c0-87-21-151-95-151-185 0-135 272-142 466" id="W"/><g id="h"><use transform="matrix(0.017777777777777778,0,0,0.017777777777777778,0,0)" xlink:href="#V"/><use transform="matrix(0.017777777777777778,0,0,0.017777777777777778,12.337777777777777,0)" xlink:href="#E"/><use transform="matrix(0.017777777777777778,0,0,0.017777777777777778,22.54222222222222,0)" xlink:href="#W"/><use transform="matrix(0.017777777777777778,0,0,0.017777777777777778,37.404444444444444,0)" xlink:href="#N"/></g><path fill="#666" d="M399-50c59 2 113-13 150-32 10 19 19 36 23 58-45 23-112 38-180 36C173 6 67-129 64-352c-4-264 156-419 433-370 28 5 48 11 61 15-3 27-7 36-16 59-43-15-89-24-149-22-180 5-255 133-255 318 0 184 83 297 261 302" id="X"/><g id="i"><use transform="matrix(0.017777777777777778,0,0,0.017777777777777778,0,0)" xlink:href="#X"/><use transform="matrix(0.017777777777777778,0,0,0.017777777777777778,10.986666666666666,0)" xlink:href="#R"/><use transform="matrix(0.017777777777777778,0,0,0.017777777777777778,20.106666666666666,0)" xlink:href="#T"/><use transform="matrix(0.017777777777777778,0,0,0.017777777777777778,26.32888888888889,0)" xlink:href="#P"/></g><path fill="#666" d="M658-360c0 215-83 372-297 372S64-145 64-360s84-371 297-371 297 156 297 371zm-522 0c0 173 55 309 225 309 169 0 225-136 225-309s-56-308-225-308c-170 0-225 135-225 308" id="Y"/><g id="k"><use transform="matrix(0.017777777777777778,0,0,0.017777777777777778,0,0)" xlink:href="#Y"/><use transform="matrix(0.017777777777777778,0,0,0.017777777777777778,12.835555555555555,0)" xlink:href="#T"/><use transform="matrix(0.017777777777777778,0,0,0.017777777777777778,19.057777777777776,0)" xlink:href="#U"/><use transform="matrix(0.017777777777777778,0,0,0.017777777777777778,29.45777777777778,0)" xlink:href="#N"/><use transform="matrix(0.017777777777777778,0,0,0.017777777777777778,39.28888888888889,0)" xlink:href="#T"/></g><path fill="#666" d="M311 12C156 12 84-61 84-219v-291c20-3 46-3 66 0v287c-3 121 47 177 166 177 41 0 75-4 105-13v-451c20-3 46-3 66 0v497C438 0 374 12 311 12" id="Z"/><path fill="#666" d="M79 182c27 10 85 18 107-4 37-37 48-121 71-176-18 0-41 0-57-2L16-510c22-3 54-3 76 0L261-14l166-496c20-3 48-3 68 0L271 151c-20 64-56 96-129 99-26 1-59-7-78-12 0-21 5-39 15-56" id="aa"/><g id="l"><use transform="matrix(0.017777777777777778,0,0,0.017777777777777778,0,0)" xlink:href="#I"/><use transform="matrix(0.017777777777777778,0,0,0.017777777777777778,9.617777777777778,0)" xlink:href="#Z"/><use transform="matrix(0.017777777777777778,0,0,0.017777777777777778,19.84,0)" xlink:href="#W"/><use transform="matrix(0.017777777777777778,0,0,0.017777777777777778,34.70222222222222,0)" xlink:href="#W"/><use transform="matrix(0.017777777777777778,0,0,0.017777777777777778,49.56444444444443,0)" xlink:href="#N"/><use transform="matrix(0.017777777777777778,0,0,0.017777777777777778,59.39555555555555,0)" xlink:href="#T"/><use transform="matrix(0.017777777777777778,0,0,0.017777777777777778,65.61777777777777,0)" xlink:href="#aa"/></g><filter id="j" filterUnits="objectBoundingBox" x="-.06" y="-.05" width="1.13" height="1.25"><feOffset result="offOut" in="SourceAlpha" dy="6"/><feGaussianBlur result="blurOut" in="offOut" stdDeviation="5"/><feColorMatrix result="colorOut" in="blurOut" values="0 0 0 0 0 0 0 0 0 0 0 0 0 0 0 0 0 0 0.16862745098039217 0"/><feBlend in="SourceGraphic" in2="colorOut"/></filter><path fill="#666" d="M582 0c-22 3-52 3-74 0l-60-183H152L95 0C72 3 42 3 20 0l240-719c24-3 58-3 82 0zM428-247L299-647 172-247h256" id="ab"/><g id="m"><use transform="matrix(0.017777777777777778,0,0,0.017777777777777778,0,0)" xlink:href="#ab"/><use transform="matrix(0.017777777777777778,0,0,0.017777777777777778,10.702222222222222,0)" xlink:href="#U"/><use transform="matrix(0.017777777777777778,0,0,0.017777777777777778,21.10222222222222,0)" xlink:href="#U"/><use transform="matrix(0.017777777777777778,0,0,0.017777777777777778,31.502222222222223,0)" xlink:href="#T"/><use transform="matrix(0.017777777777777778,0,0,0.017777777777777778,37.724444444444444,0)" xlink:href="#N"/><use transform="matrix(0.017777777777777778,0,0,0.017777777777777778,47.55555555555556,0)" xlink:href="#O"/><use transform="matrix(0.017777777777777778,0,0,0.017777777777777778,55.59111111111111,0)" xlink:href="#O"/></g><g id="n"><use transform="matrix(0.017777777777777778,0,0,0.017777777777777778,0,0)" xlink:href="#Q"/><use transform="matrix(0.017777777777777778,0,0,0.017777777777777778,9.848888888888888,0)" xlink:href="#R"/><use transform="matrix(0.017777777777777778,0,0,0.017777777777777778,18.968888888888888,0)" xlink:href="#aa"/><use transform="matrix(0.017777777777777778,0,0,0.017777777777777778,28.124444444444446,0)" xlink:href="#W"/><use transform="matrix(0.017777777777777778,0,0,0.017777777777777778,42.986666666666665,0)" xlink:href="#N"/><use transform="matrix(0.017777777777777778,0,0,0.017777777777777778,52.81777777777778,0)" xlink:href="#H"/><use transform="matrix(0.017777777777777778,0,0,0.017777777777777778,62.986666666666665,0)" xlink:href="#P"/></g><path fill="#666" d="M155 0c-20 3-49 3-69 0l35-719c25-3 62-3 87 0l201 479 199-479c25-3 61-3 86 0L729 0c-20 3-49 3-69 0l-27-612-198 463c-15 3-38 3-55 0L184-613" id="ac"/><path fill="#666" d="M154 0c-20 3-46 3-66 0v-735c20-3 46-3 66 0v316c34-55 82-102 169-103 121-1 171 78 171 200V0c-20 3-46 3-66 0v-302c0-98-25-159-109-159-115 0-165 84-165 204V0" id="ad"/><g id="o"><use transform="matrix(0.017777777777777778,0,0,0.017777777777777778,0,0)" xlink:href="#ac"/><use transform="matrix(0.017777777777777778,0,0,0.017777777777777778,14.488888888888889,0)" xlink:href="#N"/><use transform="matrix(0.017777777777777778,0,0,0.017777777777777778,24.32,0)" xlink:href="#P"/><use transform="matrix(0.017777777777777778,0,0,0.017777777777777778,30.346666666666668,0)" xlink:href="#ad"/><use transform="matrix(0.017777777777777778,0,0,0.017777777777777778,40.51555555555556,0)" xlink:href="#E"/><use transform="matrix(0.017777777777777778,0,0,0.017777777777777778,50.72,0)" xlink:href="#U"/></g><g id="p"><use transform="matrix(0.017777777777777778,0,0,0.017777777777777778,0,0)" xlink:href="#Y"/><use transform="matrix(0.017777777777777778,0,0,0.017777777777777778,12.835555555555555,0)" xlink:href="#T"/><use transform="matrix(0.017777777777777778,0,0,0.017777777777777778,19.057777777777776,0)" xlink:href="#U"/><use transform="matrix(0.017777777777777778,0,0,0.017777777777777778,29.45777777777778,0)" xlink:href="#N"/><use transform="matrix(0.017777777777777778,0,0,0.017777777777777778,39.28888888888889,0)" xlink:href="#T"/></g><path fill="#666" d="M190 0c-20 3-46 3-66 0v-454H37c-3-16-3-40 0-56h87c-18-174 69-263 241-225-3 25-5 36-11 57-14-3-37-7-56-7-100 0-113 73-108 175h140c3 16 3 40 0 56H190V0" id="ae"/><g id="q"><use transform="matrix(0.017777777777777778,0,0,0.017777777777777778,0,0)" xlink:href="#X"/><use transform="matrix(0.017777777777777778,0,0,0.017777777777777778,10.986666666666666,0)" xlink:href="#E"/><use transform="matrix(0.017777777777777778,0,0,0.017777777777777778,21.191111111111113,0)" xlink:href="#H"/><use transform="matrix(0.017777777777777778,0,0,0.017777777777777778,31.36,0)" xlink:href="#ae"/><use transform="matrix(0.017777777777777778,0,0,0.017777777777777778,37.58222222222222,0)" xlink:href="#J"/><use transform="matrix(0.017777777777777778,0,0,0.017777777777777778,42.43555555555555,0)" xlink:href="#T"/><use transform="matrix(0.017777777777777778,0,0,0.017777777777777778,48.65777777777778,0)" xlink:href="#W"/><use transform="matrix(0.017777777777777778,0,0,0.017777777777777778,63.52,0)" xlink:href="#R"/><use transform="matrix(0.017777777777777778,0,0,0.017777777777777778,72.64,0)" xlink:href="#P"/><use transform="matrix(0.017777777777777778,0,0,0.017777777777777778,78.66666666666667,0)" xlink:href="#J"/><use transform="matrix(0.017777777777777778,0,0,0.017777777777777778,83.52000000000001,0)" xlink:href="#E"/><use transform="matrix(0.017777777777777778,0,0,0.017777777777777778,93.72444444444446,0)" xlink:href="#H"/></g><g id="r"><use transform="matrix(0.017777777777777778,0,0,0.017777777777777778,0,0)" xlink:href="#X"/><use transform="matrix(0.017777777777777778,0,0,0.017777777777777778,10.986666666666666,0)" xlink:href="#R"/><use transform="matrix(0.017777777777777778,0,0,0.017777777777777778,20.106666666666666,0)" xlink:href="#P"/><use transform="matrix(0.017777777777777778,0,0,0.017777777777777778,26.133333333333333,0)" xlink:href="#N"/><use transform="matrix(0.017777777777777778,0,0,0.017777777777777778,35.964444444444446,0)" xlink:href="#F"/><use transform="matrix(0.017777777777777778,0,0,0.017777777777777778,45.49333333333333,0)" xlink:href="#E"/><use transform="matrix(0.017777777777777778,0,0,0.017777777777777778,55.69777777777777,0)" xlink:href="#T"/><use transform="matrix(0.017777777777777778,0,0,0.017777777777777778,61.919999999999995,0)" xlink:href="#J"/><use transform="matrix(0.017777777777777778,0,0,0.017777777777777778,66.77333333333333,0)" xlink:href="#N"/><use transform="matrix(0.017777777777777778,0,0,0.017777777777777778,76.60444444444444,0)" xlink:href="#O"/></g><path fill="#666" d="M538-197C538 10 303 31 101 0v-719c45-5 98-11 149-11 145 1 244 49 244 187 0 86-51 135-117 158 99 16 161 74 161 188zM257-670c-29 0-64 3-87 6v251h95c98 2 156-43 156-130 0-84-65-127-164-127zm207 473c0-148-140-157-294-151v292c140 15 293 0 294-141" id="af"/><g id="s"><use transform="matrix(0.017777777777777778,0,0,0.017777777777777778,0,0)" xlink:href="#af"/><use transform="matrix(0.017777777777777778,0,0,0.017777777777777778,10.435555555555556,0)" xlink:href="#N"/><use transform="matrix(0.017777777777777778,0,0,0.017777777777777778,20.266666666666666,0)" xlink:href="#O"/><use transform="matrix(0.017777777777777778,0,0,0.017777777777777778,28.30222222222222,0)" xlink:href="#P"/></g><path fill="#666" d="M268 0C178 25 88 0 88-103v-632c20-3 46-3 66 0v617c-8 67 46 81 104 66 6 14 8 34 10 52" id="ag"/><g id="t"><use transform="matrix(0.017777777777777778,0,0,0.017777777777777778,0,0)" xlink:href="#I"/><use transform="matrix(0.017777777777777778,0,0,0.017777777777777778,9.617777777777778,0)" xlink:href="#N"/><use transform="matrix(0.017777777777777778,0,0,0.017777777777777778,19.448888888888888,0)" xlink:href="#ag"/><use transform="matrix(0.017777777777777778,0,0,0.017777777777777778,24.40888888888889,0)" xlink:href="#ag"/><use transform="matrix(0.017777777777777778,0,0,0.017777777777777778,29.36888888888889,0)" xlink:href="#N"/><use transform="matrix(0.017777777777777778,0,0,0.017777777777777778,39.2,0)" xlink:href="#T"/><use transform="matrix(0.017777777777777778,0,0,0.017777777777777778,45.422222222222224,0)" xlink:href="#O"/></g><g id="u"><use transform="matrix(0.017777777777777778,0,0,0.017777777777777778,0,0)" xlink:href="#I"/><use transform="matrix(0.017777777777777778,0,0,0.017777777777777778,9.617777777777778,0)" xlink:href="#Z"/><use transform="matrix(0.017777777777777778,0,0,0.017777777777777778,19.84,0)" xlink:href="#F"/><use transform="matrix(0.017777777777777778,0,0,0.017777777777777778,29.36888888888889,0)" xlink:href="#F"/><use transform="matrix(0.017777777777777778,0,0,0.017777777777777778,38.897777777777776,0)" xlink:href="#N"/><use transform="matrix(0.017777777777777778,0,0,0.017777777777777778,48.72888888888889,0)" xlink:href="#O"/><use transform="matrix(0.017777777777777778,0,0,0.017777777777777778,56.76444444444444,0)" xlink:href="#P"/><use transform="matrix(0.017777777777777778,0,0,0.017777777777777778,62.7911111111111,0)" xlink:href="#N"/><use transform="matrix(0.017777777777777778,0,0,0.017777777777777778,72.62222222222222,0)" xlink:href="#U"/></g><path fill="#666" d="M319-46c40 0 78-8 107-18 6 11 13 41 16 55-35 12-79 21-128 21C146 12 56-85 59-255c3-163 84-262 248-267 44-1 97 8 127 18 0 17-6 45-11 57-29-10-74-17-116-17-124 3-177 84-179 209-2 135 66 207 191 209" id="ah"/><g id="v"><use transform="matrix(0.017777777777777778,0,0,0.017777777777777778,0,0)" xlink:href="#ab"/><use transform="matrix(0.017777777777777778,0,0,0.017777777777777778,10.702222222222222,0)" xlink:href="#ah"/><use transform="matrix(0.017777777777777778,0,0,0.017777777777777778,19.235555555555557,0)" xlink:href="#ah"/><use transform="matrix(0.017777777777777778,0,0,0.017777777777777778,27.76888888888889,0)" xlink:href="#E"/><use transform="matrix(0.017777777777777778,0,0,0.017777777777777778,37.97333333333332,0)" xlink:href="#Z"/><use transform="matrix(0.017777777777777778,0,0,0.017777777777777778,48.19555555555555,0)" xlink:href="#H"/><use transform="matrix(0.017777777777777778,0,0,0.017777777777777778,58.36444444444444,0)" xlink:href="#P"/></g><g id="w"><use transform="matrix(0.017777777777777778,0,0,0.017777777777777778,0,0)" xlink:href="#V"/><use transform="matrix(0.017777777777777778,0,0,0.017777777777777778,12.337777777777777,0)" xlink:href="#J"/><use transform="matrix(0.017777777777777778,0,0,0.017777777777777778,17.191111111111113,0)" xlink:href="#O"/><use transform="matrix(0.017777777777777778,0,0,0.017777777777777778,25.226666666666667,0)" xlink:href="#P"/><use transform="matrix(0.017777777777777778,0,0,0.017777777777777778,31.253333333333334,0)" xlink:href="#E"/><use transform="matrix(0.017777777777777778,0,0,0.017777777777777778,41.45777777777778,0)" xlink:href="#T"/><use transform="matrix(0.017777777777777778,0,0,0.017777777777777778,47.68,0)" xlink:href="#aa"/></g><path fill="#666" d="M170 0c-20 3-49 3-69 0v-719h353c3 19 3 44 0 63H170v243h246c3 19 3 44 0 63H170V0" id="ai"/><path fill="#666" d="M26-510c22-3 54-3 76 0L263-69l164-441c20-3 48-3 68 0L292 0c-20 4-42 4-63 0" id="aj"/><g id="x"><use transform="matrix(0.017777777777777778,0,0,0.017777777777777778,0,0)" xlink:href="#ai"/><use transform="matrix(0.017777777777777778,0,0,0.017777777777777778,8.924444444444445,0)" xlink:href="#R"/><use transform="matrix(0.017777777777777778,0,0,0.017777777777777778,18.044444444444444,0)" xlink:href="#aj"/><use transform="matrix(0.017777777777777778,0,0,0.017777777777777778,27.306666666666665,0)" xlink:href="#E"/><use transform="matrix(0.017777777777777778,0,0,0.017777777777777778,37.511111111111106,0)" xlink:href="#T"/><use transform="matrix(0.017777777777777778,0,0,0.017777777777777778,43.73333333333333,0)" xlink:href="#J"/><use transform="matrix(0.017777777777777778,0,0,0.017777777777777778,48.58666666666666,0)" xlink:href="#P"/><use transform="matrix(0.017777777777777778,0,0,0.017777777777777778,54.61333333333332,0)" xlink:href="#N"/><use transform="matrix(0.017777777777777778,0,0,0.017777777777777778,64.44444444444443,0)" xlink:href="#O"/></g><g id="y"><use transform="matrix(0.017777777777777778,0,0,0.017777777777777778,0,0)" xlink:href="#Q"/><use transform="matrix(0.017777777777777778,0,0,0.017777777777777778,9.848888888888888,0)" xlink:href="#T"/><use transform="matrix(0.017777777777777778,0,0,0.017777777777777778,16.07111111111111,0)" xlink:href="#E"/><use transform="matrix(0.017777777777777778,0,0,0.017777777777777778,26.275555555555556,0)" xlink:href="#U"/><use transform="matrix(0.017777777777777778,0,0,0.017777777777777778,36.675555555555555,0)" xlink:href="#Z"/><use transform="matrix(0.017777777777777778,0,0,0.017777777777777778,46.897777777777776,0)" xlink:href="#ah"/><use transform="matrix(0.017777777777777778,0,0,0.017777777777777778,55.431111111111115,0)" xlink:href="#P"/></g><path fill="#666" d="M267 12c-57 0-117-4-166-12v-719c50-7 110-10 166-11 243 2 368 127 368 369 0 249-123 373-368 373zm296-376c0-235-155-325-393-295v599c26 3 62 6 93 6 206 3 300-101 300-310" id="ak"/><g id="z"><use transform="matrix(0.017777777777777778,0,0,0.017777777777777778,0,0)" xlink:href="#ak"/><use transform="matrix(0.017777777777777778,0,0,0.017777777777777778,12.426666666666666,0)" xlink:href="#N"/><use transform="matrix(0.017777777777777778,0,0,0.017777777777777778,22.257777777777775,0)" xlink:href="#P"/><use transform="matrix(0.017777777777777778,0,0,0.017777777777777778,28.284444444444443,0)" xlink:href="#R"/><use transform="matrix(0.017777777777777778,0,0,0.017777777777777778,37.404444444444444,0)" xlink:href="#J"/><use transform="matrix(0.017777777777777778,0,0,0.017777777777777778,42.257777777777775,0)" xlink:href="#ag"/><use transform="matrix(0.017777777777777778,0,0,0.017777777777777778,47.217777777777776,0)" xlink:href="#O"/></g><g id="A"><use transform="matrix(0.017777777777777778,0,0,0.017777777777777778,0,0)" xlink:href="#Q"/><use transform="matrix(0.017777777777777778,0,0,0.017777777777777778,9.848888888888888,0)" xlink:href="#T"/><use transform="matrix(0.017777777777777778,0,0,0.017777777777777778,16.07111111111111,0)" xlink:href="#E"/><use transform="matrix(0.017777777777777778,0,0,0.017777777777777778,26.275555555555556,0)" xlink:href="#U"/><use transform="matrix(0.017777777777777778,0,0,0.017777777777777778,36.675555555555555,0)" xlink:href="#Z"/><use transform="matrix(0.017777777777777778,0,0,0.017777777777777778,46.897777777777776,0)" xlink:href="#ah"/><use transform="matrix(0.017777777777777778,0,0,0.017777777777777778,55.431111111111115,0)" xlink:href="#P"/><use transform="matrix(0.017777777777777778,0,0,0.017777777777777778,61.45777777777777,0)" xlink:href="#O"/></g><g id="B"><use transform="matrix(0.017777777777777778,0,0,0.017777777777777778,0,0)" xlink:href="#Q"/><use transform="matrix(0.017777777777777778,0,0,0.017777777777777778,9.848888888888888,0)" xlink:href="#T"/><use transform="matrix(0.017777777777777778,0,0,0.017777777777777778,16.07111111111111,0)" xlink:href="#E"/><use transform="matrix(0.017777777777777778,0,0,0.017777777777777778,26.275555555555556,0)" xlink:href="#ae"/><use transform="matrix(0.017777777777777778,0,0,0.017777777777777778,32.49777777777778,0)" xlink:href="#J"/><use transform="matrix(0.017777777777777778,0,0,0.017777777777777778,37.35111111111111,0)" xlink:href="#ag"/><use transform="matrix(0.017777777777777778,0,0,0.017777777777777778,42.31111111111111,0)" xlink:href="#N"/></g><g id="C"><use transform="matrix(0.017777777777777778,0,0,0.017777777777777778,0,0)" xlink:href="#D"/><use transform="matrix(0.017777777777777778,0,0,0.017777777777777778,8.835555555555555,0)" xlink:href="#R"/><use transform="matrix(0.017777777777777778,0,0,0.017777777777777778,17.955555555555556,0)" xlink:href="#H"/><use transform="matrix(0.017777777777777778,0,0,0.017777777777777778,28.124444444444446,0)" xlink:href="#U"/><use transform="matrix(0.017777777777777778,0,0,0.017777777777777778,38.52444444444444,0)" xlink:href="#J"/><use transform="matrix(0.017777777777777778,0,0,0.017777777777777778,43.37777777777777,0)" xlink:href="#H"/><use transform="matrix(0.017777777777777778,0,0,0.017777777777777778,53.54666666666666,0)" xlink:href="#F"/></g></defs></g></svg>