<?xml version="1.0" encoding="utf-8"?>
<!-- Generator: Adobe Illustrator 25.2.1, SVG Export Plug-In . SVG Version: 6.00 Build 0)  -->
<svg version="1.1" id="Layer_1" xmlns="http://www.w3.org/2000/svg" xmlns:xlink="http://www.w3.org/1999/xlink" x="0px" y="0px"
	 viewBox="0 0 106.4 82.8" style="enable-background:new 0 0 106.4 82.8;" xml:space="preserve">
<style type="text/css">
	.st0{opacity:0.3;fill:#D44C56;enable-background:new    ;}
	.st1{fill:none;stroke:#D44C56;stroke-linecap:round;stroke-linejoin:round;stroke-miterlimit:10;}
</style>
<g id="uiux-icon" transform="translate(0.5 0.5)">
	<rect id="Rectangle_1518" x="33.3" y="66.5" class="st0" width="16.1" height="3.8"/>
	<path id="Path_107" class="st1" d="M67.7,66.6H9.3c-5.1,0-9.2-4.1-9.3-9.3V12.1C0,7,4.1,2.9,9.3,2.9h64.4c5.1,0,9.2,4.1,9.3,9.3
		v17.3"/>
	<path id="Path_108" class="st1" d="M67.7,53.3H9.3c-2.7,0-5-2.2-5-5v-36c0-2.7,2.2-5,5-5h64.3c2.7,0,5,2.2,5,5V29"/>
	<path id="Path_109" class="st0" d="M4.3,13.9v-1.6c0-2.7,2.2-5,5-5h64.3c2.7,0,5,2.2,5,5v1.6L4.3,13.9L4.3,13.9z"/>
	<path id="Path_110" class="st1" d="M4.3,13.9v-1.6c0-2.7,2.2-5,5-5h64.3c2.7,0,5,2.2,5,5v1.6L4.3,13.9L4.3,13.9z"/>
	<ellipse id="Ellipse_42" class="st0" cx="41.4" cy="60.1" rx="2.8" ry="2.8"/>
	<ellipse id="Ellipse_43" class="st1" cx="41.4" cy="60.1" rx="2.8" ry="2.8"/>
	<path id="Path_111" class="st1" d="M49.5,66.8c0,0-1.5,9.5,5.7,9.5H27.6c7.2,0,5.6-9.4,5.6-9.4"/>
	<rect id="Rectangle_1519" x="9.9" y="18.9" class="st1" width="27.6" height="10.3"/>
	<g id="Group_121" transform="translate(42.048 20.122)">
		<line id="Line_38" class="st1" x1="0" y1="0" x2="23.1" y2="0"/>
		<line id="Line_39" class="st1" x1="0" y1="4.6" x2="26.9" y2="4.6"/>
		<line id="Line_40" class="st1" x1="0" y1="7.7" x2="23.1" y2="7.7"/>
	</g>
	<rect id="Rectangle_1520" x="9.9" y="34.9" class="st0" width="13.8" height="13.8"/>
	<rect id="Rectangle_1521" x="9.9" y="34.9" class="st1" width="13.8" height="13.8"/>
	<rect id="Rectangle_1522" x="28.7" y="34.9" class="st1" width="13.8" height="13.8"/>
	<rect id="Rectangle_1523" x="47.6" y="34.9" class="st1" width="13.8" height="13.8"/>
	<path id="Path_112" class="st1" d="M100.7,81.8H71.4c-2,0-3.7-1.7-3.7-3.7v-45c0-2,1.7-3.7,3.7-3.7h29.3c2,0,3.7,1.7,3.7,3.7v45
		C104.4,80.2,102.8,81.8,100.7,81.8z"/>
	<path id="Path_113" class="st1" d="M99.5,73.4H72.7c-1.3,0-2.4-1.1-2.4-2.4V34.8c0-1.3,1.1-2.4,2.4-2.4h26.8c1.3,0,2.4,1.1,2.4,2.4
		V71C101.9,72.3,100.8,73.4,99.5,73.4L99.5,73.4z"/>
	<ellipse id="Ellipse_44" class="st0" cx="87.5" cy="77.5" rx="1.7" ry="1.7"/>
	<ellipse id="Ellipse_45" class="st1" cx="87.5" cy="77.5" rx="1.7" ry="1.7"/>
	<rect id="Rectangle_1524" x="74.8" y="36.3" class="st0" width="23.5" height="19.7"/>
	<rect id="Rectangle_1525" x="74.3" y="36.3" class="st1" width="24" height="19.7"/>
	<line id="Line_41" class="st1" x1="75.1" y1="61.6" x2="93.5" y2="61.6"/>
	<line id="Line_42" class="st1" x1="75.1" y1="64.7" x2="90.5" y2="64.7"/>
	<g id="Group_122" transform="translate(91.276 17.014)">
		<line id="Line_43" class="st1" x1="2.4" y1="0" x2="2.4" y2="4.8"/>
		<line id="Line_44" class="st1" x1="4.8" y1="2.4" x2="0" y2="2.4"/>
	</g>
	<g id="Group_123" transform="translate(97.452 0)">
		<line id="Line_45" class="st1" x1="4" y1="0" x2="4" y2="8"/>
		<line id="Line_46" class="st1" x1="8" y1="4" x2="0" y2="4"/>
	</g>
</g>
</svg>
